<?plantuml 1.2026.1?><svg xmlns="http://www.w3.org/2000/svg" xmlns:xlink="http://www.w3.org/1999/xlink" contentStyleType="text/css" data-diagram-type="CLASS" height="1193px" preserveAspectRatio="none" style="width:2085px;height:1193px;background:#FFFFFF;" version="1.1" viewBox="0 0 2085 1193" width="2085px" zoomAndPan="magnify"><defs/><g><!--cluster Core Domain--><g class="cluster" data-qualified-name="Core Domain" data-source-line="6" id="ent0002"><path d="M8.5,6 L103.1934,6 A3.75,3.75 0 0 1 105.6934,8.5 L112.6934,28.4883 L615.5,28.4883 A2.5,2.5 0 0 1 618,30.9883 L618,960.72 A2.5,2.5 0 0 1 615.5,963.22 L8.5,963.22 A2.5,2.5 0 0 1 6,960.72 L6,8.5 A2.5,2.5 0 0 1 8.5,6" fill="none" style="stroke:#000000;stroke-width:1.5;"/><line style="stroke:#000000;stroke-width:1.5;" x1="6" x2="112.6934" y1="28.4883" y2="28.4883"/><text fill="#000000" font-family="sans-serif" font-size="14" font-weight="bold" lengthAdjust="spacing" textLength="93.6934" x="10" y="21.5352">Core Domain</text></g><!--cluster Metadata Classifications--><g class="cluster" data-qualified-name="Metadata Classifications" data-source-line="59" id="ent0008"><path d="M644.5,790.03 L821.7988,790.03 A3.75,3.75 0 0 1 824.2988,792.53 L831.2988,812.5183 L1882.5,812.5183 A2.5,2.5 0 0 1 1885,815.0183 L1885,1183.72 A2.5,2.5 0 0 1 1882.5,1186.22 L644.5,1186.22 A2.5,2.5 0 0 1 642,1183.72 L642,792.53 A2.5,2.5 0 0 1 644.5,790.03" fill="none" style="stroke:#000000;stroke-width:1.5;"/><line style="stroke:#000000;stroke-width:1.5;" x1="642" x2="831.2988" y1="812.5183" y2="812.5183"/><text fill="#000000" font-family="sans-serif" font-size="14" font-weight="bold" lengthAdjust="spacing" textLength="176.2988" x="646" y="805.5652">Metadata Classifications</text></g><!--class instrument--><g class="entity" data-qualified-name="Core Domain.instrument" data-source-line="7" id="ent0003"><rect fill="#F1F1F1" height="229.3711" rx="2.5" ry="2.5" style="stroke:#181818;stroke-width:0.5;" width="273.8438" x="328.08" y="445.39"/><ellipse cx="423.5986" cy="461.39" fill="#ADD1B2" rx="11" ry="11" style="stroke:#181818;stroke-width:1;"/><path d="M427.2128,467.89 L419.4931,467.89 L419.4931,455.4969 L427.2128,455.4969 L427.2128,457.6551 L421.9418,457.6551 L421.9418,460.328 L426.7148,460.328 L426.7148,462.4862 L421.9418,462.4862 L421.9418,465.7318 L427.2128,465.7318 Z " fill="#000000"/><text fill="#000000" font-family="sans-serif" font-size="14" lengthAdjust="spacing" textLength="74.3066" x="444.0986" y="466.681">Instrument</text><line style="stroke:#181818;stroke-width:0.5;" x1="329.08" x2="600.9237" y1="477.39" y2="477.39"/><g data-visibility-modifier="IE_MANDATORY"><ellipse cx="339.08" cy="491.1341" fill="#000000" rx="3" ry="3" style="stroke:#000000;stroke-width:1;"/></g><text fill="#000000" font-family="sans-serif" font-size="14" lengthAdjust="spacing" textLength="200.8193" x="348.08" y="494.9252">instrument_id : INTEGER &#171;PK&#187;</text><line style="stroke:#181818;stroke-width:1;" x1="329.08" x2="600.9237" y1="501.8783" y2="501.8783"/><text fill="#000000" font-family="sans-serif" font-size="14" lengthAdjust="spacing" textLength="173.6602" x="348.08" y="519.4134">isin : TEXT &#171;UQ, nullable&#187;</text><g data-visibility-modifier="IE_MANDATORY"><ellipse cx="339.08" cy="532.1107" fill="#000000" rx="3" ry="3" style="stroke:#000000;stroke-width:1;"/></g><text fill="#000000" font-family="sans-serif" font-size="14" lengthAdjust="spacing" textLength="84.6357" x="348.08" y="535.9017">name : TEXT</text><g data-visibility-modifier="IE_MANDATORY"><ellipse cx="339.08" cy="548.599" fill="#000000" rx="3" ry="3" style="stroke:#000000;stroke-width:1;"/></g><text fill="#000000" font-family="sans-serif" font-size="14" lengthAdjust="spacing" textLength="236.749" x="348.08" y="552.39">instrument_type_id : INTEGER &#171;FK&#187;</text><text fill="#000000" font-family="sans-serif" font-size="14" lengthAdjust="spacing" textLength="170.4473" x="348.08" y="568.8783">profile_id : INTEGER &#171;FK&#187;</text><text fill="#000000" font-family="sans-serif" font-size="14" lengthAdjust="spacing" textLength="189.3008" x="348.08" y="585.3666">risk_level_id : INTEGER &#171;FK&#187;</text><text fill="#000000" font-family="sans-serif" font-size="14" lengthAdjust="spacing" textLength="239.4697" x="348.08" y="601.8548">asset_class_level_id : INTEGER &#171;FK&#187;</text><text fill="#000000" font-family="sans-serif" font-size="14" lengthAdjust="spacing" textLength="204.7295" x="348.08" y="618.3431">market_cap_id : INTEGER &#171;FK&#187;</text><text fill="#000000" font-family="sans-serif" font-size="14" lengthAdjust="spacing" textLength="167.9385" x="348.08" y="634.8314">sector_id : INTEGER &#171;FK&#187;</text><text fill="#000000" font-family="sans-serif" font-size="14" lengthAdjust="spacing" textLength="213.5547" x="348.08" y="651.3197">sub_industry_id : INTEGER &#171;FK&#187;</text><text fill="#000000" font-family="sans-serif" font-size="14" lengthAdjust="spacing" textLength="247.8438" x="348.08" y="667.808">country_exposure_id : INTEGER &#171;FK&#187;</text></g><!--class listing--><g class="entity" data-qualified-name="Core Domain.listing" data-source-line="22" id="ent0004"><rect fill="#F1F1F1" height="130.4414" rx="2.5" ry="2.5" style="stroke:#181818;stroke-width:0.5;" width="226.5869" x="21.71" y="494.86"/><ellipse cx="108.0787" cy="510.86" fill="#ADD1B2" rx="11" ry="11" style="stroke:#181818;stroke-width:1;"/><path d="M111.6929,517.36 L103.9732,517.36 L103.9732,504.9669 L111.6929,504.9669 L111.6929,507.1251 L106.4219,507.1251 L106.4219,509.798 L111.1949,509.798 L111.1949,511.9562 L106.4219,511.9562 L106.4219,515.2018 L111.6929,515.2018 Z " fill="#000000"/><text fill="#000000" font-family="sans-serif" font-size="14" lengthAdjust="spacing" textLength="45.3496" x="128.5787" y="516.151">Listing</text><line style="stroke:#181818;stroke-width:0.5;" x1="22.71" x2="247.2969" y1="526.86" y2="526.86"/><g data-visibility-modifier="IE_MANDATORY"><ellipse cx="32.71" cy="540.6041" fill="#000000" rx="3" ry="3" style="stroke:#000000;stroke-width:1;"/></g><text fill="#000000" font-family="sans-serif" font-size="14" lengthAdjust="spacing" textLength="168.4307" x="41.71" y="544.3952">listing_id : INTEGER &#171;PK&#187;</text><line style="stroke:#181818;stroke-width:1;" x1="22.71" x2="247.2969" y1="551.3483" y2="551.3483"/><g data-visibility-modifier="IE_MANDATORY"><ellipse cx="32.71" cy="565.0924" fill="#000000" rx="3" ry="3" style="stroke:#000000;stroke-width:1;"/></g><text fill="#000000" font-family="sans-serif" font-size="14" lengthAdjust="spacing" textLength="200.5869" x="41.71" y="568.8834">instrument_id : INTEGER &#171;FK&#187;</text><g data-visibility-modifier="IE_MANDATORY"><ellipse cx="32.71" cy="581.5807" fill="#000000" rx="3" ry="3" style="stroke:#000000;stroke-width:1;"/></g><text fill="#000000" font-family="sans-serif" font-size="14" lengthAdjust="spacing" textLength="174.0156" x="41.71" y="585.3717">market_id : INTEGER &#171;FK&#187;</text><g data-visibility-modifier="IE_MANDATORY"><ellipse cx="32.71" cy="598.069" fill="#000000" rx="3" ry="3" style="stroke:#000000;stroke-width:1;"/></g><text fill="#000000" font-family="sans-serif" font-size="14" lengthAdjust="spacing" textLength="135.707" x="41.71" y="601.86">symbol_code : TEXT</text><text fill="#000000" font-family="sans-serif" font-size="14" lengthAdjust="spacing" textLength="161.2393" x="41.71" y="618.3483">currency_id : TEXT &#171;FK&#187;</text></g><!--class market--><g class="entity" data-qualified-name="Core Domain.market" data-source-line="31" id="ent0005"><rect fill="#F1F1F1" height="163.418" rx="2.5" ry="2.5" style="stroke:#181818;stroke-width:0.5;" width="200.248" x="353.88" y="201.97"/><ellipse cx="426.3854" cy="217.97" fill="#ADD1B2" rx="11" ry="11" style="stroke:#181818;stroke-width:1;"/><path d="M429.9996,224.47 L422.2799,224.47 L422.2799,212.0769 L429.9996,212.0769 L429.9996,214.2351 L424.7286,214.2351 L424.7286,216.908 L429.5016,216.908 L429.5016,219.0662 L424.7286,219.0662 L424.7286,222.3118 L429.9996,222.3118 Z " fill="#000000"/><text fill="#000000" font-family="sans-serif" font-size="14" lengthAdjust="spacing" textLength="46.7373" x="446.8854" y="223.261">Market</text><line style="stroke:#181818;stroke-width:0.5;" x1="354.88" x2="553.128" y1="233.97" y2="233.97"/><g data-visibility-modifier="IE_MANDATORY"><ellipse cx="364.88" cy="247.7141" fill="#000000" rx="3" ry="3" style="stroke:#000000;stroke-width:1;"/></g><text fill="#000000" font-family="sans-serif" font-size="14" lengthAdjust="spacing" textLength="174.248" x="373.88" y="251.5052">market_id : INTEGER &#171;PK&#187;</text><line style="stroke:#181818;stroke-width:1;" x1="354.88" x2="553.128" y1="258.4583" y2="258.4583"/><g data-visibility-modifier="IE_MANDATORY"><ellipse cx="364.88" cy="272.2024" fill="#000000" rx="3" ry="3" style="stroke:#000000;stroke-width:1;"/></g><text fill="#000000" font-family="sans-serif" font-size="14" lengthAdjust="spacing" textLength="150.6914" x="373.88" y="275.9934">mic_code : TEXT &#171;UQ&#187;</text><text fill="#000000" font-family="sans-serif" font-size="14" lengthAdjust="spacing" textLength="132.6309" x="373.88" y="292.4817">ticker_prefix : TEXT</text><g data-visibility-modifier="IE_MANDATORY"><ellipse cx="364.88" cy="305.179" fill="#000000" rx="3" ry="3" style="stroke:#000000;stroke-width:1;"/></g><text fill="#000000" font-family="sans-serif" font-size="14" lengthAdjust="spacing" textLength="84.6357" x="373.88" y="308.97">name : TEXT</text><text fill="#000000" font-family="sans-serif" font-size="14" lengthAdjust="spacing" textLength="73.7119" x="373.88" y="325.4583">title : TEXT</text><g data-visibility-modifier="IE_MANDATORY"><ellipse cx="364.88" cy="338.1555" fill="#000000" rx="3" ry="3" style="stroke:#000000;stroke-width:1;"/></g><text fill="#000000" font-family="sans-serif" font-size="14" lengthAdjust="spacing" textLength="173.8994" x="373.88" y="341.9466">country_code : TEXT &#171;FK&#187;</text><text fill="#000000" font-family="sans-serif" font-size="14" lengthAdjust="spacing" textLength="110.6123" x="373.88" y="358.4348">timezone : TEXT</text></g><!--class country--><g class="entity" data-qualified-name="Core Domain.country" data-source-line="42" id="ent0006"><rect fill="#F1F1F1" height="80.9766" rx="2.5" ry="2.5" style="stroke:#181818;stroke-width:0.5;" width="200.1318" x="353.93" y="41"/><ellipse cx="422.7747" cy="57" fill="#ADD1B2" rx="11" ry="11" style="stroke:#181818;stroke-width:1;"/><path d="M426.389,63.5 L418.6693,63.5 L418.6693,51.1069 L426.389,51.1069 L426.389,53.2651 L421.118,53.2651 L421.118,55.938 L425.8909,55.938 L425.8909,58.0962 L421.118,58.0962 L421.118,61.3418 L426.389,61.3418 Z " fill="#000000"/><text fill="#000000" font-family="sans-serif" font-size="14" lengthAdjust="spacing" textLength="53.9424" x="443.2747" y="62.291">Country</text><line style="stroke:#181818;stroke-width:0.5;" x1="354.93" x2="553.0618" y1="73" y2="73"/><g data-visibility-modifier="IE_MANDATORY"><ellipse cx="364.93" cy="86.7441" fill="#000000" rx="3" ry="3" style="stroke:#000000;stroke-width:1;"/></g><text fill="#000000" font-family="sans-serif" font-size="14" lengthAdjust="spacing" textLength="174.1318" x="373.93" y="90.5352">country_code : TEXT &#171;PK&#187;</text><line style="stroke:#181818;stroke-width:1;" x1="354.93" x2="553.0618" y1="97.4883" y2="97.4883"/><g data-visibility-modifier="IE_MANDATORY"><ellipse cx="364.93" cy="111.2324" fill="#000000" rx="3" ry="3" style="stroke:#000000;stroke-width:1;"/></g><text fill="#000000" font-family="sans-serif" font-size="14" lengthAdjust="spacing" textLength="84.6357" x="373.93" y="115.0234">name : TEXT</text></g><!--class currency--><g class="entity" data-qualified-name="Core Domain.currency" data-source-line="48" id="ent0007"><rect fill="#F1F1F1" height="146.9297" rx="2.5" ry="2.5" style="stroke:#181818;stroke-width:0.5;" width="194.3486" x="37.83" y="800.29"/><ellipse cx="100.3515" cy="816.29" fill="#ADD1B2" rx="11" ry="11" style="stroke:#181818;stroke-width:1;"/><path d="M103.9657,822.79 L96.246,822.79 L96.246,810.3969 L103.9657,810.3969 L103.9657,812.5551 L98.6947,812.5551 L98.6947,815.228 L103.4677,815.228 L103.4677,817.3862 L98.6947,817.3862 L98.6947,820.6318 L103.9657,820.6318 Z " fill="#000000"/><text fill="#000000" font-family="sans-serif" font-size="14" lengthAdjust="spacing" textLength="60.8057" x="120.8515" y="821.581">Currency</text><line style="stroke:#181818;stroke-width:0.5;" x1="38.83" x2="231.1786" y1="832.29" y2="832.29"/><g data-visibility-modifier="IE_MANDATORY"><ellipse cx="48.83" cy="846.0341" fill="#000000" rx="3" ry="3" style="stroke:#000000;stroke-width:1;"/></g><text fill="#000000" font-family="sans-serif" font-size="14" lengthAdjust="spacing" textLength="161.4717" x="57.83" y="849.8252">currency_id : TEXT &#171;PK&#187;</text><line style="stroke:#181818;stroke-width:1;" x1="38.83" x2="231.1786" y1="856.7783" y2="856.7783"/><g data-visibility-modifier="IE_MANDATORY"><ellipse cx="48.83" cy="870.5224" fill="#000000" rx="3" ry="3" style="stroke:#000000;stroke-width:1;"/></g><text fill="#000000" font-family="sans-serif" font-size="14" lengthAdjust="spacing" textLength="84.6357" x="57.83" y="874.3134">name : TEXT</text><g data-visibility-modifier="IE_MANDATORY"><ellipse cx="48.83" cy="887.0107" fill="#000000" rx="3" ry="3" style="stroke:#000000;stroke-width:1;"/></g><text fill="#000000" font-family="sans-serif" font-size="14" lengthAdjust="spacing" textLength="88.5801" x="57.83" y="890.8017">code3 : TEXT</text><g data-visibility-modifier="IE_MANDATORY"><ellipse cx="48.83" cy="903.499" fill="#000000" rx="3" ry="3" style="stroke:#000000;stroke-width:1;"/></g><text fill="#000000" font-family="sans-serif" font-size="14" lengthAdjust="spacing" textLength="88.5801" x="57.83" y="907.29">code2 : TEXT</text><g data-visibility-modifier="IE_MANDATORY"><ellipse cx="48.83" cy="919.9873" fill="#000000" rx="3" ry="3" style="stroke:#000000;stroke-width:1;"/></g><text fill="#000000" font-family="sans-serif" font-size="14" lengthAdjust="spacing" textLength="161.6152" x="57.83" y="923.7783">currency_symbol : TEXT</text><g data-visibility-modifier="IE_MANDATORY"><ellipse cx="48.83" cy="936.4755" fill="#000000" rx="3" ry="3" style="stroke:#000000;stroke-width:1;"/></g><text fill="#000000" font-family="sans-serif" font-size="14" lengthAdjust="spacing" textLength="168.3486" x="57.83" y="940.2666">decimal_digits : INTEGER</text></g><!--class profile--><g class="entity" data-qualified-name="Metadata Classifications.profile" data-source-line="60" id="ent0009"><rect fill="#F1F1F1" height="80.9766" rx="2.5" ry="2.5" style="stroke:#181818;stroke-width:0.5;" width="196.6797" x="1314.66" y="833.27"/><ellipse cx="1387.1961" cy="849.27" fill="#ADD1B2" rx="11" ry="11" style="stroke:#181818;stroke-width:1;"/><path d="M1390.8104,855.77 L1383.0907,855.77 L1383.0907,843.3769 L1390.8104,843.3769 L1390.8104,845.5351 L1385.5394,845.5351 L1385.5394,848.208 L1390.3123,848.208 L1390.3123,850.3662 L1385.5394,850.3662 L1385.5394,853.6118 L1390.8104,853.6118 Z " fill="#000000"/><text fill="#000000" font-family="sans-serif" font-size="14" lengthAdjust="spacing" textLength="43.1074" x="1407.6961" y="854.561">Profile</text><line style="stroke:#181818;stroke-width:0.5;" x1="1315.66" x2="1510.3397" y1="865.27" y2="865.27"/><g data-visibility-modifier="IE_MANDATORY"><ellipse cx="1325.66" cy="879.0141" fill="#000000" rx="3" ry="3" style="stroke:#000000;stroke-width:1;"/></g><text fill="#000000" font-family="sans-serif" font-size="14" lengthAdjust="spacing" textLength="170.6797" x="1334.66" y="882.8052">profile_id : INTEGER &#171;PK&#187;</text><line style="stroke:#181818;stroke-width:1;" x1="1315.66" x2="1510.3397" y1="889.7583" y2="889.7583"/><g data-visibility-modifier="IE_MANDATORY"><ellipse cx="1325.66" cy="903.5024" fill="#000000" rx="3" ry="3" style="stroke:#000000;stroke-width:1;"/></g><text fill="#000000" font-family="sans-serif" font-size="14" lengthAdjust="spacing" textLength="124.3115" x="1334.66" y="907.2934">name : TEXT &#171;UQ&#187;</text></g><!--class risk_level--><g class="entity" data-qualified-name="Metadata Classifications.risk_level" data-source-line="66" id="ent0010"><rect fill="#F1F1F1" height="97.4648" rx="2.5" ry="2.5" style="stroke:#181818;stroke-width:0.5;" width="215.5332" x="1591.23" y="825.03"/><ellipse cx="1663.4585" cy="841.03" fill="#ADD1B2" rx="11" ry="11" style="stroke:#181818;stroke-width:1;"/><path d="M1667.0728,847.53 L1659.353,847.53 L1659.353,835.1369 L1667.0728,835.1369 L1667.0728,837.2951 L1661.8018,837.2951 L1661.8018,839.968 L1666.5747,839.968 L1666.5747,842.1262 L1661.8018,842.1262 L1661.8018,845.3718 L1667.0728,845.3718 Z " fill="#000000"/><text fill="#000000" font-family="sans-serif" font-size="14" lengthAdjust="spacing" textLength="62.5762" x="1683.9585" y="846.321">RiskLevel</text><line style="stroke:#181818;stroke-width:0.5;" x1="1592.23" x2="1805.7632" y1="857.03" y2="857.03"/><g data-visibility-modifier="IE_MANDATORY"><ellipse cx="1602.23" cy="870.7741" fill="#000000" rx="3" ry="3" style="stroke:#000000;stroke-width:1;"/></g><text fill="#000000" font-family="sans-serif" font-size="14" lengthAdjust="spacing" textLength="189.5332" x="1611.23" y="874.5652">risk_level_id : INTEGER &#171;PK&#187;</text><line style="stroke:#181818;stroke-width:1;" x1="1592.23" x2="1805.7632" y1="881.5183" y2="881.5183"/><g data-visibility-modifier="IE_MANDATORY"><ellipse cx="1602.23" cy="895.2624" fill="#000000" rx="3" ry="3" style="stroke:#000000;stroke-width:1;"/></g><text fill="#000000" font-family="sans-serif" font-size="14" lengthAdjust="spacing" textLength="124.3115" x="1611.23" y="899.0534">name : TEXT &#171;UQ&#187;</text><g data-visibility-modifier="IE_MANDATORY"><ellipse cx="1602.23" cy="911.7507" fill="#000000" rx="3" ry="3" style="stroke:#000000;stroke-width:1;"/></g><text fill="#000000" font-family="sans-serif" font-size="14" lengthAdjust="spacing" textLength="115.9512" x="1611.23" y="915.5417">weight : INTEGER</text></g><!--class asset_class_level--><g class="entity" data-qualified-name="Metadata Classifications.asset_class_level" data-source-line="73" id="ent0011"><rect fill="#F1F1F1" height="97.4648" rx="2.5" ry="2.5" style="stroke:#181818;stroke-width:0.5;" width="265.7021" x="658.15" y="825.03"/><ellipse cx="733.2188" cy="841.03" fill="#ADD1B2" rx="11" ry="11" style="stroke:#181818;stroke-width:1;"/><path d="M736.8331,847.53 L729.1134,847.53 L729.1134,835.1369 L736.8331,835.1369 L736.8331,837.2951 L731.5621,837.2951 L731.5621,839.968 L736.3351,839.968 L736.3351,842.1262 L731.5621,842.1262 L731.5621,845.3718 L736.8331,845.3718 Z " fill="#000000"/><text fill="#000000" font-family="sans-serif" font-size="14" lengthAdjust="spacing" textLength="107.0645" x="753.7188" y="846.321">AssetClassLevel</text><line style="stroke:#181818;stroke-width:0.5;" x1="659.15" x2="922.8521" y1="857.03" y2="857.03"/><g data-visibility-modifier="IE_MANDATORY"><ellipse cx="669.15" cy="870.7741" fill="#000000" rx="3" ry="3" style="stroke:#000000;stroke-width:1;"/></g><text fill="#000000" font-family="sans-serif" font-size="14" lengthAdjust="spacing" textLength="239.7021" x="678.15" y="874.5652">asset_class_level_id : INTEGER &#171;PK&#187;</text><line style="stroke:#181818;stroke-width:1;" x1="659.15" x2="922.8521" y1="881.5183" y2="881.5183"/><g data-visibility-modifier="IE_MANDATORY"><ellipse cx="669.15" cy="895.2624" fill="#000000" rx="3" ry="3" style="stroke:#000000;stroke-width:1;"/></g><text fill="#000000" font-family="sans-serif" font-size="14" lengthAdjust="spacing" textLength="124.3115" x="678.15" y="899.0534">name : TEXT &#171;UQ&#187;</text><text fill="#000000" font-family="sans-serif" font-size="14" lengthAdjust="spacing" textLength="123.4229" x="678.15" y="915.5417">description : TEXT</text></g><!--class market_cap--><g class="entity" data-qualified-name="Metadata Classifications.market_cap" data-source-line="80" id="ent0012"><rect fill="#F1F1F1" height="80.9766" rx="2.5" ry="2.5" style="stroke:#181818;stroke-width:0.5;" width="230.9619" x="1003.52" y="833.27"/><ellipse cx="1078.2676" cy="849.27" fill="#ADD1B2" rx="11" ry="11" style="stroke:#181818;stroke-width:1;"/><path d="M1081.8818,855.77 L1074.1621,855.77 L1074.1621,843.3769 L1081.8818,843.3769 L1081.8818,845.5351 L1076.6108,845.5351 L1076.6108,848.208 L1081.3838,848.208 L1081.3838,850.3662 L1076.6108,850.3662 L1076.6108,853.6118 L1081.8818,853.6118 Z " fill="#000000"/><text fill="#000000" font-family="sans-serif" font-size="14" lengthAdjust="spacing" textLength="72.9668" x="1098.7676" y="854.561">MarketCap</text><line style="stroke:#181818;stroke-width:0.5;" x1="1004.52" x2="1233.4819" y1="865.27" y2="865.27"/><g data-visibility-modifier="IE_MANDATORY"><ellipse cx="1014.52" cy="879.0141" fill="#000000" rx="3" ry="3" style="stroke:#000000;stroke-width:1;"/></g><text fill="#000000" font-family="sans-serif" font-size="14" lengthAdjust="spacing" textLength="204.9619" x="1023.52" y="882.8052">market_cap_id : INTEGER &#171;PK&#187;</text><line style="stroke:#181818;stroke-width:1;" x1="1004.52" x2="1233.4819" y1="889.7583" y2="889.7583"/><g data-visibility-modifier="IE_MANDATORY"><ellipse cx="1014.52" cy="903.5024" fill="#000000" rx="3" ry="3" style="stroke:#000000;stroke-width:1;"/></g><text fill="#000000" font-family="sans-serif" font-size="14" lengthAdjust="spacing" textLength="124.3115" x="1023.52" y="907.2934">name : TEXT &#171;UQ&#187;</text></g><!--class sector--><g class="entity" data-qualified-name="Metadata Classifications.sector" data-source-line="86" id="ent0013"><rect fill="#F1F1F1" height="97.4648" rx="2.5" ry="2.5" style="stroke:#181818;stroke-width:0.5;" width="194.1709" x="657.91" y="1072.76"/><ellipse cx="729.7079" cy="1088.76" fill="#ADD1B2" rx="11" ry="11" style="stroke:#181818;stroke-width:1;"/><path d="M733.3221,1095.26 L725.6024,1095.26 L725.6024,1082.8669 L733.3221,1082.8669 L733.3221,1085.0251 L728.0511,1085.0251 L728.0511,1087.698 L732.8241,1087.698 L732.8241,1089.8562 L728.0511,1089.8562 L728.0511,1093.1018 L733.3221,1093.1018 Z " fill="#000000"/><text fill="#000000" font-family="sans-serif" font-size="14" lengthAdjust="spacing" textLength="42.0752" x="750.2079" y="1094.051">Sector</text><line style="stroke:#181818;stroke-width:0.5;" x1="658.91" x2="851.0809" y1="1104.76" y2="1104.76"/><g data-visibility-modifier="IE_MANDATORY"><ellipse cx="668.91" cy="1118.5041" fill="#000000" rx="3" ry="3" style="stroke:#000000;stroke-width:1;"/></g><text fill="#000000" font-family="sans-serif" font-size="14" lengthAdjust="spacing" textLength="168.1709" x="677.91" y="1122.2952">sector_id : INTEGER &#171;PK&#187;</text><line style="stroke:#181818;stroke-width:1;" x1="658.91" x2="851.0809" y1="1129.2483" y2="1129.2483"/><g data-visibility-modifier="IE_MANDATORY"><ellipse cx="668.91" cy="1142.9924" fill="#000000" rx="3" ry="3" style="stroke:#000000;stroke-width:1;"/></g><text fill="#000000" font-family="sans-serif" font-size="14" lengthAdjust="spacing" textLength="124.3115" x="677.91" y="1146.7834">name : TEXT &#171;UQ&#187;</text><text fill="#000000" font-family="sans-serif" font-size="14" lengthAdjust="spacing" textLength="123.4229" x="677.91" y="1163.2717">description : TEXT</text></g><!--class sub_industry--><g class="entity" data-qualified-name="Metadata Classifications.sub_industry" data-source-line="93" id="ent0014"><rect fill="#F1F1F1" height="97.4648" rx="2.5" ry="2.5" style="stroke:#181818;stroke-width:0.5;" width="239.7871" x="932.11" y="1072.76"/><ellipse cx="1007.4147" cy="1088.76" fill="#ADD1B2" rx="11" ry="11" style="stroke:#181818;stroke-width:1;"/><path d="M1011.0289,1095.26 L1003.3092,1095.26 L1003.3092,1082.8669 L1011.0289,1082.8669 L1011.0289,1085.0251 L1005.7579,1085.0251 L1005.7579,1087.698 L1010.5309,1087.698 L1010.5309,1089.8562 L1005.7579,1089.8562 L1005.7579,1093.1018 L1011.0289,1093.1018 Z " fill="#000000"/><text fill="#000000" font-family="sans-serif" font-size="14" lengthAdjust="spacing" textLength="80.6777" x="1027.9147" y="1094.051">SubIndustry</text><line style="stroke:#181818;stroke-width:0.5;" x1="933.11" x2="1170.8971" y1="1104.76" y2="1104.76"/><g data-visibility-modifier="IE_MANDATORY"><ellipse cx="943.11" cy="1118.5041" fill="#000000" rx="3" ry="3" style="stroke:#000000;stroke-width:1;"/></g><text fill="#000000" font-family="sans-serif" font-size="14" lengthAdjust="spacing" textLength="213.7871" x="952.11" y="1122.2952">sub_industry_id : INTEGER &#171;PK&#187;</text><line style="stroke:#181818;stroke-width:1;" x1="933.11" x2="1170.8971" y1="1129.2483" y2="1129.2483"/><g data-visibility-modifier="IE_MANDATORY"><ellipse cx="943.11" cy="1142.9924" fill="#000000" rx="3" ry="3" style="stroke:#000000;stroke-width:1;"/></g><text fill="#000000" font-family="sans-serif" font-size="14" lengthAdjust="spacing" textLength="124.3115" x="952.11" y="1146.7834">name : TEXT &#171;UQ&#187;</text><text fill="#000000" font-family="sans-serif" font-size="14" lengthAdjust="spacing" textLength="123.4229" x="952.11" y="1163.2717">description : TEXT</text></g><!--class country_exposure--><g class="entity" data-qualified-name="Metadata Classifications.country_exposure" data-source-line="100" id="ent0015"><rect fill="#F1F1F1" height="80.9766" rx="2.5" ry="2.5" style="stroke:#181818;stroke-width:0.5;" width="274.0762" x="1251.96" y="1081"/><ellipse cx="1326.3077" cy="1097" fill="#ADD1B2" rx="11" ry="11" style="stroke:#181818;stroke-width:1;"/><path d="M1329.9219,1103.5 L1322.2022,1103.5 L1322.2022,1091.1069 L1329.9219,1091.1069 L1329.9219,1093.2651 L1324.6509,1093.2651 L1324.6509,1095.938 L1329.4239,1095.938 L1329.4239,1098.0962 L1324.6509,1098.0962 L1324.6509,1101.3418 L1329.9219,1101.3418 Z " fill="#000000"/><text fill="#000000" font-family="sans-serif" font-size="14" lengthAdjust="spacing" textLength="116.8809" x="1346.8077" y="1102.291">CountryExposure</text><line style="stroke:#181818;stroke-width:0.5;" x1="1252.96" x2="1525.0362" y1="1113" y2="1113"/><g data-visibility-modifier="IE_MANDATORY"><ellipse cx="1262.96" cy="1126.7441" fill="#000000" rx="3" ry="3" style="stroke:#000000;stroke-width:1;"/></g><text fill="#000000" font-family="sans-serif" font-size="14" lengthAdjust="spacing" textLength="248.0762" x="1271.96" y="1130.5352">country_exposure_id : INTEGER &#171;PK&#187;</text><line style="stroke:#181818;stroke-width:1;" x1="1252.96" x2="1525.0362" y1="1137.4883" y2="1137.4883"/><g data-visibility-modifier="IE_MANDATORY"><ellipse cx="1262.96" cy="1151.2324" fill="#000000" rx="3" ry="3" style="stroke:#000000;stroke-width:1;"/></g><text fill="#000000" font-family="sans-serif" font-size="14" lengthAdjust="spacing" textLength="124.3115" x="1271.96" y="1155.0234">name : TEXT &#171;UQ&#187;</text></g><!--class instrument_type--><g class="entity" data-qualified-name="Metadata Classifications.instrument_type" data-source-line="106" id="ent0016"><rect fill="#F1F1F1" height="80.9766" rx="2.5" ry="2.5" style="stroke:#181818;stroke-width:0.5;" width="262.9814" x="1606.51" y="1081"/><ellipse cx="1680.2082" cy="1097" fill="#ADD1B2" rx="11" ry="11" style="stroke:#181818;stroke-width:1;"/><path d="M1683.8225,1103.5 L1676.1028,1103.5 L1676.1028,1091.1069 L1683.8225,1091.1069 L1683.8225,1093.2651 L1678.5515,1093.2651 L1678.5515,1095.938 L1683.3245,1095.938 L1683.3245,1098.0962 L1678.5515,1098.0962 L1678.5515,1101.3418 L1683.8225,1101.3418 Z " fill="#000000"/><text fill="#000000" font-family="sans-serif" font-size="14" lengthAdjust="spacing" textLength="107.085" x="1700.7082" y="1102.291">InstrumentType</text><line style="stroke:#181818;stroke-width:0.5;" x1="1607.51" x2="1868.4914" y1="1113" y2="1113"/><g data-visibility-modifier="IE_MANDATORY"><ellipse cx="1617.51" cy="1126.7441" fill="#000000" rx="3" ry="3" style="stroke:#000000;stroke-width:1;"/></g><text fill="#000000" font-family="sans-serif" font-size="14" lengthAdjust="spacing" textLength="236.9814" x="1626.51" y="1130.5352">instrument_type_id : INTEGER &#171;PK&#187;</text><line style="stroke:#181818;stroke-width:1;" x1="1607.51" x2="1868.4914" y1="1137.4883" y2="1137.4883"/><g data-visibility-modifier="IE_MANDATORY"><ellipse cx="1617.51" cy="1151.2324" fill="#000000" rx="3" ry="3" style="stroke:#000000;stroke-width:1;"/></g><text fill="#000000" font-family="sans-serif" font-size="14" lengthAdjust="spacing" textLength="124.3115" x="1626.51" y="1155.0234">name : TEXT &#171;UQ&#187;</text></g><!--class view_listings--><g class="entity" data-qualified-name="view_listings" data-source-line="113" id="ent0017"><rect fill="#F1F1F1" height="237.9922" rx="2.5" ry="2.5" style="stroke:#181818;stroke-width:0.5;" width="177.9561" x="1901.02" y="754.76"/><ellipse cx="1943.0235" cy="775.0705" fill="#ADD1B2" rx="11" ry="11" style="stroke:#181818;stroke-width:1;"/><path d="M1946.6378,781.5705 L1938.918,781.5705 L1938.918,769.1775 L1946.6378,769.1775 L1946.6378,771.3357 L1941.3668,771.3357 L1941.3668,774.0085 L1946.1397,774.0085 L1946.1397,776.1667 L1941.3668,776.1667 L1941.3668,779.4123 L1946.6378,779.4123 Z " fill="#000000"/><text fill="#000000" font-family="sans-serif" font-size="12" font-style="italic" lengthAdjust="spacing" textLength="38.1855" x="1986.9056" y="771.3616">&#171;view&#187;</text><text fill="#000000" font-family="sans-serif" font-size="14" lengthAdjust="spacing" textLength="85.9482" x="1963.0243" y="787.428">view_listings</text><line style="stroke:#181818;stroke-width:0.5;" x1="1902.02" x2="2077.9761" y1="795.3811" y2="795.3811"/><text fill="#000000" font-family="sans-serif" font-size="14" lengthAdjust="spacing" textLength="132.4531" x="1907.02" y="812.9163">listing_id : INTEGER</text><text fill="#000000" font-family="sans-serif" font-size="14" lengthAdjust="spacing" textLength="135.707" x="1907.02" y="829.4045">symbol_code : TEXT</text><text fill="#000000" font-family="sans-serif" font-size="14" lengthAdjust="spacing" textLength="165.9561" x="1907.02" y="845.8928">instrument_name : TEXT</text><text fill="#000000" font-family="sans-serif" font-size="14" lengthAdjust="spacing" textLength="157.8281" x="1907.02" y="862.3811">instrument_type : TEXT</text><text fill="#000000" font-family="sans-serif" font-size="14" lengthAdjust="spacing" textLength="139.3848" x="1907.02" y="878.8694">market_name : TEXT</text><text fill="#000000" font-family="sans-serif" font-size="14" lengthAdjust="spacing" textLength="126.3828" x="1907.02" y="895.3577">market_mic : TEXT</text><text fill="#000000" font-family="sans-serif" font-size="14" lengthAdjust="spacing" textLength="165.3613" x="1907.02" y="911.8459">market_timezone : TEXT</text><text fill="#000000" font-family="sans-serif" font-size="14" lengthAdjust="spacing" textLength="138.1543" x="1907.02" y="928.3342">country_code : TEXT</text><text fill="#000000" font-family="sans-serif" font-size="14" lengthAdjust="spacing" textLength="143.0625" x="1907.02" y="944.8225">country_name : TEXT</text><text fill="#000000" font-family="sans-serif" font-size="14" lengthAdjust="spacing" textLength="145.0176" x="1907.02" y="961.3108">currency_code : TEXT</text><text fill="#000000" font-family="sans-serif" font-size="14" lengthAdjust="spacing" textLength="161.6152" x="1907.02" y="977.7991">currency_symbol : TEXT</text><line style="stroke:#181818;stroke-width:0.5;" x1="1902.02" x2="2077.9761" y1="984.7522" y2="984.7522"/></g><g class="entity" data-qualified-name="GMN39" data-source-line="156" id="ent0040"><path d="M633.6,61.18 L633.6,77.22 L554.39,81.22 L633.6,85.22 L633.6,101.8011 A0,0 0 0 0 633.6,101.8011 L782.4037,101.8011 A0,0 0 0 0 782.4037,101.8011 L782.4037,71.18 L772.4037,61.18 L633.6,61.18 A0,0 0 0 0 633.6,61.18" fill="#FEFFDD" style="stroke:#181818;stroke-width:0.5;"/><path d="M772.4037,61.18 L772.4037,71.18 L782.4037,71.18 L772.4037,61.18" fill="#FEFFDD" style="stroke:#181818;stroke-width:0.5;"/><text fill="#000000" font-family="sans-serif" font-size="13" lengthAdjust="spacing" textLength="127.8037" x="639.6" y="78.7484">ISO 3166-1 alpha-2</text><text fill="#000000" font-family="sans-serif" font-size="13" lengthAdjust="spacing" textLength="120.7134" x="639.6" y="94.0589">(US, ES, FR, JP, etc.)</text></g><g class="entity" data-qualified-name="GMN42" data-source-line="161" id="ent0043"><path d="M634.35,255.72 L634.35,279.22 L554.56,283.22 L634.35,287.22 L634.35,311.6516 A0,0 0 0 0 634.35,311.6516 L917.6479,311.6516 A0,0 0 0 0 917.6479,311.6516 L917.6479,265.72 L907.6479,255.72 L634.35,255.72 A0,0 0 0 0 634.35,255.72" fill="#FEFFDD" style="stroke:#181818;stroke-width:0.5;"/><path d="M907.6479,255.72 L907.6479,265.72 L917.6479,265.72 L907.6479,255.72" fill="#FEFFDD" style="stroke:#181818;stroke-width:0.5;"/><text fill="#000000" font-family="sans-serif" font-size="13" lengthAdjust="spacing" textLength="118.8472" x="640.35" y="273.2884">Dual-code system:</text><text fill="#000000" font-family="sans-serif" font-size="13" lengthAdjust="spacing" textLength="191.0898" x="640.35" y="288.5989">&#8226; mic_code: ISO 10383 (XNAS)</text><text fill="#000000" font-family="sans-serif" font-size="13" lengthAdjust="spacing" textLength="262.2979" x="640.35" y="303.9095">&#8226; ticker_prefix: Google Finance (NASDAQ)</text></g><g class="entity" data-qualified-name="GMN45" data-source-line="167" id="ent0046"><path d="M682.12,539.77 L682.12,556.22 L602.13,560.22 L682.12,564.22 L682.12,580.3911 A0,0 0 0 0 682.12,580.3911 L807.8754,580.3911 A0,0 0 0 0 807.8754,580.3911 L807.8754,549.77 L797.8754,539.77 L682.12,539.77 A0,0 0 0 0 682.12,539.77" fill="#FEFFDD" style="stroke:#181818;stroke-width:0.5;"/><path d="M797.8754,539.77 L797.8754,549.77 L807.8754,549.77 L797.8754,539.77" fill="#FEFFDD" style="stroke:#181818;stroke-width:0.5;"/><text fill="#000000" font-family="sans-serif" font-size="13" lengthAdjust="spacing" textLength="100.4199" x="688.12" y="557.3384">ISIN nullable for</text><text fill="#000000" font-family="sans-serif" font-size="13" lengthAdjust="spacing" textLength="104.7554" x="688.12" y="572.6489">forex and crypto</text></g><!--link country to market--><g class="link" data-entity-1="ent0006" data-entity-2="ent0005" data-link-type="crowfoot" data-source-line="128" id="lnk18"><path codeLine="128" d="M454,130.4 C454,153.25 454,166.55 454,193.89" fill="none" id="country-market" style="stroke:#181818;stroke-width:1;stroke-dasharray:7,7;"/><line style="stroke:#181818;stroke-width:1;" x1="450" x2="458" y1="126.4" y2="126.4"/><line style="stroke:#181818;stroke-width:1;" x1="450" x2="458" y1="129.4" y2="129.4"/><line style="stroke:#181818;stroke-width:1;" x1="454" x2="454" y1="130.4" y2="122.4"/><line style="stroke:#181818;stroke-width:1;" x1="454" x2="460" y1="193.89" y2="201.89"/><line style="stroke:#181818;stroke-width:1;" x1="454" x2="448" y1="193.89" y2="201.89"/><line style="stroke:#181818;stroke-width:1;" x1="454" x2="454" y1="193.89" y2="201.89"/><line style="stroke:#181818;stroke-width:1;" x1="458" x2="450" y1="191.89" y2="191.89"/></g><!--link market to listing--><g class="link" data-entity-1="ent0005" data-entity-2="ent0004" data-link-type="crowfoot" data-source-line="129" id="lnk19"><path codeLine="129" d="M345.5,283.22 C252,283.22 135,283.22 135,283.22 C135,283.22 135,404.6 135,486.47" fill="none" id="market-listing" style="stroke:#181818;stroke-width:1;stroke-dasharray:7,7;"/><line style="stroke:#181818;stroke-width:1;" x1="349.5" x2="349.5" y1="279.22" y2="287.22"/><line style="stroke:#181818;stroke-width:1;" x1="346.5" x2="346.5" y1="279.22" y2="287.22"/><line style="stroke:#181818;stroke-width:1;" x1="345.5" x2="353.5" y1="283.22" y2="283.22"/><line style="stroke:#181818;stroke-width:1;" x1="135" x2="141" y1="486.47" y2="494.47"/><line style="stroke:#181818;stroke-width:1;" x1="135" x2="129" y1="486.47" y2="494.47"/><line style="stroke:#181818;stroke-width:1;" x1="135" x2="135" y1="486.47" y2="494.47"/><line style="stroke:#181818;stroke-width:1;" x1="139" x2="131" y1="484.47" y2="484.47"/></g><!--link instrument to listing--><g class="link" data-entity-1="ent0003" data-entity-2="ent0004" data-link-type="crowfoot" data-source-line="130" id="lnk20"><path codeLine="130" d="M319.92,560.22 C293.53,560.22 282.17,560.22 256.62,560.22" fill="none" id="instrument-listing" style="stroke:#181818;stroke-width:1;stroke-dasharray:7,7;"/><line style="stroke:#181818;stroke-width:1;" x1="323.92" x2="323.92" y1="556.22" y2="564.22"/><line style="stroke:#181818;stroke-width:1;" x1="320.92" x2="320.92" y1="556.22" y2="564.22"/><line style="stroke:#181818;stroke-width:1;" x1="319.92" x2="327.92" y1="560.22" y2="560.22"/><line style="stroke:#181818;stroke-width:1;" x1="256.62" x2="248.62" y1="560.22" y2="566.22"/><line style="stroke:#181818;stroke-width:1;" x1="256.62" x2="248.62" y1="560.22" y2="554.22"/><line style="stroke:#181818;stroke-width:1;" x1="256.62" x2="248.62" y1="560.22" y2="560.22"/><line style="stroke:#181818;stroke-width:1;" x1="258.62" x2="258.62" y1="564.22" y2="556.22"/></g><!--link listing to currency--><g class="link" data-entity-1="ent0004" data-entity-2="ent0007" data-link-type="crowfoot" data-source-line="131" id="lnk22"><path codeLine="131" d="M135,633.45 C135,684.36 135,739.02 135,791.95" fill="none" id="listing-currency" style="stroke:#181818;stroke-width:1;stroke-dasharray:7,7;"/><line style="stroke:#181818;stroke-width:1;" x1="135" x2="129" y1="633.45" y2="625.45"/><line style="stroke:#181818;stroke-width:1;" x1="135" x2="141" y1="633.45" y2="625.45"/><line style="stroke:#181818;stroke-width:1;" x1="135" x2="135" y1="633.45" y2="625.45"/><line style="stroke:#181818;stroke-width:1;" x1="131" x2="139" y1="635.45" y2="635.45"/><line style="stroke:#181818;stroke-width:1;" x1="139" x2="131" y1="795.95" y2="795.95"/><line style="stroke:#181818;stroke-width:1;" x1="139" x2="131" y1="792.95" y2="792.95"/><line style="stroke:#181818;stroke-width:1;" x1="135" x2="135" y1="791.95" y2="799.95"/></g><!--link listing to view_listings--><g class="link" data-entity-1="ent0004" data-entity-2="ent0017" data-link-type="dependency" data-source-line="133" id="lnk23"><path codeLine="133" d="M240.23,625.52 C240.23,689.46 240.23,777.22 240.23,777.22 C240.23,777.22 1538.25,777.22 1894.82,777.22" fill="none" id="listing-to-view_listings" style="stroke:#181818;stroke-width:1;stroke-dasharray:7,7;"/><polygon fill="#181818" points="1900.82,777.22,1891.82,773.22,1895.82,777.22,1891.82,781.22,1900.82,777.22" style="stroke:#181818;stroke-width:1;"/><text fill="#000000" font-family="sans-serif" font-size="13" lengthAdjust="spacing" textLength="50.832" x="943.68" y="773.7884">projects</text></g><!--link instrument to profile--><g class="link" data-entity-1="ent0003" data-entity-2="ent0009" data-link-type="crowfoot" data-source-line="136" id="lnk24"><path codeLine="136" d="M620.34,616.22 C883.07,616.22 1413,616.22 1413,616.22 C1413,616.22 1413,752.33 1413,824.95" fill="none" id="instrument-profile" style="stroke:#181818;stroke-width:1;stroke-dasharray:7,7;"/><line style="stroke:#181818;stroke-width:1;" x1="610.34" x2="602.34" y1="616.22" y2="622.22"/><line style="stroke:#181818;stroke-width:1;" x1="610.34" x2="602.34" y1="616.22" y2="610.22"/><line style="stroke:#181818;stroke-width:1;" x1="610.34" x2="602.34" y1="616.22" y2="616.22"/><ellipse cx="616.34" cy="616.22" fill="none" rx="4" ry="4" style="stroke:#181818;stroke-width:1;"/><line style="stroke:#181818;stroke-width:1;" x1="1417" x2="1409" y1="828.95" y2="828.95"/><line style="stroke:#181818;stroke-width:1;" x1="1417" x2="1409" y1="825.95" y2="825.95"/><line style="stroke:#181818;stroke-width:1;" x1="1413" x2="1413" y1="824.95" y2="832.95"/></g><!--link instrument to risk_level--><g class="link" data-entity-1="ent0003" data-entity-2="ent0010" data-link-type="crowfoot" data-source-line="137" id="lnk25"><path codeLine="137" d="M620.37,604.22 C942.02,604.22 1699,604.22 1699,604.22 C1699,604.22 1699,738.89 1699,816.63" fill="none" id="instrument-risk_level" style="stroke:#181818;stroke-width:1;stroke-dasharray:7,7;"/><line style="stroke:#181818;stroke-width:1;" x1="610.37" x2="602.37" y1="604.22" y2="610.22"/><line style="stroke:#181818;stroke-width:1;" x1="610.37" x2="602.37" y1="604.22" y2="598.22"/><line style="stroke:#181818;stroke-width:1;" x1="610.37" x2="602.37" y1="604.22" y2="604.22"/><ellipse cx="616.37" cy="604.22" fill="none" rx="4" ry="4" style="stroke:#181818;stroke-width:1;"/><line style="stroke:#181818;stroke-width:1;" x1="1703" x2="1695" y1="820.63" y2="820.63"/><line style="stroke:#181818;stroke-width:1;" x1="1703" x2="1695" y1="817.63" y2="817.63"/><line style="stroke:#181818;stroke-width:1;" x1="1699" x2="1699" y1="816.63" y2="824.63"/></g><!--link instrument to asset_class_level--><g class="link" data-entity-1="ent0003" data-entity-2="ent0011" data-link-type="crowfoot" data-source-line="138" id="lnk26"><path codeLine="138" d="M620.4,663.22 C657.77,663.22 670.14,663.22 670.14,663.22 C670.14,663.22 670.14,754.45 670.14,816.66" fill="none" id="instrument-asset_class_level" style="stroke:#181818;stroke-width:1;stroke-dasharray:7,7;"/><line style="stroke:#181818;stroke-width:1;" x1="610.4" x2="602.4" y1="663.22" y2="669.22"/><line style="stroke:#181818;stroke-width:1;" x1="610.4" x2="602.4" y1="663.22" y2="657.22"/><line style="stroke:#181818;stroke-width:1;" x1="610.4" x2="602.4" y1="663.22" y2="663.22"/><ellipse cx="616.4" cy="663.22" fill="none" rx="4" ry="4" style="stroke:#181818;stroke-width:1;"/><line style="stroke:#181818;stroke-width:1;" x1="674.14" x2="666.14" y1="820.66" y2="820.66"/><line style="stroke:#181818;stroke-width:1;" x1="674.14" x2="666.14" y1="817.66" y2="817.66"/><line style="stroke:#181818;stroke-width:1;" x1="670.14" x2="670.14" y1="816.66" y2="824.66"/></g><!--link instrument to market_cap--><g class="link" data-entity-1="ent0003" data-entity-2="ent0012" data-link-type="crowfoot" data-source-line="139" id="lnk27"><path codeLine="139" d="M620.1,639.22 C811.87,639.22 1119,639.22 1119,639.22 C1119,639.22 1119,757.71 1119,824.91" fill="none" id="instrument-market_cap" style="stroke:#181818;stroke-width:1;stroke-dasharray:7,7;"/><line style="stroke:#181818;stroke-width:1;" x1="610.1" x2="602.1" y1="639.22" y2="645.22"/><line style="stroke:#181818;stroke-width:1;" x1="610.1" x2="602.1" y1="639.22" y2="633.22"/><line style="stroke:#181818;stroke-width:1;" x1="610.1" x2="602.1" y1="639.22" y2="639.22"/><ellipse cx="616.1" cy="639.22" fill="none" rx="4" ry="4" style="stroke:#181818;stroke-width:1;"/><line style="stroke:#181818;stroke-width:1;" x1="1123" x2="1115" y1="828.91" y2="828.91"/><line style="stroke:#181818;stroke-width:1;" x1="1123" x2="1115" y1="825.91" y2="825.91"/><line style="stroke:#181818;stroke-width:1;" x1="1119" x2="1119" y1="824.91" y2="832.91"/></g><!--link instrument to sector--><g class="link" data-entity-1="ent0003" data-entity-2="ent0013" data-link-type="crowfoot" data-source-line="140" id="lnk28"><path codeLine="140" d="M465,692.99 C465,857.16 465,1121.22 465,1121.22 C465,1121.22 565.38,1121.22 649.63,1121.22" fill="none" id="instrument-sector" style="stroke:#181818;stroke-width:1;stroke-dasharray:7,7;"/><line style="stroke:#181818;stroke-width:1;" x1="465" x2="459" y1="682.99" y2="674.99"/><line style="stroke:#181818;stroke-width:1;" x1="465" x2="471" y1="682.99" y2="674.99"/><line style="stroke:#181818;stroke-width:1;" x1="465" x2="465" y1="682.99" y2="674.99"/><ellipse cx="465" cy="688.99" fill="none" rx="4" ry="4" style="stroke:#181818;stroke-width:1;"/><line style="stroke:#181818;stroke-width:1;" x1="653.63" x2="653.63" y1="1117.22" y2="1125.22"/><line style="stroke:#181818;stroke-width:1;" x1="650.63" x2="650.63" y1="1117.22" y2="1125.22"/><line style="stroke:#181818;stroke-width:1;" x1="649.63" x2="657.63" y1="1121.22" y2="1121.22"/></g><!--link instrument to sub_industry--><g class="link" data-entity-1="ent0003" data-entity-2="ent0014" data-link-type="crowfoot" data-source-line="141" id="lnk29"><path codeLine="141" d="M620.4,651.22 C769.27,651.22 967.81,651.22 967.81,651.22 C967.81,651.22 967.81,944.04 967.81,1064.49" fill="none" id="instrument-sub_industry" style="stroke:#181818;stroke-width:1;stroke-dasharray:7,7;"/><line style="stroke:#181818;stroke-width:1;" x1="610.4" x2="602.4" y1="651.22" y2="657.22"/><line style="stroke:#181818;stroke-width:1;" x1="610.4" x2="602.4" y1="651.22" y2="645.22"/><line style="stroke:#181818;stroke-width:1;" x1="610.4" x2="602.4" y1="651.22" y2="651.22"/><ellipse cx="616.4" cy="651.22" fill="none" rx="4" ry="4" style="stroke:#181818;stroke-width:1;"/><line style="stroke:#181818;stroke-width:1;" x1="971.81" x2="963.81" y1="1068.49" y2="1068.49"/><line style="stroke:#181818;stroke-width:1;" x1="971.81" x2="963.81" y1="1065.49" y2="1065.49"/><line style="stroke:#181818;stroke-width:1;" x1="967.81" x2="967.81" y1="1064.49" y2="1072.49"/></g><!--link instrument to country_exposure--><g class="link" data-entity-1="ent0003" data-entity-2="ent0015" data-link-type="crowfoot" data-source-line="142" id="lnk30"><path codeLine="142" d="M619.97,627.22 C852.92,627.22 1283.31,627.22 1283.31,627.22 C1283.31,627.22 1283.31,954.2 1283.31,1072.62" fill="none" id="instrument-country_exposure" style="stroke:#181818;stroke-width:1;stroke-dasharray:7,7;"/><line style="stroke:#181818;stroke-width:1;" x1="609.97" x2="601.97" y1="627.22" y2="633.22"/><line style="stroke:#181818;stroke-width:1;" x1="609.97" x2="601.97" y1="627.22" y2="621.22"/><line style="stroke:#181818;stroke-width:1;" x1="609.97" x2="601.97" y1="627.22" y2="627.22"/><ellipse cx="615.97" cy="627.22" fill="none" rx="4" ry="4" style="stroke:#181818;stroke-width:1;"/><line style="stroke:#181818;stroke-width:1;" x1="1287.31" x2="1279.31" y1="1076.62" y2="1076.62"/><line style="stroke:#181818;stroke-width:1;" x1="1287.31" x2="1279.31" y1="1073.62" y2="1073.62"/><line style="stroke:#181818;stroke-width:1;" x1="1283.31" x2="1283.31" y1="1072.62" y2="1080.62"/></g><!--link instrument to instrument_type--><g class="link" data-entity-1="ent0003" data-entity-2="ent0016" data-link-type="crowfoot" data-source-line="143" id="lnk31"><path codeLine="143" d="M620.31,592.22 C968.08,592.22 1838.13,592.22 1838.13,592.22 C1838.13,592.22 1838.13,948.9 1838.13,1072.84" fill="none" id="instrument-instrument_type" style="stroke:#181818;stroke-width:1;stroke-dasharray:7,7;"/><line style="stroke:#181818;stroke-width:1;" x1="610.31" x2="602.31" y1="592.22" y2="598.22"/><line style="stroke:#181818;stroke-width:1;" x1="610.31" x2="602.31" y1="592.22" y2="586.22"/><line style="stroke:#181818;stroke-width:1;" x1="610.31" x2="602.31" y1="592.22" y2="592.22"/><ellipse cx="616.31" cy="592.22" fill="none" rx="4" ry="4" style="stroke:#181818;stroke-width:1;"/><line style="stroke:#181818;stroke-width:1;" x1="1842.13" x2="1834.13" y1="1076.84" y2="1076.84"/><line style="stroke:#181818;stroke-width:1;" x1="1842.13" x2="1834.13" y1="1073.84" y2="1073.84"/><line style="stroke:#181818;stroke-width:1;" x1="1838.13" x2="1838.13" y1="1072.84" y2="1080.84"/></g><!--link profile to risk_level--><!--link risk_level to asset_class_level--><!--link asset_class_level to market_cap--><!--link profile to sector--><!--link sector to sub_industry--><!--link sub_industry to country_exposure--><!--link country_exposure to instrument_type--><?plantuml-src hLVlQXiv4F--Jo7ofMd8cgQ1KamnXCGflajpQPn2eHn6tfLjdRNI8ccJ-9f0dwMFTazoabRQbNQrIIZzO3kQ6St_-OqYjfYMaCC244oHt9K8C2utB14DWx8S2LI2zsyy8eTqQub9Ki9i2zS8x9qoZi0PAo2cU-1x0W2Y4iiTs9jH8NbLgECUW0BWvcYa03XeAGkSWp6ONTvCFqwlmOSFLtzE9aOcJSqF5fWgWPlfrnl5_VBv4D2A4BWaoCeTK5WWAz5JhYFiMZXt5ahELfWCypaMsmL1juWCYa0Xa5naHFq-8rb0ljMYi1mK4IYJZ0-pg-K2qxnImUq6XJ9MKSr7zoKJ5HyAxZ7ngdM1XSHqRKf5whzTdUpnkI8zKS_6imERWK6-s1LBHXQPwZ-_d5d5EQAP3TdsGIoCJqQ_YQ8svOA86-x5KE3CDswwpOf8d6qHNvGShV1zq6lTvbEkaB0RNKL2rKtO4XVeNqQzEq5Gf_Lj4vNLvCAAA-w55NeOAhUfhRNRGwC-blTdj1klSdJSexmDAKvrNVA0bwCC5v0iShp6KhGLCxu_Uk3p2KcOGmd1gPu-lC8Pb9XH4IBHLJtZ9a8xxox0WV5_AiIs9u8yNYkWkD3JRyoqiE4i3GF9oumf-Xt2wutifCDpuKG3aSb4wqWFd9m_pwBMIzrIcoBZkDHv7sYnUYXFOUdDfGR1pcn6OF4NwZ0t06eirLZghCIHzVT5EQ-MCulCjNKFgXiVde3lt-U9nOkfXNyVDvgTq0MGeLtn2nLe5_-DshoTvM-sSUG545lIBxMjh3lRjnZTBUp24iPqG56tz7aoCHx45fiYHtUGvse8TztG6eRjwb3Q4jMQwT7wIo02xXurLDp0QKSuZh8gOw-0URbT8r93vWQN0gIgY2l6CmHk4LSB3nAmmOX3dcrsYLiz3m-ZKVxmtVgTs3thg3QfYVVUqopkiPejencLnqZSosCqcdGADzR8_OyQOQ5TRt2VTzml2LJEBn5XTrvbV6SUcVRpmIs26Ak5wXYt1vmneHRIOjmQYg8S3o1Y_EwuncGw7QdpTG5th9AgbbJbpwt0zDi6vpcYV_FK3zbRNRv4F-p-Ql7blGpq3EQfIq5YCTg_6UGWG55VgfU97iBvqhsSK2QHYbhlKxPoojJ0pEP_WUEZT-_I8m19kO7fMqNS_p8_15FrERy-17zS7G8aiz5h1Jevq7gwsknW071MGPAQWHGx8L4nLhJ_Vlm4xfKvDkQEtXo_FmRxNozFvg-jGF3M78EFZArL_iunXLIrzxwIF3lvFEo0r_awejbby_yIKDEjQEeRtGEehcTyLqhMQleV?></g></svg>