<?plantuml 1.2026.1?><svg xmlns="http://www.w3.org/2000/svg" xmlns:xlink="http://www.w3.org/1999/xlink" contentStyleType="text/css" data-diagram-type="CLASS" height="999px" preserveAspectRatio="none" style="width:3363px;height:999px;background:#FFFFFF;" version="1.1" viewBox="0 0 3363 999" width="3363px" zoomAndPan="magnify"><defs/><g><!--cluster Core Domain--><g class="cluster" data-qualified-name="Core Domain" data-source-line="6" id="ent0002"><path d="M8.5,6 L103.1934,6 A3.75,3.75 0 0 1 105.6934,8.5 L112.6934,28.4883 L615.5,28.4883 A2.5,2.5 0 0 1 618,30.9883 L618,960.73 A2.5,2.5 0 0 1 615.5,963.23 L8.5,963.23 A2.5,2.5 0 0 1 6,960.73 L6,8.5 A2.5,2.5 0 0 1 8.5,6" fill="none" style="stroke:#000000;stroke-width:1.5;"/><line style="stroke:#000000;stroke-width:1.5;" x1="6" x2="112.6934" y1="28.4883" y2="28.4883"/><text fill="#000000" font-family="sans-serif" font-size="14" font-weight="bold" lengthAdjust="spacing" textLength="93.6934" x="10" y="21.5352">Core Domain</text></g><!--cluster Metadata Classifications--><g class="cluster" data-qualified-name="Metadata Classifications" data-source-line="59" id="ent0008"><path d="M644.5,790.03 L821.7988,790.03 A3.75,3.75 0 0 1 824.2988,792.53 L831.2988,812.5183 L3112.5,812.5183 A2.5,2.5 0 0 1 3115,815.0183 L3115,936 A2.5,2.5 0 0 1 3112.5,938.5 L644.5,938.5 A2.5,2.5 0 0 1 642,936 L642,792.53 A2.5,2.5 0 0 1 644.5,790.03" fill="none" style="stroke:#000000;stroke-width:1.5;"/><line style="stroke:#000000;stroke-width:1.5;" x1="642" x2="831.2988" y1="812.5183" y2="812.5183"/><text fill="#000000" font-family="sans-serif" font-size="14" font-weight="bold" lengthAdjust="spacing" textLength="176.2988" x="646" y="805.5652">Metadata Classifications</text></g><!--class instrument--><g class="entity" data-qualified-name="Core Domain.instrument" data-source-line="7" id="ent0003"><rect fill="#F1F1F1" height="229.3711" rx="2.5" ry="2.5" style="stroke:#181818;stroke-width:0.5;" width="273.8438" x="22.08" y="445.4"/><ellipse cx="117.5986" cy="461.4" fill="#ADD1B2" rx="11" ry="11" style="stroke:#181818;stroke-width:1;"/><path d="M121.2128,467.9 L113.4931,467.9 L113.4931,455.5069 L121.2128,455.5069 L121.2128,457.6651 L115.9418,457.6651 L115.9418,460.338 L120.7148,460.338 L120.7148,462.4962 L115.9418,462.4962 L115.9418,465.7418 L121.2128,465.7418 Z " fill="#000000"/><text fill="#000000" font-family="sans-serif" font-size="14" lengthAdjust="spacing" textLength="74.3066" x="138.0986" y="466.691">Instrument</text><line style="stroke:#181818;stroke-width:0.5;" x1="23.08" x2="294.9238" y1="477.4" y2="477.4"/><g data-visibility-modifier="IE_MANDATORY"><ellipse cx="33.08" cy="491.1441" fill="#000000" rx="3" ry="3" style="stroke:#000000;stroke-width:1;"/></g><text fill="#000000" font-family="sans-serif" font-size="14" lengthAdjust="spacing" textLength="200.8193" x="42.08" y="494.9352">instrument_id : INTEGER &#171;PK&#187;</text><line style="stroke:#181818;stroke-width:1;" x1="23.08" x2="294.9238" y1="501.8883" y2="501.8883"/><text fill="#000000" font-family="sans-serif" font-size="14" lengthAdjust="spacing" textLength="173.6602" x="42.08" y="519.4234">isin : TEXT &#171;UQ, nullable&#187;</text><g data-visibility-modifier="IE_MANDATORY"><ellipse cx="33.08" cy="532.1207" fill="#000000" rx="3" ry="3" style="stroke:#000000;stroke-width:1;"/></g><text fill="#000000" font-family="sans-serif" font-size="14" lengthAdjust="spacing" textLength="84.6357" x="42.08" y="535.9117">name : TEXT</text><g data-visibility-modifier="IE_MANDATORY"><ellipse cx="33.08" cy="548.609" fill="#000000" rx="3" ry="3" style="stroke:#000000;stroke-width:1;"/></g><text fill="#000000" font-family="sans-serif" font-size="14" lengthAdjust="spacing" textLength="236.749" x="42.08" y="552.4">instrument_type_id : INTEGER &#171;FK&#187;</text><text fill="#000000" font-family="sans-serif" font-size="14" lengthAdjust="spacing" textLength="170.4473" x="42.08" y="568.8883">profile_id : INTEGER &#171;FK&#187;</text><text fill="#000000" font-family="sans-serif" font-size="14" lengthAdjust="spacing" textLength="189.3008" x="42.08" y="585.3766">risk_level_id : INTEGER &#171;FK&#187;</text><text fill="#000000" font-family="sans-serif" font-size="14" lengthAdjust="spacing" textLength="239.4697" x="42.08" y="601.8648">asset_class_level_id : INTEGER &#171;FK&#187;</text><text fill="#000000" font-family="sans-serif" font-size="14" lengthAdjust="spacing" textLength="204.7295" x="42.08" y="618.3531">market_cap_id : INTEGER &#171;FK&#187;</text><text fill="#000000" font-family="sans-serif" font-size="14" lengthAdjust="spacing" textLength="167.9385" x="42.08" y="634.8414">sector_id : INTEGER &#171;FK&#187;</text><text fill="#000000" font-family="sans-serif" font-size="14" lengthAdjust="spacing" textLength="213.5547" x="42.08" y="651.3297">sub_industry_id : INTEGER &#171;FK&#187;</text><text fill="#000000" font-family="sans-serif" font-size="14" lengthAdjust="spacing" textLength="247.8438" x="42.08" y="667.818">country_exposure_id : INTEGER &#171;FK&#187;</text></g><!--class listing--><g class="entity" data-qualified-name="Core Domain.listing" data-source-line="22" id="ent0004"><rect fill="#F1F1F1" height="130.4414" rx="2.5" ry="2.5" style="stroke:#181818;stroke-width:0.5;" width="226.5869" x="375.71" y="494.86"/><ellipse cx="462.0787" cy="510.86" fill="#ADD1B2" rx="11" ry="11" style="stroke:#181818;stroke-width:1;"/><path d="M465.6929,517.36 L457.9732,517.36 L457.9732,504.9669 L465.6929,504.9669 L465.6929,507.1251 L460.4219,507.1251 L460.4219,509.798 L465.1949,509.798 L465.1949,511.9562 L460.4219,511.9562 L460.4219,515.2018 L465.6929,515.2018 Z " fill="#000000"/><text fill="#000000" font-family="sans-serif" font-size="14" lengthAdjust="spacing" textLength="45.3496" x="482.5787" y="516.151">Listing</text><line style="stroke:#181818;stroke-width:0.5;" x1="376.71" x2="601.2969" y1="526.86" y2="526.86"/><g data-visibility-modifier="IE_MANDATORY"><ellipse cx="386.71" cy="540.6041" fill="#000000" rx="3" ry="3" style="stroke:#000000;stroke-width:1;"/></g><text fill="#000000" font-family="sans-serif" font-size="14" lengthAdjust="spacing" textLength="168.4307" x="395.71" y="544.3952">listing_id : INTEGER &#171;PK&#187;</text><line style="stroke:#181818;stroke-width:1;" x1="376.71" x2="601.2969" y1="551.3483" y2="551.3483"/><g data-visibility-modifier="IE_MANDATORY"><ellipse cx="386.71" cy="565.0924" fill="#000000" rx="3" ry="3" style="stroke:#000000;stroke-width:1;"/></g><text fill="#000000" font-family="sans-serif" font-size="14" lengthAdjust="spacing" textLength="200.5869" x="395.71" y="568.8834">instrument_id : INTEGER &#171;FK&#187;</text><g data-visibility-modifier="IE_MANDATORY"><ellipse cx="386.71" cy="581.5807" fill="#000000" rx="3" ry="3" style="stroke:#000000;stroke-width:1;"/></g><text fill="#000000" font-family="sans-serif" font-size="14" lengthAdjust="spacing" textLength="174.0156" x="395.71" y="585.3717">market_id : INTEGER &#171;FK&#187;</text><g data-visibility-modifier="IE_MANDATORY"><ellipse cx="386.71" cy="598.069" fill="#000000" rx="3" ry="3" style="stroke:#000000;stroke-width:1;"/></g><text fill="#000000" font-family="sans-serif" font-size="14" lengthAdjust="spacing" textLength="135.707" x="395.71" y="601.86">symbol_code : TEXT</text><text fill="#000000" font-family="sans-serif" font-size="14" lengthAdjust="spacing" textLength="161.2393" x="395.71" y="618.3483">currency_id : TEXT &#171;FK&#187;</text></g><!--class market--><g class="entity" data-qualified-name="Core Domain.market" data-source-line="31" id="ent0005"><rect fill="#F1F1F1" height="163.418" rx="2.5" ry="2.5" style="stroke:#181818;stroke-width:0.5;" width="200.248" x="388.88" y="201.98"/><ellipse cx="461.3854" cy="217.98" fill="#ADD1B2" rx="11" ry="11" style="stroke:#181818;stroke-width:1;"/><path d="M464.9996,224.48 L457.2799,224.48 L457.2799,212.0869 L464.9996,212.0869 L464.9996,214.2451 L459.7286,214.2451 L459.7286,216.918 L464.5016,216.918 L464.5016,219.0762 L459.7286,219.0762 L459.7286,222.3218 L464.9996,222.3218 Z " fill="#000000"/><text fill="#000000" font-family="sans-serif" font-size="14" lengthAdjust="spacing" textLength="46.7373" x="481.8854" y="223.271">Market</text><line style="stroke:#181818;stroke-width:0.5;" x1="389.88" x2="588.128" y1="233.98" y2="233.98"/><g data-visibility-modifier="IE_MANDATORY"><ellipse cx="399.88" cy="247.7241" fill="#000000" rx="3" ry="3" style="stroke:#000000;stroke-width:1;"/></g><text fill="#000000" font-family="sans-serif" font-size="14" lengthAdjust="spacing" textLength="174.248" x="408.88" y="251.5152">market_id : INTEGER &#171;PK&#187;</text><line style="stroke:#181818;stroke-width:1;" x1="389.88" x2="588.128" y1="258.4683" y2="258.4683"/><g data-visibility-modifier="IE_MANDATORY"><ellipse cx="399.88" cy="272.2124" fill="#000000" rx="3" ry="3" style="stroke:#000000;stroke-width:1;"/></g><text fill="#000000" font-family="sans-serif" font-size="14" lengthAdjust="spacing" textLength="150.6914" x="408.88" y="276.0034">mic_code : TEXT &#171;UQ&#187;</text><text fill="#000000" font-family="sans-serif" font-size="14" lengthAdjust="spacing" textLength="132.6309" x="408.88" y="292.4917">ticker_prefix : TEXT</text><g data-visibility-modifier="IE_MANDATORY"><ellipse cx="399.88" cy="305.189" fill="#000000" rx="3" ry="3" style="stroke:#000000;stroke-width:1;"/></g><text fill="#000000" font-family="sans-serif" font-size="14" lengthAdjust="spacing" textLength="84.6357" x="408.88" y="308.98">name : TEXT</text><text fill="#000000" font-family="sans-serif" font-size="14" lengthAdjust="spacing" textLength="73.7119" x="408.88" y="325.4683">title : TEXT</text><g data-visibility-modifier="IE_MANDATORY"><ellipse cx="399.88" cy="338.1655" fill="#000000" rx="3" ry="3" style="stroke:#000000;stroke-width:1;"/></g><text fill="#000000" font-family="sans-serif" font-size="14" lengthAdjust="spacing" textLength="173.8994" x="408.88" y="341.9566">country_code : TEXT &#171;FK&#187;</text><text fill="#000000" font-family="sans-serif" font-size="14" lengthAdjust="spacing" textLength="110.6123" x="408.88" y="358.4448">timezone : TEXT</text></g><!--class country--><g class="entity" data-qualified-name="Core Domain.country" data-source-line="42" id="ent0006"><rect fill="#F1F1F1" height="80.9766" rx="2.5" ry="2.5" style="stroke:#181818;stroke-width:0.5;" width="200.1318" x="388.93" y="41"/><ellipse cx="457.7747" cy="57" fill="#ADD1B2" rx="11" ry="11" style="stroke:#181818;stroke-width:1;"/><path d="M461.389,63.5 L453.6693,63.5 L453.6693,51.1069 L461.389,51.1069 L461.389,53.2651 L456.118,53.2651 L456.118,55.938 L460.8909,55.938 L460.8909,58.0962 L456.118,58.0962 L456.118,61.3418 L461.389,61.3418 Z " fill="#000000"/><text fill="#000000" font-family="sans-serif" font-size="14" lengthAdjust="spacing" textLength="53.9424" x="478.2747" y="62.291">Country</text><line style="stroke:#181818;stroke-width:0.5;" x1="389.93" x2="588.0618" y1="73" y2="73"/><g data-visibility-modifier="IE_MANDATORY"><ellipse cx="399.93" cy="86.7441" fill="#000000" rx="3" ry="3" style="stroke:#000000;stroke-width:1;"/></g><text fill="#000000" font-family="sans-serif" font-size="14" lengthAdjust="spacing" textLength="174.1318" x="408.93" y="90.5352">country_code : TEXT &#171;PK&#187;</text><line style="stroke:#181818;stroke-width:1;" x1="389.93" x2="588.0618" y1="97.4883" y2="97.4883"/><g data-visibility-modifier="IE_MANDATORY"><ellipse cx="399.93" cy="111.2324" fill="#000000" rx="3" ry="3" style="stroke:#000000;stroke-width:1;"/></g><text fill="#000000" font-family="sans-serif" font-size="14" lengthAdjust="spacing" textLength="84.6357" x="408.93" y="115.0234">name : TEXT</text></g><!--class currency--><g class="entity" data-qualified-name="Core Domain.currency" data-source-line="48" id="ent0007"><rect fill="#F1F1F1" height="146.9297" rx="2.5" ry="2.5" style="stroke:#181818;stroke-width:0.5;" width="194.3486" x="382.83" y="800.3"/><ellipse cx="445.3515" cy="816.3" fill="#ADD1B2" rx="11" ry="11" style="stroke:#181818;stroke-width:1;"/><path d="M448.9657,822.8 L441.246,822.8 L441.246,810.4069 L448.9657,810.4069 L448.9657,812.5651 L443.6947,812.5651 L443.6947,815.238 L448.4677,815.238 L448.4677,817.3962 L443.6947,817.3962 L443.6947,820.6418 L448.9657,820.6418 Z " fill="#000000"/><text fill="#000000" font-family="sans-serif" font-size="14" lengthAdjust="spacing" textLength="60.8057" x="465.8515" y="821.591">Currency</text><line style="stroke:#181818;stroke-width:0.5;" x1="383.83" x2="576.1786" y1="832.3" y2="832.3"/><g data-visibility-modifier="IE_MANDATORY"><ellipse cx="393.83" cy="846.0441" fill="#000000" rx="3" ry="3" style="stroke:#000000;stroke-width:1;"/></g><text fill="#000000" font-family="sans-serif" font-size="14" lengthAdjust="spacing" textLength="161.4717" x="402.83" y="849.8352">currency_id : TEXT &#171;PK&#187;</text><line style="stroke:#181818;stroke-width:1;" x1="383.83" x2="576.1786" y1="856.7883" y2="856.7883"/><g data-visibility-modifier="IE_MANDATORY"><ellipse cx="393.83" cy="870.5324" fill="#000000" rx="3" ry="3" style="stroke:#000000;stroke-width:1;"/></g><text fill="#000000" font-family="sans-serif" font-size="14" lengthAdjust="spacing" textLength="84.6357" x="402.83" y="874.3234">name : TEXT</text><g data-visibility-modifier="IE_MANDATORY"><ellipse cx="393.83" cy="887.0207" fill="#000000" rx="3" ry="3" style="stroke:#000000;stroke-width:1;"/></g><text fill="#000000" font-family="sans-serif" font-size="14" lengthAdjust="spacing" textLength="88.5801" x="402.83" y="890.8117">code3 : TEXT</text><g data-visibility-modifier="IE_MANDATORY"><ellipse cx="393.83" cy="903.509" fill="#000000" rx="3" ry="3" style="stroke:#000000;stroke-width:1;"/></g><text fill="#000000" font-family="sans-serif" font-size="14" lengthAdjust="spacing" textLength="88.5801" x="402.83" y="907.3">code2 : TEXT</text><g data-visibility-modifier="IE_MANDATORY"><ellipse cx="393.83" cy="919.9973" fill="#000000" rx="3" ry="3" style="stroke:#000000;stroke-width:1;"/></g><text fill="#000000" font-family="sans-serif" font-size="14" lengthAdjust="spacing" textLength="161.6152" x="402.83" y="923.7883">currency_symbol : TEXT</text><g data-visibility-modifier="IE_MANDATORY"><ellipse cx="393.83" cy="936.4855" fill="#000000" rx="3" ry="3" style="stroke:#000000;stroke-width:1;"/></g><text fill="#000000" font-family="sans-serif" font-size="14" lengthAdjust="spacing" textLength="168.3486" x="402.83" y="940.2766">decimal_digits : INTEGER</text></g><!--class profile--><g class="entity" data-qualified-name="Metadata Classifications.profile" data-source-line="60" id="ent0009"><rect fill="#F1F1F1" height="80.9766" rx="2.5" ry="2.5" style="stroke:#181818;stroke-width:0.5;" width="196.6797" x="2260.66" y="833.28"/><ellipse cx="2333.1961" cy="849.28" fill="#ADD1B2" rx="11" ry="11" style="stroke:#181818;stroke-width:1;"/><path d="M2336.8104,855.78 L2329.0907,855.78 L2329.0907,843.3869 L2336.8104,843.3869 L2336.8104,845.5451 L2331.5394,845.5451 L2331.5394,848.218 L2336.3123,848.218 L2336.3123,850.3762 L2331.5394,850.3762 L2331.5394,853.6218 L2336.8104,853.6218 Z " fill="#000000"/><text fill="#000000" font-family="sans-serif" font-size="14" lengthAdjust="spacing" textLength="43.1074" x="2353.6961" y="854.571">Profile</text><line style="stroke:#181818;stroke-width:0.5;" x1="2261.66" x2="2456.3397" y1="865.28" y2="865.28"/><g data-visibility-modifier="IE_MANDATORY"><ellipse cx="2271.66" cy="879.0241" fill="#000000" rx="3" ry="3" style="stroke:#000000;stroke-width:1;"/></g><text fill="#000000" font-family="sans-serif" font-size="14" lengthAdjust="spacing" textLength="170.6797" x="2280.66" y="882.8152">profile_id : INTEGER &#171;PK&#187;</text><line style="stroke:#181818;stroke-width:1;" x1="2261.66" x2="2456.3397" y1="889.7683" y2="889.7683"/><g data-visibility-modifier="IE_MANDATORY"><ellipse cx="2271.66" cy="903.5124" fill="#000000" rx="3" ry="3" style="stroke:#000000;stroke-width:1;"/></g><text fill="#000000" font-family="sans-serif" font-size="14" lengthAdjust="spacing" textLength="124.3115" x="2280.66" y="907.3034">name : TEXT &#171;UQ&#187;</text></g><!--class risk_level--><g class="entity" data-qualified-name="Metadata Classifications.risk_level" data-source-line="66" id="ent0010"><rect fill="#F1F1F1" height="97.4648" rx="2.5" ry="2.5" style="stroke:#181818;stroke-width:0.5;" width="215.5332" x="2537.23" y="825.03"/><ellipse cx="2609.4585" cy="841.03" fill="#ADD1B2" rx="11" ry="11" style="stroke:#181818;stroke-width:1;"/><path d="M2613.0728,847.53 L2605.353,847.53 L2605.353,835.1369 L2613.0728,835.1369 L2613.0728,837.2951 L2607.8018,837.2951 L2607.8018,839.968 L2612.5747,839.968 L2612.5747,842.1262 L2607.8018,842.1262 L2607.8018,845.3718 L2613.0728,845.3718 Z " fill="#000000"/><text fill="#000000" font-family="sans-serif" font-size="14" lengthAdjust="spacing" textLength="62.5762" x="2629.9585" y="846.321">RiskLevel</text><line style="stroke:#181818;stroke-width:0.5;" x1="2538.23" x2="2751.7632" y1="857.03" y2="857.03"/><g data-visibility-modifier="IE_MANDATORY"><ellipse cx="2548.23" cy="870.7741" fill="#000000" rx="3" ry="3" style="stroke:#000000;stroke-width:1;"/></g><text fill="#000000" font-family="sans-serif" font-size="14" lengthAdjust="spacing" textLength="189.5332" x="2557.23" y="874.5652">risk_level_id : INTEGER &#171;PK&#187;</text><line style="stroke:#181818;stroke-width:1;" x1="2538.23" x2="2751.7632" y1="881.5183" y2="881.5183"/><g data-visibility-modifier="IE_MANDATORY"><ellipse cx="2548.23" cy="895.2624" fill="#000000" rx="3" ry="3" style="stroke:#000000;stroke-width:1;"/></g><text fill="#000000" font-family="sans-serif" font-size="14" lengthAdjust="spacing" textLength="124.3115" x="2557.23" y="899.0534">name : TEXT &#171;UQ&#187;</text><g data-visibility-modifier="IE_MANDATORY"><ellipse cx="2548.23" cy="911.7507" fill="#000000" rx="3" ry="3" style="stroke:#000000;stroke-width:1;"/></g><text fill="#000000" font-family="sans-serif" font-size="14" lengthAdjust="spacing" textLength="115.9512" x="2557.23" y="915.5417">weight : INTEGER</text></g><!--class asset_class_level--><g class="entity" data-qualified-name="Metadata Classifications.asset_class_level" data-source-line="73" id="ent0011"><rect fill="#F1F1F1" height="97.4648" rx="2.5" ry="2.5" style="stroke:#181818;stroke-width:0.5;" width="265.7021" x="2833.15" y="825.03"/><ellipse cx="2908.2188" cy="841.03" fill="#ADD1B2" rx="11" ry="11" style="stroke:#181818;stroke-width:1;"/><path d="M2911.8331,847.53 L2904.1134,847.53 L2904.1134,835.1369 L2911.8331,835.1369 L2911.8331,837.2951 L2906.5621,837.2951 L2906.5621,839.968 L2911.3351,839.968 L2911.3351,842.1262 L2906.5621,842.1262 L2906.5621,845.3718 L2911.8331,845.3718 Z " fill="#000000"/><text fill="#000000" font-family="sans-serif" font-size="14" lengthAdjust="spacing" textLength="107.0645" x="2928.7188" y="846.321">AssetClassLevel</text><line style="stroke:#181818;stroke-width:0.5;" x1="2834.15" x2="3097.8521" y1="857.03" y2="857.03"/><g data-visibility-modifier="IE_MANDATORY"><ellipse cx="2844.15" cy="870.7741" fill="#000000" rx="3" ry="3" style="stroke:#000000;stroke-width:1;"/></g><text fill="#000000" font-family="sans-serif" font-size="14" lengthAdjust="spacing" textLength="239.7021" x="2853.15" y="874.5652">asset_class_level_id : INTEGER &#171;PK&#187;</text><line style="stroke:#181818;stroke-width:1;" x1="2834.15" x2="3097.8521" y1="881.5183" y2="881.5183"/><g data-visibility-modifier="IE_MANDATORY"><ellipse cx="2844.15" cy="895.2624" fill="#000000" rx="3" ry="3" style="stroke:#000000;stroke-width:1;"/></g><text fill="#000000" font-family="sans-serif" font-size="14" lengthAdjust="spacing" textLength="124.3115" x="2853.15" y="899.0534">name : TEXT &#171;UQ&#187;</text><text fill="#000000" font-family="sans-serif" font-size="14" lengthAdjust="spacing" textLength="123.4229" x="2853.15" y="915.5417">description : TEXT</text></g><!--class market_cap--><g class="entity" data-qualified-name="Metadata Classifications.market_cap" data-source-line="80" id="ent0012"><rect fill="#F1F1F1" height="80.9766" rx="2.5" ry="2.5" style="stroke:#181818;stroke-width:0.5;" width="230.9619" x="657.52" y="833.28"/><ellipse cx="732.2676" cy="849.28" fill="#ADD1B2" rx="11" ry="11" style="stroke:#181818;stroke-width:1;"/><path d="M735.8818,855.78 L728.1621,855.78 L728.1621,843.3869 L735.8818,843.3869 L735.8818,845.5451 L730.6108,845.5451 L730.6108,848.218 L735.3838,848.218 L735.3838,850.3762 L730.6108,850.3762 L730.6108,853.6218 L735.8818,853.6218 Z " fill="#000000"/><text fill="#000000" font-family="sans-serif" font-size="14" lengthAdjust="spacing" textLength="72.9668" x="752.7676" y="854.571">MarketCap</text><line style="stroke:#181818;stroke-width:0.5;" x1="658.52" x2="887.4819" y1="865.28" y2="865.28"/><g data-visibility-modifier="IE_MANDATORY"><ellipse cx="668.52" cy="879.0241" fill="#000000" rx="3" ry="3" style="stroke:#000000;stroke-width:1;"/></g><text fill="#000000" font-family="sans-serif" font-size="14" lengthAdjust="spacing" textLength="204.9619" x="677.52" y="882.8152">market_cap_id : INTEGER &#171;PK&#187;</text><line style="stroke:#181818;stroke-width:1;" x1="658.52" x2="887.4819" y1="889.7683" y2="889.7683"/><g data-visibility-modifier="IE_MANDATORY"><ellipse cx="668.52" cy="903.5124" fill="#000000" rx="3" ry="3" style="stroke:#000000;stroke-width:1;"/></g><text fill="#000000" font-family="sans-serif" font-size="14" lengthAdjust="spacing" textLength="124.3115" x="677.52" y="907.3034">name : TEXT &#171;UQ&#187;</text></g><!--class sector--><g class="entity" data-qualified-name="Metadata Classifications.sector" data-source-line="86" id="ent0013"><rect fill="#F1F1F1" height="97.4648" rx="2.5" ry="2.5" style="stroke:#181818;stroke-width:0.5;" width="194.1709" x="968.91" y="825.03"/><ellipse cx="1040.7079" cy="841.03" fill="#ADD1B2" rx="11" ry="11" style="stroke:#181818;stroke-width:1;"/><path d="M1044.3221,847.53 L1036.6024,847.53 L1036.6024,835.1369 L1044.3221,835.1369 L1044.3221,837.2951 L1039.0511,837.2951 L1039.0511,839.968 L1043.8241,839.968 L1043.8241,842.1262 L1039.0511,842.1262 L1039.0511,845.3718 L1044.3221,845.3718 Z " fill="#000000"/><text fill="#000000" font-family="sans-serif" font-size="14" lengthAdjust="spacing" textLength="42.0752" x="1061.2079" y="846.321">Sector</text><line style="stroke:#181818;stroke-width:0.5;" x1="969.91" x2="1162.0809" y1="857.03" y2="857.03"/><g data-visibility-modifier="IE_MANDATORY"><ellipse cx="979.91" cy="870.7741" fill="#000000" rx="3" ry="3" style="stroke:#000000;stroke-width:1;"/></g><text fill="#000000" font-family="sans-serif" font-size="14" lengthAdjust="spacing" textLength="168.1709" x="988.91" y="874.5652">sector_id : INTEGER &#171;PK&#187;</text><line style="stroke:#181818;stroke-width:1;" x1="969.91" x2="1162.0809" y1="881.5183" y2="881.5183"/><g data-visibility-modifier="IE_MANDATORY"><ellipse cx="979.91" cy="895.2624" fill="#000000" rx="3" ry="3" style="stroke:#000000;stroke-width:1;"/></g><text fill="#000000" font-family="sans-serif" font-size="14" lengthAdjust="spacing" textLength="124.3115" x="988.91" y="899.0534">name : TEXT &#171;UQ&#187;</text><text fill="#000000" font-family="sans-serif" font-size="14" lengthAdjust="spacing" textLength="123.4229" x="988.91" y="915.5417">description : TEXT</text></g><!--class sub_industry--><g class="entity" data-qualified-name="Metadata Classifications.sub_industry" data-source-line="93" id="ent0014"><rect fill="#F1F1F1" height="97.4648" rx="2.5" ry="2.5" style="stroke:#181818;stroke-width:0.5;" width="239.7871" x="1243.11" y="825.03"/><ellipse cx="1318.4147" cy="841.03" fill="#ADD1B2" rx="11" ry="11" style="stroke:#181818;stroke-width:1;"/><path d="M1322.0289,847.53 L1314.3092,847.53 L1314.3092,835.1369 L1322.0289,835.1369 L1322.0289,837.2951 L1316.7579,837.2951 L1316.7579,839.968 L1321.5309,839.968 L1321.5309,842.1262 L1316.7579,842.1262 L1316.7579,845.3718 L1322.0289,845.3718 Z " fill="#000000"/><text fill="#000000" font-family="sans-serif" font-size="14" lengthAdjust="spacing" textLength="80.6777" x="1338.9147" y="846.321">SubIndustry</text><line style="stroke:#181818;stroke-width:0.5;" x1="1244.11" x2="1481.8971" y1="857.03" y2="857.03"/><g data-visibility-modifier="IE_MANDATORY"><ellipse cx="1254.11" cy="870.7741" fill="#000000" rx="3" ry="3" style="stroke:#000000;stroke-width:1;"/></g><text fill="#000000" font-family="sans-serif" font-size="14" lengthAdjust="spacing" textLength="213.7871" x="1263.11" y="874.5652">sub_industry_id : INTEGER &#171;PK&#187;</text><line style="stroke:#181818;stroke-width:1;" x1="1244.11" x2="1481.8971" y1="881.5183" y2="881.5183"/><g data-visibility-modifier="IE_MANDATORY"><ellipse cx="1254.11" cy="895.2624" fill="#000000" rx="3" ry="3" style="stroke:#000000;stroke-width:1;"/></g><text fill="#000000" font-family="sans-serif" font-size="14" lengthAdjust="spacing" textLength="124.3115" x="1263.11" y="899.0534">name : TEXT &#171;UQ&#187;</text><text fill="#000000" font-family="sans-serif" font-size="14" lengthAdjust="spacing" textLength="123.4229" x="1263.11" y="915.5417">description : TEXT</text></g><!--class country_exposure--><g class="entity" data-qualified-name="Metadata Classifications.country_exposure" data-source-line="100" id="ent0015"><rect fill="#F1F1F1" height="80.9766" rx="2.5" ry="2.5" style="stroke:#181818;stroke-width:0.5;" width="274.0762" x="1562.96" y="833.28"/><ellipse cx="1637.3077" cy="849.28" fill="#ADD1B2" rx="11" ry="11" style="stroke:#181818;stroke-width:1;"/><path d="M1640.9219,855.78 L1633.2022,855.78 L1633.2022,843.3869 L1640.9219,843.3869 L1640.9219,845.5451 L1635.6509,845.5451 L1635.6509,848.218 L1640.4239,848.218 L1640.4239,850.3762 L1635.6509,850.3762 L1635.6509,853.6218 L1640.9219,853.6218 Z " fill="#000000"/><text fill="#000000" font-family="sans-serif" font-size="14" lengthAdjust="spacing" textLength="116.8809" x="1657.8077" y="854.571">CountryExposure</text><line style="stroke:#181818;stroke-width:0.5;" x1="1563.96" x2="1836.0362" y1="865.28" y2="865.28"/><g data-visibility-modifier="IE_MANDATORY"><ellipse cx="1573.96" cy="879.0241" fill="#000000" rx="3" ry="3" style="stroke:#000000;stroke-width:1;"/></g><text fill="#000000" font-family="sans-serif" font-size="14" lengthAdjust="spacing" textLength="248.0762" x="1582.96" y="882.8152">country_exposure_id : INTEGER &#171;PK&#187;</text><line style="stroke:#181818;stroke-width:1;" x1="1563.96" x2="1836.0362" y1="889.7683" y2="889.7683"/><g data-visibility-modifier="IE_MANDATORY"><ellipse cx="1573.96" cy="903.5124" fill="#000000" rx="3" ry="3" style="stroke:#000000;stroke-width:1;"/></g><text fill="#000000" font-family="sans-serif" font-size="14" lengthAdjust="spacing" textLength="124.3115" x="1582.96" y="907.3034">name : TEXT &#171;UQ&#187;</text></g><!--class instrument_type--><g class="entity" data-qualified-name="Metadata Classifications.instrument_type" data-source-line="106" id="ent0016"><rect fill="#F1F1F1" height="80.9766" rx="2.5" ry="2.5" style="stroke:#181818;stroke-width:0.5;" width="262.9814" x="1917.51" y="833.28"/><ellipse cx="1991.2082" cy="849.28" fill="#ADD1B2" rx="11" ry="11" style="stroke:#181818;stroke-width:1;"/><path d="M1994.8225,855.78 L1987.1028,855.78 L1987.1028,843.3869 L1994.8225,843.3869 L1994.8225,845.5451 L1989.5515,845.5451 L1989.5515,848.218 L1994.3245,848.218 L1994.3245,850.3762 L1989.5515,850.3762 L1989.5515,853.6218 L1994.8225,853.6218 Z " fill="#000000"/><text fill="#000000" font-family="sans-serif" font-size="14" lengthAdjust="spacing" textLength="107.085" x="2011.7082" y="854.571">InstrumentType</text><line style="stroke:#181818;stroke-width:0.5;" x1="1918.51" x2="2179.4914" y1="865.28" y2="865.28"/><g data-visibility-modifier="IE_MANDATORY"><ellipse cx="1928.51" cy="879.0241" fill="#000000" rx="3" ry="3" style="stroke:#000000;stroke-width:1;"/></g><text fill="#000000" font-family="sans-serif" font-size="14" lengthAdjust="spacing" textLength="236.9814" x="1937.51" y="882.8152">instrument_type_id : INTEGER &#171;PK&#187;</text><line style="stroke:#181818;stroke-width:1;" x1="1918.51" x2="2179.4914" y1="889.7683" y2="889.7683"/><g data-visibility-modifier="IE_MANDATORY"><ellipse cx="1928.51" cy="903.5124" fill="#000000" rx="3" ry="3" style="stroke:#000000;stroke-width:1;"/></g><text fill="#000000" font-family="sans-serif" font-size="14" lengthAdjust="spacing" textLength="124.3115" x="1937.51" y="907.3034">name : TEXT &#171;UQ&#187;</text></g><!--class view_listings--><g class="entity" data-qualified-name="view_listings" data-source-line="113" id="ent0017"><rect fill="#F1F1F1" height="237.9922" rx="2.5" ry="2.5" style="stroke:#181818;stroke-width:0.5;" width="177.9561" x="3179.02" y="754.77"/><ellipse cx="3221.0235" cy="775.0805" fill="#ADD1B2" rx="11" ry="11" style="stroke:#181818;stroke-width:1;"/><path d="M3224.6378,781.5805 L3216.918,781.5805 L3216.918,769.1875 L3224.6378,769.1875 L3224.6378,771.3457 L3219.3668,771.3457 L3219.3668,774.0185 L3224.1397,774.0185 L3224.1397,776.1767 L3219.3668,776.1767 L3219.3668,779.4223 L3224.6378,779.4223 Z " fill="#000000"/><text fill="#000000" font-family="sans-serif" font-size="12" font-style="italic" lengthAdjust="spacing" textLength="38.1855" x="3264.9056" y="771.3716">&#171;view&#187;</text><text fill="#000000" font-family="sans-serif" font-size="14" lengthAdjust="spacing" textLength="85.9482" x="3241.0243" y="787.438">view_listings</text><line style="stroke:#181818;stroke-width:0.5;" x1="3180.02" x2="3355.9761" y1="795.3911" y2="795.3911"/><text fill="#000000" font-family="sans-serif" font-size="14" lengthAdjust="spacing" textLength="132.4531" x="3185.02" y="812.9263">listing_id : INTEGER</text><text fill="#000000" font-family="sans-serif" font-size="14" lengthAdjust="spacing" textLength="135.707" x="3185.02" y="829.4145">symbol_code : TEXT</text><text fill="#000000" font-family="sans-serif" font-size="14" lengthAdjust="spacing" textLength="165.9561" x="3185.02" y="845.9028">instrument_name : TEXT</text><text fill="#000000" font-family="sans-serif" font-size="14" lengthAdjust="spacing" textLength="157.8281" x="3185.02" y="862.3911">instrument_type : TEXT</text><text fill="#000000" font-family="sans-serif" font-size="14" lengthAdjust="spacing" textLength="139.3848" x="3185.02" y="878.8794">market_name : TEXT</text><text fill="#000000" font-family="sans-serif" font-size="14" lengthAdjust="spacing" textLength="126.3828" x="3185.02" y="895.3677">market_mic : TEXT</text><text fill="#000000" font-family="sans-serif" font-size="14" lengthAdjust="spacing" textLength="165.3613" x="3185.02" y="911.8559">market_timezone : TEXT</text><text fill="#000000" font-family="sans-serif" font-size="14" lengthAdjust="spacing" textLength="138.1543" x="3185.02" y="928.3442">country_code : TEXT</text><text fill="#000000" font-family="sans-serif" font-size="14" lengthAdjust="spacing" textLength="143.0625" x="3185.02" y="944.8325">country_name : TEXT</text><text fill="#000000" font-family="sans-serif" font-size="14" lengthAdjust="spacing" textLength="145.0176" x="3185.02" y="961.3208">currency_code : TEXT</text><text fill="#000000" font-family="sans-serif" font-size="14" lengthAdjust="spacing" textLength="161.6152" x="3185.02" y="977.8091">currency_symbol : TEXT</text><line style="stroke:#181818;stroke-width:0.5;" x1="3180.02" x2="3355.9761" y1="984.7622" y2="984.7622"/></g><g class="entity" data-qualified-name="GMN40" data-source-line="155" id="ent0041"><path d="M668.6,61.18 L668.6,77.76 L589.39,81.76 L668.6,85.76 L668.6,101.8011 A0,0 0 0 0 668.6,101.8011 L817.4037,101.8011 A0,0 0 0 0 817.4037,101.8011 L817.4037,71.18 L807.4037,61.18 L668.6,61.18 A0,0 0 0 0 668.6,61.18" fill="#FEFFDD" style="stroke:#181818;stroke-width:0.5;"/><path d="M807.4037,61.18 L807.4037,71.18 L817.4037,71.18 L807.4037,61.18" fill="#FEFFDD" style="stroke:#181818;stroke-width:0.5;"/><text fill="#000000" font-family="sans-serif" font-size="13" lengthAdjust="spacing" textLength="127.8037" x="674.6" y="78.7484">ISO 3166-1 alpha-2</text><text fill="#000000" font-family="sans-serif" font-size="13" lengthAdjust="spacing" textLength="120.7134" x="674.6" y="94.0589">(US, ES, FR, JP, etc.)</text></g><g class="entity" data-qualified-name="GMN43" data-source-line="160" id="ent0044"><path d="M669.35,255.72 L669.35,279.76 L589.56,283.76 L669.35,287.76 L669.35,311.6516 A0,0 0 0 0 669.35,311.6516 L952.6479,311.6516 A0,0 0 0 0 952.6479,311.6516 L952.6479,265.72 L942.6479,255.72 L669.35,255.72 A0,0 0 0 0 669.35,255.72" fill="#FEFFDD" style="stroke:#181818;stroke-width:0.5;"/><path d="M942.6479,255.72 L942.6479,265.72 L952.6479,265.72 L942.6479,255.72" fill="#FEFFDD" style="stroke:#181818;stroke-width:0.5;"/><text fill="#000000" font-family="sans-serif" font-size="13" lengthAdjust="spacing" textLength="118.8472" x="675.35" y="273.2884">Dual-code system:</text><text fill="#000000" font-family="sans-serif" font-size="13" lengthAdjust="spacing" textLength="191.0898" x="675.35" y="288.5989">&#8226; mic_code: ISO 10383 (XNAS)</text><text fill="#000000" font-family="sans-serif" font-size="13" lengthAdjust="spacing" textLength="262.2979" x="675.35" y="303.9095">&#8226; ticker_prefix: Google Finance (NASDAQ)</text></g><g class="entity" data-qualified-name="GMN46" data-source-line="166" id="ent0047"><path d="M682.12,539.77 L682.12,580.3911 L807.8754,580.3911 L807.8754,549.77 L797.8754,539.77 L682.12,539.77" fill="#FEFFDD" style="stroke:#181818;stroke-width:0.5;"/><path d="M797.8754,539.77 L797.8754,549.77 L807.8754,549.77 L797.8754,539.77" fill="#FEFFDD" style="stroke:#181818;stroke-width:1;"/><text fill="#000000" font-family="sans-serif" font-size="13" lengthAdjust="spacing" textLength="100.4199" x="688.12" y="557.3384">ISIN nullable for</text><text fill="#000000" font-family="sans-serif" font-size="13" lengthAdjust="spacing" textLength="104.7554" x="688.12" y="572.6489">forex and crypto</text></g><!--link country to market--><g class="link" data-entity-1="ent0006" data-entity-2="ent0005" data-link-type="crowfoot" data-source-line="128" id="lnk18"><path codeLine="128" d="M489,130.41 C489,153.26 489,166.55 489,193.89" fill="none" id="country-market" style="stroke:#181818;stroke-width:1;stroke-dasharray:7,7;"/><line style="stroke:#181818;stroke-width:1;" x1="485" x2="493" y1="126.41" y2="126.41"/><line style="stroke:#181818;stroke-width:1;" x1="485" x2="493" y1="129.41" y2="129.41"/><line style="stroke:#181818;stroke-width:1;" x1="489" x2="489" y1="130.41" y2="122.41"/><line style="stroke:#181818;stroke-width:1;" x1="489" x2="495" y1="193.89" y2="201.89"/><line style="stroke:#181818;stroke-width:1;" x1="489" x2="483" y1="193.89" y2="201.89"/><line style="stroke:#181818;stroke-width:1;" x1="489" x2="489" y1="193.89" y2="201.89"/><line style="stroke:#181818;stroke-width:1;" x1="493" x2="485" y1="191.89" y2="191.89"/></g><!--link market to listing--><g class="link" data-entity-1="ent0005" data-entity-2="ent0004" data-link-type="crowfoot" data-source-line="129" id="lnk19"><path codeLine="129" d="M489,373.87 C489,414.92 489,447.92 489,486.42" fill="none" id="market-listing" style="stroke:#181818;stroke-width:1;stroke-dasharray:7,7;"/><line style="stroke:#181818;stroke-width:1;" x1="485" x2="493" y1="369.87" y2="369.87"/><line style="stroke:#181818;stroke-width:1;" x1="485" x2="493" y1="372.87" y2="372.87"/><line style="stroke:#181818;stroke-width:1;" x1="489" x2="489" y1="373.87" y2="365.87"/><line style="stroke:#181818;stroke-width:1;" x1="489" x2="495" y1="486.42" y2="494.42"/><line style="stroke:#181818;stroke-width:1;" x1="489" x2="483" y1="486.42" y2="494.42"/><line style="stroke:#181818;stroke-width:1;" x1="489" x2="489" y1="486.42" y2="494.42"/><line style="stroke:#181818;stroke-width:1;" x1="493" x2="485" y1="484.42" y2="484.42"/></g><!--link instrument to listing--><g class="link" data-entity-1="ent0003" data-entity-2="ent0004" data-link-type="crowfoot" data-source-line="130" id="lnk20"><path codeLine="130" d="M304.08,559.76 C330.47,559.76 341.83,559.76 367.38,559.76" fill="none" id="instrument-listing" style="stroke:#181818;stroke-width:1;stroke-dasharray:7,7;"/><line style="stroke:#181818;stroke-width:1;" x1="300.08" x2="300.08" y1="563.76" y2="555.76"/><line style="stroke:#181818;stroke-width:1;" x1="303.08" x2="303.08" y1="563.76" y2="555.76"/><line style="stroke:#181818;stroke-width:1;" x1="304.08" x2="296.08" y1="559.76" y2="559.76"/><line style="stroke:#181818;stroke-width:1;" x1="367.38" x2="375.38" y1="559.76" y2="553.76"/><line style="stroke:#181818;stroke-width:1;" x1="367.38" x2="375.38" y1="559.76" y2="565.76"/><line style="stroke:#181818;stroke-width:1;" x1="367.38" x2="375.38" y1="559.76" y2="559.76"/><line style="stroke:#181818;stroke-width:1;" x1="365.38" x2="365.38" y1="555.76" y2="563.76"/></g><!--link listing to currency--><g class="link" data-entity-1="ent0004" data-entity-2="ent0007" data-link-type="crowfoot" data-source-line="131" id="lnk22"><path codeLine="131" d="M480,633.46 C480,684.36 480,739.02 480,791.96" fill="none" id="listing-currency" style="stroke:#181818;stroke-width:1;stroke-dasharray:7,7;"/><line style="stroke:#181818;stroke-width:1;" x1="480" x2="474" y1="633.46" y2="625.46"/><line style="stroke:#181818;stroke-width:1;" x1="480" x2="486" y1="633.46" y2="625.46"/><line style="stroke:#181818;stroke-width:1;" x1="480" x2="480" y1="633.46" y2="625.46"/><line style="stroke:#181818;stroke-width:1;" x1="476" x2="484" y1="635.46" y2="635.46"/><line style="stroke:#181818;stroke-width:1;" x1="484" x2="476" y1="795.96" y2="795.96"/><line style="stroke:#181818;stroke-width:1;" x1="484" x2="476" y1="792.96" y2="792.96"/><line style="stroke:#181818;stroke-width:1;" x1="480" x2="480" y1="791.96" y2="799.96"/></g><!--link listing to view_listings--><g class="link" data-entity-1="ent0004" data-entity-2="ent0017" data-link-type="dependency" data-source-line="133" id="lnk23"><path codeLine="133" d="M589.73,625.69 C589.73,689.78 589.73,777.76 589.73,777.76 C589.73,777.76 2708.17,777.76 3172.89,777.76" fill="none" id="listing-to-view_listings" style="stroke:#181818;stroke-width:1;stroke-dasharray:7,7;"/><polygon fill="#181818" points="3178.89,777.76,3169.89,773.76,3173.89,777.76,3169.89,781.76,3178.89,777.76" style="stroke:#181818;stroke-width:1;"/><text fill="#000000" font-family="sans-serif" font-size="13" lengthAdjust="spacing" textLength="50.832" x="1757.28" y="774.3284">projects</text></g><!--link instrument to profile--><g class="link" data-entity-1="ent0003" data-entity-2="ent0009" data-link-type="crowfoot" data-source-line="136" id="lnk24"><path codeLine="136" d="M314.2,643.76 C795.34,643.76 2359,643.76 2359,643.76 C2359,643.76 2359,758.81 2359,824.91" fill="none" id="instrument-profile" style="stroke:#181818;stroke-width:1;stroke-dasharray:7,7;"/><line style="stroke:#181818;stroke-width:1;" x1="304.2" x2="296.2" y1="643.76" y2="649.76"/><line style="stroke:#181818;stroke-width:1;" x1="304.2" x2="296.2" y1="643.76" y2="637.76"/><line style="stroke:#181818;stroke-width:1;" x1="304.2" x2="296.2" y1="643.76" y2="643.76"/><ellipse cx="310.2" cy="643.76" fill="none" rx="4" ry="4" style="stroke:#181818;stroke-width:1;"/><line style="stroke:#181818;stroke-width:1;" x1="2363" x2="2355" y1="828.91" y2="828.91"/><line style="stroke:#181818;stroke-width:1;" x1="2363" x2="2355" y1="825.91" y2="825.91"/><line style="stroke:#181818;stroke-width:1;" x1="2359" x2="2359" y1="824.91" y2="832.91"/></g><!--link instrument to risk_level--><g class="link" data-entity-1="ent0003" data-entity-2="ent0010" data-link-type="crowfoot" data-source-line="137" id="lnk25"><path codeLine="137" d="M314.2,638.76 C835.36,638.76 2645,638.76 2645,638.76 C2645,638.76 2645,747.91 2645,816.79" fill="none" id="instrument-risk_level" style="stroke:#181818;stroke-width:1;stroke-dasharray:7,7;"/><line style="stroke:#181818;stroke-width:1;" x1="304.2" x2="296.2" y1="638.76" y2="644.76"/><line style="stroke:#181818;stroke-width:1;" x1="304.2" x2="296.2" y1="638.76" y2="632.76"/><line style="stroke:#181818;stroke-width:1;" x1="304.2" x2="296.2" y1="638.76" y2="638.76"/><ellipse cx="310.2" cy="638.76" fill="none" rx="4" ry="4" style="stroke:#181818;stroke-width:1;"/><line style="stroke:#181818;stroke-width:1;" x1="2649" x2="2641" y1="820.79" y2="820.79"/><line style="stroke:#181818;stroke-width:1;" x1="2649" x2="2641" y1="817.79" y2="817.79"/><line style="stroke:#181818;stroke-width:1;" x1="2645" x2="2645" y1="816.79" y2="824.79"/></g><!--link instrument to asset_class_level--><g class="link" data-entity-1="ent0003" data-entity-2="ent0011" data-link-type="crowfoot" data-source-line="138" id="lnk26"><path codeLine="138" d="M314.04,634.76 C882.87,634.76 3010.28,634.76 3010.28,634.76 C3010.28,634.76 3010.28,746.57 3010.28,816.53" fill="none" id="instrument-asset_class_level" style="stroke:#181818;stroke-width:1;stroke-dasharray:7,7;"/><line style="stroke:#181818;stroke-width:1;" x1="304.04" x2="296.04" y1="634.76" y2="640.76"/><line style="stroke:#181818;stroke-width:1;" x1="304.04" x2="296.04" y1="634.76" y2="628.76"/><line style="stroke:#181818;stroke-width:1;" x1="304.04" x2="296.04" y1="634.76" y2="634.76"/><ellipse cx="310.04" cy="634.76" fill="none" rx="4" ry="4" style="stroke:#181818;stroke-width:1;"/><line style="stroke:#181818;stroke-width:1;" x1="3014.28" x2="3006.28" y1="820.53" y2="820.53"/><line style="stroke:#181818;stroke-width:1;" x1="3014.28" x2="3006.28" y1="817.53" y2="817.53"/><line style="stroke:#181818;stroke-width:1;" x1="3010.28" x2="3010.28" y1="816.53" y2="824.53"/></g><!--link instrument to market_cap--><g class="link" data-entity-1="ent0003" data-entity-2="ent0012" data-link-type="crowfoot" data-source-line="139" id="lnk27"><path codeLine="139" d="M314.4,670.76 C463.66,670.76 663.06,670.76 663.06,670.76 C663.06,670.76 663.06,765.93 663.06,825.17" fill="none" id="instrument-market_cap" style="stroke:#181818;stroke-width:1;stroke-dasharray:7,7;"/><line style="stroke:#181818;stroke-width:1;" x1="304.4" x2="296.4" y1="670.76" y2="676.76"/><line style="stroke:#181818;stroke-width:1;" x1="304.4" x2="296.4" y1="670.76" y2="664.76"/><line style="stroke:#181818;stroke-width:1;" x1="304.4" x2="296.4" y1="670.76" y2="670.76"/><ellipse cx="310.4" cy="670.76" fill="none" rx="4" ry="4" style="stroke:#181818;stroke-width:1;"/><line style="stroke:#181818;stroke-width:1;" x1="667.06" x2="659.06" y1="829.17" y2="829.17"/><line style="stroke:#181818;stroke-width:1;" x1="667.06" x2="659.06" y1="826.17" y2="826.17"/><line style="stroke:#181818;stroke-width:1;" x1="663.06" x2="663.06" y1="825.17" y2="833.17"/></g><!--link instrument to sector--><g class="link" data-entity-1="ent0003" data-entity-2="ent0013" data-link-type="crowfoot" data-source-line="140" id="lnk28"><path codeLine="140" d="M314.26,665.76 C567.82,665.76 1066,665.76 1066,665.76 C1066,665.76 1066,755.24 1066,816.73" fill="none" id="instrument-sector" style="stroke:#181818;stroke-width:1;stroke-dasharray:7,7;"/><line style="stroke:#181818;stroke-width:1;" x1="304.26" x2="296.26" y1="665.76" y2="671.76"/><line style="stroke:#181818;stroke-width:1;" x1="304.26" x2="296.26" y1="665.76" y2="659.76"/><line style="stroke:#181818;stroke-width:1;" x1="304.26" x2="296.26" y1="665.76" y2="665.76"/><ellipse cx="310.26" cy="665.76" fill="none" rx="4" ry="4" style="stroke:#181818;stroke-width:1;"/><line style="stroke:#181818;stroke-width:1;" x1="1070" x2="1062" y1="820.73" y2="820.73"/><line style="stroke:#181818;stroke-width:1;" x1="1070" x2="1062" y1="817.73" y2="817.73"/><line style="stroke:#181818;stroke-width:1;" x1="1066" x2="1066" y1="816.73" y2="824.73"/></g><!--link instrument to sub_industry--><g class="link" data-entity-1="ent0003" data-entity-2="ent0014" data-link-type="crowfoot" data-source-line="141" id="lnk29"><path codeLine="141" d="M314.24,661.76 C622.1,661.76 1323.04,661.76 1323.04,661.76 C1323.04,661.76 1323.04,753.96 1323.04,816.59" fill="none" id="instrument-sub_industry" style="stroke:#181818;stroke-width:1;stroke-dasharray:7,7;"/><line style="stroke:#181818;stroke-width:1;" x1="304.24" x2="296.24" y1="661.76" y2="667.76"/><line style="stroke:#181818;stroke-width:1;" x1="304.24" x2="296.24" y1="661.76" y2="655.76"/><line style="stroke:#181818;stroke-width:1;" x1="304.24" x2="296.24" y1="661.76" y2="661.76"/><ellipse cx="310.24" cy="661.76" fill="none" rx="4" ry="4" style="stroke:#181818;stroke-width:1;"/><line style="stroke:#181818;stroke-width:1;" x1="1327.04" x2="1319.04" y1="820.59" y2="820.59"/><line style="stroke:#181818;stroke-width:1;" x1="1327.04" x2="1319.04" y1="817.59" y2="817.59"/><line style="stroke:#181818;stroke-width:1;" x1="1323.04" x2="1323.04" y1="816.59" y2="824.59"/></g><!--link instrument to sub_industry--><g class="link" data-entity-1="ent0003" data-entity-2="ent0014" data-link-type="crowfoot" data-source-line="142" id="lnk30"><path codeLine="142" d="M314.28,656.76 C637.8,656.76 1402.96,656.76 1402.96,656.76 C1402.96,656.76 1402.96,752.79 1402.96,816.79" fill="none" id="instrument-sub_industry-1" style="stroke:#181818;stroke-width:1;stroke-dasharray:7,7;"/><line style="stroke:#181818;stroke-width:1;" x1="304.28" x2="296.28" y1="656.76" y2="662.76"/><line style="stroke:#181818;stroke-width:1;" x1="304.28" x2="296.28" y1="656.76" y2="650.76"/><line style="stroke:#181818;stroke-width:1;" x1="304.28" x2="296.28" y1="656.76" y2="656.76"/><ellipse cx="310.28" cy="656.76" fill="none" rx="4" ry="4" style="stroke:#181818;stroke-width:1;"/><line style="stroke:#181818;stroke-width:1;" x1="1406.96" x2="1398.96" y1="820.79" y2="820.79"/><line style="stroke:#181818;stroke-width:1;" x1="1406.96" x2="1398.96" y1="817.79" y2="817.79"/><line style="stroke:#181818;stroke-width:1;" x1="1402.96" x2="1402.96" y1="816.79" y2="824.79"/></g><!--link instrument to country_exposure--><g class="link" data-entity-1="ent0003" data-entity-2="ent0015" data-link-type="crowfoot" data-source-line="143" id="lnk31"><path codeLine="143" d="M314.09,652.76 C691.51,652.76 1700,652.76 1700,652.76 C1700,652.76 1700,761.11 1700,824.97" fill="none" id="instrument-country_exposure" style="stroke:#181818;stroke-width:1;stroke-dasharray:7,7;"/><line style="stroke:#181818;stroke-width:1;" x1="304.09" x2="296.09" y1="652.76" y2="658.76"/><line style="stroke:#181818;stroke-width:1;" x1="304.09" x2="296.09" y1="652.76" y2="646.76"/><line style="stroke:#181818;stroke-width:1;" x1="304.09" x2="296.09" y1="652.76" y2="652.76"/><ellipse cx="310.09" cy="652.76" fill="none" rx="4" ry="4" style="stroke:#181818;stroke-width:1;"/><line style="stroke:#181818;stroke-width:1;" x1="1704" x2="1696" y1="828.97" y2="828.97"/><line style="stroke:#181818;stroke-width:1;" x1="1704" x2="1696" y1="825.97" y2="825.97"/><line style="stroke:#181818;stroke-width:1;" x1="1700" x2="1700" y1="824.97" y2="832.97"/></g><!--link instrument_type to instrument--><g class="link" data-entity-1="ent0016" data-entity-2="ent0003" data-link-type="crowfoot" data-source-line="144" id="lnk33"><path codeLine="144" d="M2049,824.84 C2049,759.71 2049,647.76 2049,647.76 C2049,647.76 748.6,647.76 314.07,647.76" fill="none" id="instrument_type-instrument" style="stroke:#181818;stroke-width:1;stroke-dasharray:7,7;"/><line style="stroke:#181818;stroke-width:1;" x1="2053" x2="2045" y1="828.84" y2="828.84"/><line style="stroke:#181818;stroke-width:1;" x1="2053" x2="2045" y1="825.84" y2="825.84"/><line style="stroke:#181818;stroke-width:1;" x1="2049" x2="2049" y1="824.84" y2="832.84"/><line style="stroke:#181818;stroke-width:1;" x1="304.07" x2="296.07" y1="647.76" y2="653.76"/><line style="stroke:#181818;stroke-width:1;" x1="304.07" x2="296.07" y1="647.76" y2="641.76"/><line style="stroke:#181818;stroke-width:1;" x1="304.07" x2="296.07" y1="647.76" y2="647.76"/><ellipse cx="310.07" cy="647.76" fill="none" rx="4" ry="4" style="stroke:#181818;stroke-width:1;"/></g><!--link profile to risk_level--><!--link risk_level to asset_class_level--><!--link asset_class_level to market_cap--><!--link market_cap to sector--><!--link sector to sub_industry--><!--link sub_industry to country_exposure--><!--link instrument to GMN46--><g class="link" data-entity-1="ent0003" data-entity-2="ent0047" data-link-type="association" data-source-line="166" id="lnk48"><path d="M296.39,629.76 C469.59,629.76 745,629.76 745,629.76 C745,629.76 745,601.16 745,580.61" fill="none" id="instrument-GMN46" style="stroke:#181818;stroke-width:1;stroke-dasharray:7,7;"/></g><?plantuml-src hLVTJXiv5BwVfx2uMOf8L8fKeGX5GX2gx59A2KYLLgl8cN4IRppsoFO0QK7QPzb7wvFqs6FFUFu0eLuaOSuvStvzli-e3UKPbZX5Z7AYjnb1GkgrY5Ifu28XYcJew7qWb9Xld32ACXnly8gWdLCX2JeJAQPy1_s8429SKxr5ErEkjCnJUDn1M25QFbehXFOgoPmcQ8IcbpUJJvDhT7nyzTTuR6q60_j35ULWS3FvTWFQsw_xYEUCuGKZpcwFuvGuYvPpKs4pmhcFa4cnfAnVBwdQp1cv8wpN12j5z3ncyFk2POhbnfZYhDT4aLWBsQ_E5tFAanoAs_OQnIBdHayUCg5osLVSKnHCwu8gJVdAZeeLV_ivkSUNXlJCFClCzbm7UlLgcou4cyTm_i9nnhcKXCUkP7SEkihuRFtRAefGleZkmAqQKXg7mUrfSoQQnXiYvvaaI_fGEslDmmUfiFffz1EfkoxBrZGbtmKFtgaLTLgyRQjoddnPtOvRPTKph3jthIsykuVIVLVVN_1kiqh8OKloeIxnhekHrtG9YMcAsJoXAwfLDJ6R-rC0Ff-9nWdM69sQxQDB6cDD1LTr9BegTjnMwFRT5zYp_i-LM9s9MX-l0IWkpFRRC1Li-4ZzGFAwO22_9tIrrers12cS622odQWIQO6Jp-T5r7fjMi0KiQIPwNlF4IkMyXHdmLuQ46piPWSilc4ECmkWDbA1fJvADxB-lYfd-MBgaBc87a1rcSCpyFtxCd5uCN7m7-96oGbD0EdZYZTCe2B-6s3U1lbRDkwu0NIHz6jZGtGV-uwI-xaZB6L3roJmbdaUZsq6NSG6uauE2bAjmrspj5BXJdNTsWc1PbgoDWbqW7iWhJikuRHXt8soqB4_aBsvNHDMGEQQPWeDO8XB8ME2xeW4miCChIcHMCRhRUIfv_5nE4mUVxYy8yUpNkgQ6WNtFQEIWQfa6QF80qNaRnx3uRWnk951xdzXXPL9lSHzsKW_OnYINn0cxeF9XCay2PFdeoU2BbK5rLtQ5d1s6LMGrgKjeAXJ4m34M_JDTMxQCB1fd5ZJpmky5Rc6MNFehwV8mTzhcYI4_oC7OKi2QWijscrfKqze7tGeO8JGmdN9eNXD4tQXXhEXLQiN4HUQG2c6HCNIws5BfhClwF3WuyV10S8iM-F11n3ktixsqGG-vzVxwC-hVKHqF7m7I9CWuwVfpMq3GcSvPWExXMghD4b78Flvt__8Nor7Djp1-yEZGxJxxV9aziuPr2wO8_H9Y1LCuPnopE5CxuBbsSdN_WI2usugcbwM_oGXM6cGmJTvG1XUZ-KsqwBoz0i0?></g></svg>