<?plantuml 1.2026.1?><svg xmlns="http://www.w3.org/2000/svg" xmlns:xlink="http://www.w3.org/1999/xlink" contentStyleType="text/css" data-diagram-type="CLASS" height="525px" preserveAspectRatio="none" style="width:723px;height:525px;background:#FFFFFF;" version="1.1" viewBox="0 0 723 525" width="723px" zoomAndPan="magnify"><defs/><g><!--class exchange--><g class="entity" data-qualified-name="exchange" data-source-line="3" id="ent0002"><rect fill="#F1F1F1" height="97.4648" rx="2.5" ry="2.5" style="stroke:#181818;stroke-width:0.5;" width="217.6934" x="7" y="7"/><ellipse cx="79.1055" cy="23" fill="#ADD1B2" rx="11" ry="11" style="stroke:#181818;stroke-width:1;"/><path d="M82.7197,29.5 L75,29.5 L75,17.1069 L82.7197,17.1069 L82.7197,19.2651 L77.4487,19.2651 L77.4487,21.938 L82.2217,21.938 L82.2217,24.0962 L77.4487,24.0962 L77.4487,27.3418 L82.7197,27.3418 Z " fill="#000000"/><text fill="#000000" font-family="sans-serif" font-size="14" lengthAdjust="spacing" textLength="64.9824" x="99.6055" y="28.291">Exchange</text><line style="stroke:#181818;stroke-width:0.5;" x1="8" x2="223.6934" y1="39" y2="39"/><g data-visibility-modifier="IE_MANDATORY"><ellipse cx="18" cy="52.7441" fill="#000000" rx="3" ry="3" style="stroke:#000000;stroke-width:1;"/></g><text fill="#000000" font-family="sans-serif" font-size="14" lengthAdjust="spacing" textLength="191.6934" x="27" y="56.5352">exchange_id : INTEGER &#171;PK&#187;</text><line style="stroke:#181818;stroke-width:1;" x1="8" x2="223.6934" y1="63.4883" y2="63.4883"/><g data-visibility-modifier="IE_MANDATORY"><ellipse cx="18" cy="77.2324" fill="#000000" rx="3" ry="3" style="stroke:#000000;stroke-width:1;"/></g><text fill="#000000" font-family="sans-serif" font-size="14" lengthAdjust="spacing" textLength="79.7275" x="27" y="81.0234">code : TEXT</text><text fill="#000000" font-family="sans-serif" font-size="14" lengthAdjust="spacing" textLength="84.6357" x="27" y="97.5117">name : TEXT</text></g><!--class market--><g class="entity" data-qualified-name="market" data-source-line="10" id="ent0003"><rect fill="#F1F1F1" height="97.4648" rx="2.5" ry="2.5" style="stroke:#181818;stroke-width:0.5;" width="217.4609" x="7.12" y="189.19"/><ellipse cx="88.2318" cy="205.19" fill="#ADD1B2" rx="11" ry="11" style="stroke:#181818;stroke-width:1;"/><path d="M91.8461,211.69 L84.1263,211.69 L84.1263,199.2969 L91.8461,199.2969 L91.8461,201.4551 L86.5751,201.4551 L86.5751,204.128 L91.348,204.128 L91.348,206.2862 L86.5751,206.2862 L86.5751,209.5318 L91.8461,209.5318 Z " fill="#000000"/><text fill="#000000" font-family="sans-serif" font-size="14" lengthAdjust="spacing" textLength="46.7373" x="108.7318" y="210.481">Market</text><line style="stroke:#181818;stroke-width:0.5;" x1="8.12" x2="223.5809" y1="221.19" y2="221.19"/><g data-visibility-modifier="IE_MANDATORY"><ellipse cx="18.12" cy="234.9341" fill="#000000" rx="3" ry="3" style="stroke:#000000;stroke-width:1;"/></g><text fill="#000000" font-family="sans-serif" font-size="14" lengthAdjust="spacing" textLength="174.248" x="27.12" y="238.7252">market_id : INTEGER &#171;PK&#187;</text><line style="stroke:#181818;stroke-width:1;" x1="8.12" x2="223.5809" y1="245.6783" y2="245.6783"/><g data-visibility-modifier="IE_MANDATORY"><ellipse cx="18.12" cy="259.4224" fill="#000000" rx="3" ry="3" style="stroke:#000000;stroke-width:1;"/></g><text fill="#000000" font-family="sans-serif" font-size="14" lengthAdjust="spacing" textLength="191.4609" x="27.12" y="263.2134">exchange_id : INTEGER &#171;FK&#187;</text><g data-visibility-modifier="IE_MANDATORY"><ellipse cx="18.12" cy="275.9107" fill="#000000" rx="3" ry="3" style="stroke:#000000;stroke-width:1;"/></g><text fill="#000000" font-family="sans-serif" font-size="14" lengthAdjust="spacing" textLength="79.7275" x="27.12" y="279.7017">code : TEXT</text></g><!--class instrument--><g class="entity" data-qualified-name="instrument" data-source-line="17" id="ent0004"><rect fill="#F1F1F1" height="113.9531" rx="2.5" ry="2.5" style="stroke:#181818;stroke-width:0.5;" width="226.8193" x="259.44" y="180.95"/><ellipse cx="331.4463" cy="196.95" fill="#ADD1B2" rx="11" ry="11" style="stroke:#181818;stroke-width:1;"/><path d="M335.0606,203.45 L327.3409,203.45 L327.3409,191.0569 L335.0606,191.0569 L335.0606,193.2151 L329.7896,193.2151 L329.7896,195.888 L334.5626,195.888 L334.5626,198.0462 L329.7896,198.0462 L329.7896,201.2918 L335.0606,201.2918 Z " fill="#000000"/><text fill="#000000" font-family="sans-serif" font-size="14" lengthAdjust="spacing" textLength="74.3066" x="351.9463" y="202.241">Instrument</text><line style="stroke:#181818;stroke-width:0.5;" x1="260.44" x2="485.2593" y1="212.95" y2="212.95"/><g data-visibility-modifier="IE_MANDATORY"><ellipse cx="270.44" cy="226.6941" fill="#000000" rx="3" ry="3" style="stroke:#000000;stroke-width:1;"/></g><text fill="#000000" font-family="sans-serif" font-size="14" lengthAdjust="spacing" textLength="200.8193" x="279.44" y="230.4852">instrument_id : INTEGER &#171;PK&#187;</text><line style="stroke:#181818;stroke-width:1;" x1="260.44" x2="485.2593" y1="237.4383" y2="237.4383"/><g data-visibility-modifier="IE_MANDATORY"><ellipse cx="270.44" cy="251.1824" fill="#000000" rx="3" ry="3" style="stroke:#000000;stroke-width:1;"/></g><text fill="#000000" font-family="sans-serif" font-size="14" lengthAdjust="spacing" textLength="71.2646" x="279.44" y="254.9734">isin : TEXT</text><g data-visibility-modifier="IE_MANDATORY"><ellipse cx="270.44" cy="267.6707" fill="#000000" rx="3" ry="3" style="stroke:#000000;stroke-width:1;"/></g><text fill="#000000" font-family="sans-serif" font-size="14" lengthAdjust="spacing" textLength="84.6357" x="279.44" y="271.4617">name : TEXT</text><g data-visibility-modifier="IE_MANDATORY"><ellipse cx="270.44" cy="284.159" fill="#000000" rx="3" ry="3" style="stroke:#000000;stroke-width:1;"/></g><text fill="#000000" font-family="sans-serif" font-size="14" lengthAdjust="spacing" textLength="157.8281" x="279.44" y="287.95">instrument_type : TEXT</text></g><!--class listing--><g class="entity" data-qualified-name="listing" data-source-line="25" id="ent0005"><rect fill="#F1F1F1" height="146.9297" rx="2.5" ry="2.5" style="stroke:#181818;stroke-width:0.5;" width="226.5869" x="259.55" y="371.39"/><ellipse cx="345.9187" cy="387.39" fill="#ADD1B2" rx="11" ry="11" style="stroke:#181818;stroke-width:1;"/><path d="M349.5329,393.89 L341.8132,393.89 L341.8132,381.4969 L349.5329,381.4969 L349.5329,383.6551 L344.2619,383.6551 L344.2619,386.328 L349.0349,386.328 L349.0349,388.4862 L344.2619,388.4862 L344.2619,391.7318 L349.5329,391.7318 Z " fill="#000000"/><text fill="#000000" font-family="sans-serif" font-size="14" lengthAdjust="spacing" textLength="45.3496" x="366.4187" y="392.681">Listing</text><line style="stroke:#181818;stroke-width:0.5;" x1="260.55" x2="485.1369" y1="403.39" y2="403.39"/><g data-visibility-modifier="IE_MANDATORY"><ellipse cx="270.55" cy="417.1341" fill="#000000" rx="3" ry="3" style="stroke:#000000;stroke-width:1;"/></g><text fill="#000000" font-family="sans-serif" font-size="14" lengthAdjust="spacing" textLength="168.4307" x="279.55" y="420.9252">listing_id : INTEGER &#171;PK&#187;</text><line style="stroke:#181818;stroke-width:1;" x1="260.55" x2="485.1369" y1="427.8783" y2="427.8783"/><g data-visibility-modifier="IE_MANDATORY"><ellipse cx="270.55" cy="441.6224" fill="#000000" rx="3" ry="3" style="stroke:#000000;stroke-width:1;"/></g><text fill="#000000" font-family="sans-serif" font-size="14" lengthAdjust="spacing" textLength="200.5869" x="279.55" y="445.4134">instrument_id : INTEGER &#171;FK&#187;</text><g data-visibility-modifier="IE_MANDATORY"><ellipse cx="270.55" cy="458.1107" fill="#000000" rx="3" ry="3" style="stroke:#000000;stroke-width:1;"/></g><text fill="#000000" font-family="sans-serif" font-size="14" lengthAdjust="spacing" textLength="174.0156" x="279.55" y="461.9017">market_id : INTEGER &#171;FK&#187;</text><g data-visibility-modifier="IE_MANDATORY"><ellipse cx="270.55" cy="474.599" fill="#000000" rx="3" ry="3" style="stroke:#000000;stroke-width:1;"/></g><text fill="#000000" font-family="sans-serif" font-size="14" lengthAdjust="spacing" textLength="135.707" x="279.55" y="478.39">symbol_code : TEXT</text><text fill="#000000" font-family="sans-serif" font-size="14" lengthAdjust="spacing" textLength="140.4102" x="279.55" y="494.8783">display_ticker : TEXT</text><text fill="#000000" font-family="sans-serif" font-size="14" lengthAdjust="spacing" textLength="161.2393" x="279.55" y="511.3666">currency_id : TEXT &#171;FK&#187;</text></g><!--class currency--><g class="entity" data-qualified-name="currency" data-source-line="35" id="ent0006"><rect fill="#F1F1F1" height="146.9297" rx="2.5" ry="2.5" style="stroke:#181818;stroke-width:0.5;" width="194.3486" x="521.67" y="164.46"/><ellipse cx="584.1915" cy="180.46" fill="#ADD1B2" rx="11" ry="11" style="stroke:#181818;stroke-width:1;"/><path d="M587.8057,186.96 L580.086,186.96 L580.086,174.5669 L587.8057,174.5669 L587.8057,176.7251 L582.5347,176.7251 L582.5347,179.398 L587.3077,179.398 L587.3077,181.5562 L582.5347,181.5562 L582.5347,184.8018 L587.8057,184.8018 Z " fill="#000000"/><text fill="#000000" font-family="sans-serif" font-size="14" lengthAdjust="spacing" textLength="60.8057" x="604.6915" y="185.751">Currency</text><line style="stroke:#181818;stroke-width:0.5;" x1="522.67" x2="715.0186" y1="196.46" y2="196.46"/><g data-visibility-modifier="IE_MANDATORY"><ellipse cx="532.67" cy="210.2041" fill="#000000" rx="3" ry="3" style="stroke:#000000;stroke-width:1;"/></g><text fill="#000000" font-family="sans-serif" font-size="14" lengthAdjust="spacing" textLength="161.4717" x="541.67" y="213.9952">currency_id : TEXT &#171;PK&#187;</text><line style="stroke:#181818;stroke-width:1;" x1="522.67" x2="715.0186" y1="220.9483" y2="220.9483"/><g data-visibility-modifier="IE_MANDATORY"><ellipse cx="532.67" cy="234.6924" fill="#000000" rx="3" ry="3" style="stroke:#000000;stroke-width:1;"/></g><text fill="#000000" font-family="sans-serif" font-size="14" lengthAdjust="spacing" textLength="84.6357" x="541.67" y="238.4834">name : TEXT</text><g data-visibility-modifier="IE_MANDATORY"><ellipse cx="532.67" cy="251.1807" fill="#000000" rx="3" ry="3" style="stroke:#000000;stroke-width:1;"/></g><text fill="#000000" font-family="sans-serif" font-size="14" lengthAdjust="spacing" textLength="88.5801" x="541.67" y="254.9717">code3 : TEXT</text><g data-visibility-modifier="IE_MANDATORY"><ellipse cx="532.67" cy="267.669" fill="#000000" rx="3" ry="3" style="stroke:#000000;stroke-width:1;"/></g><text fill="#000000" font-family="sans-serif" font-size="14" lengthAdjust="spacing" textLength="88.5801" x="541.67" y="271.46">code2 : TEXT</text><g data-visibility-modifier="IE_MANDATORY"><ellipse cx="532.67" cy="284.1573" fill="#000000" rx="3" ry="3" style="stroke:#000000;stroke-width:1;"/></g><text fill="#000000" font-family="sans-serif" font-size="14" lengthAdjust="spacing" textLength="161.6152" x="541.67" y="287.9483">currency_symbol : TEXT</text><g data-visibility-modifier="IE_MANDATORY"><ellipse cx="532.67" cy="300.6455" fill="#000000" rx="3" ry="3" style="stroke:#000000;stroke-width:1;"/></g><text fill="#000000" font-family="sans-serif" font-size="14" lengthAdjust="spacing" textLength="168.3486" x="541.67" y="304.4366">decimal_digits : INTEGER</text></g><!--link exchange to market--><g class="link" data-entity-1="ent0002" data-entity-2="ent0003" data-link-type="crowfoot" data-source-line="45" id="lnk7"><path codeLine="45" d="M115.85,112.55 C115.85,138.69 115.85,154.8 115.85,180.97" fill="none" id="exchange-market" style="stroke:#181818;stroke-width:1;stroke-dasharray:7,7;"/><line style="stroke:#181818;stroke-width:1;" x1="111.85" x2="119.85" y1="108.55" y2="108.55"/><line style="stroke:#181818;stroke-width:1;" x1="111.85" x2="119.85" y1="111.55" y2="111.55"/><line style="stroke:#181818;stroke-width:1;" x1="115.85" x2="115.85" y1="112.55" y2="104.55"/><line style="stroke:#181818;stroke-width:1;" x1="115.85" x2="121.85" y1="180.97" y2="188.97"/><line style="stroke:#181818;stroke-width:1;" x1="115.85" x2="109.85" y1="180.97" y2="188.97"/><line style="stroke:#181818;stroke-width:1;" x1="115.85" x2="115.85" y1="180.97" y2="188.97"/><line style="stroke:#181818;stroke-width:1;" x1="119.85" x2="111.85" y1="178.97" y2="178.97"/></g><!--link market to listing--><g class="link" data-entity-1="ent0003" data-entity-2="ent0005" data-link-type="crowfoot" data-source-line="46" id="lnk8"><path codeLine="46" d="M115.85,295.08 C115.85,356.4 115.85,445.32 115.85,445.32 C115.85,445.32 182.53,445.32 251.37,445.32" fill="none" id="market-listing" style="stroke:#181818;stroke-width:1;stroke-dasharray:7,7;"/><line style="stroke:#181818;stroke-width:1;" x1="111.85" x2="119.85" y1="291.08" y2="291.08"/><line style="stroke:#181818;stroke-width:1;" x1="111.85" x2="119.85" y1="294.08" y2="294.08"/><line style="stroke:#181818;stroke-width:1;" x1="115.85" x2="115.85" y1="295.08" y2="287.08"/><line style="stroke:#181818;stroke-width:1;" x1="251.37" x2="259.37" y1="445.32" y2="439.32"/><line style="stroke:#181818;stroke-width:1;" x1="251.37" x2="259.37" y1="445.32" y2="451.32"/><line style="stroke:#181818;stroke-width:1;" x1="251.37" x2="259.37" y1="445.32" y2="445.32"/><line style="stroke:#181818;stroke-width:1;" x1="249.37" x2="249.37" y1="441.32" y2="449.32"/></g><!--link instrument to listing--><g class="link" data-entity-1="ent0004" data-entity-2="ent0005" data-link-type="crowfoot" data-source-line="47" id="lnk9"><path codeLine="47" d="M335.08,303.29 C335.08,326.74 335.08,338.15 335.08,363.05" fill="none" id="instrument-listing" style="stroke:#181818;stroke-width:1;stroke-dasharray:7,7;"/><line style="stroke:#181818;stroke-width:1;" x1="331.08" x2="339.08" y1="299.29" y2="299.29"/><line style="stroke:#181818;stroke-width:1;" x1="331.08" x2="339.08" y1="302.29" y2="302.29"/><line style="stroke:#181818;stroke-width:1;" x1="335.08" x2="335.08" y1="303.29" y2="295.29"/><line style="stroke:#181818;stroke-width:1;" x1="335.08" x2="341.08" y1="363.05" y2="371.05"/><line style="stroke:#181818;stroke-width:1;" x1="335.08" x2="329.08" y1="363.05" y2="371.05"/><line style="stroke:#181818;stroke-width:1;" x1="335.08" x2="335.08" y1="363.05" y2="371.05"/><line style="stroke:#181818;stroke-width:1;" x1="339.08" x2="331.08" y1="361.05" y2="361.05"/></g><!--link currency to listing--><g class="link" data-entity-1="ent0006" data-entity-2="ent0005" data-link-type="crowfoot" data-source-line="48" id="lnk10"><path codeLine="48" d="M513.44,303.32 C459.24,303.32 410.61,303.32 410.61,303.32 C410.61,303.32 410.61,328.8 410.61,363.19" fill="none" id="currency-listing" style="stroke:#181818;stroke-width:1;stroke-dasharray:7,7;"/><line style="stroke:#181818;stroke-width:1;" x1="517.44" x2="517.44" y1="299.32" y2="307.32"/><line style="stroke:#181818;stroke-width:1;" x1="514.44" x2="514.44" y1="299.32" y2="307.32"/><line style="stroke:#181818;stroke-width:1;" x1="513.44" x2="521.44" y1="303.32" y2="303.32"/><line style="stroke:#181818;stroke-width:1;" x1="410.61" x2="416.61" y1="363.19" y2="371.19"/><line style="stroke:#181818;stroke-width:1;" x1="410.61" x2="404.61" y1="363.19" y2="371.19"/><line style="stroke:#181818;stroke-width:1;" x1="410.61" x2="410.61" y1="363.19" y2="371.19"/><line style="stroke:#181818;stroke-width:1;" x1="414.61" x2="406.61" y1="361.19" y2="361.19"/></g><?plantuml-src VL9DRuCm3BtpAwmUAxM7xLPLlKnighPLqyHXDvI5Y5gGW99K6YhxxuDyG60jDp_RyNlFiIfGr4GI3YKAffkQGINrkOeY9ZJg1bRn3pqJaRCL40NC0RX606kFKinW1yTJ4h_4dx3VVxmU3brzi-cRQ9Mnhfh4Nqa71U43-Xr9teaic3OKt8IMmCQBu-zfUBPD4_g0y2YKbXVUGKEA0xJ48ruaHuLYzBOEpKs7cCN-L_66IgF8ZOJInfRVWMNokngzzzlhyrNLyE-gJAV_aw6gIzAa6cd1v9Yd5ocPe8qTrYVzfC3EasioVlmBQ-Zc-ucTsV9wMOyp_11YFz3Q22ePeyX9cMQOerQZTQFKts_RRhVjrHrRv6xE9Ttoe-0ePfN1spJ_1m00?></g></svg>