<?plantuml 1.2026.1?><svg xmlns="http://www.w3.org/2000/svg" xmlns:xlink="http://www.w3.org/1999/xlink" contentStyleType="text/css" data-diagram-type="CLASS" height="508px" preserveAspectRatio="none" style="width:1184px;height:508px;background:#FFFFFF;" version="1.1" viewBox="0 0 1184 508" width="1184px" zoomAndPan="magnify"><defs/><g><!--class country--><g class="entity" data-qualified-name="country" data-source-line="3" id="ent0002"><rect fill="#F1F1F1" height="80.9766" rx="2.5" ry="2.5" style="stroke:#181818;stroke-width:0.5;" width="200.1318" x="7.06" y="7"/><ellipse cx="75.9047" cy="23" fill="#ADD1B2" rx="11" ry="11" style="stroke:#181818;stroke-width:1;"/><path d="M79.519,29.5 L71.7993,29.5 L71.7993,17.1069 L79.519,17.1069 L79.519,19.2651 L74.248,19.2651 L74.248,21.938 L79.0209,21.938 L79.0209,24.0962 L74.248,24.0962 L74.248,27.3418 L79.519,27.3418 Z " fill="#000000"/><text fill="#000000" font-family="sans-serif" font-size="14" lengthAdjust="spacing" textLength="53.9424" x="96.4047" y="28.291">Country</text><line style="stroke:#181818;stroke-width:0.5;" x1="8.06" x2="206.1918" y1="39" y2="39"/><g data-visibility-modifier="IE_MANDATORY"><ellipse cx="18.06" cy="52.7441" fill="#000000" rx="3" ry="3" style="stroke:#000000;stroke-width:1;"/></g><text fill="#000000" font-family="sans-serif" font-size="14" lengthAdjust="spacing" textLength="174.1318" x="27.06" y="56.5352">country_code : TEXT &#171;PK&#187;</text><line style="stroke:#181818;stroke-width:1;" x1="8.06" x2="206.1918" y1="63.4883" y2="63.4883"/><g data-visibility-modifier="IE_MANDATORY"><ellipse cx="18.06" cy="77.2324" fill="#000000" rx="3" ry="3" style="stroke:#000000;stroke-width:1;"/></g><text fill="#000000" font-family="sans-serif" font-size="14" lengthAdjust="spacing" textLength="84.6357" x="27.06" y="81.0234">name : TEXT</text></g><!--class market--><g class="entity" data-qualified-name="market" data-source-line="9" id="ent0003"><rect fill="#F1F1F1" height="163.418" rx="2.5" ry="2.5" style="stroke:#181818;stroke-width:0.5;" width="200.248" x="7" y="147.98"/><ellipse cx="79.5054" cy="163.98" fill="#ADD1B2" rx="11" ry="11" style="stroke:#181818;stroke-width:1;"/><path d="M83.1196,170.48 L75.3999,170.48 L75.3999,158.0869 L83.1196,158.0869 L83.1196,160.2451 L77.8486,160.2451 L77.8486,162.918 L82.6216,162.918 L82.6216,165.0762 L77.8486,165.0762 L77.8486,168.3218 L83.1196,168.3218 Z " fill="#000000"/><text fill="#000000" font-family="sans-serif" font-size="14" lengthAdjust="spacing" textLength="46.7373" x="100.0054" y="169.271">Market</text><line style="stroke:#181818;stroke-width:0.5;" x1="8" x2="206.248" y1="179.98" y2="179.98"/><g data-visibility-modifier="IE_MANDATORY"><ellipse cx="18" cy="193.7241" fill="#000000" rx="3" ry="3" style="stroke:#000000;stroke-width:1;"/></g><text fill="#000000" font-family="sans-serif" font-size="14" lengthAdjust="spacing" textLength="174.248" x="27" y="197.5152">market_id : INTEGER &#171;PK&#187;</text><line style="stroke:#181818;stroke-width:1;" x1="8" x2="206.248" y1="204.4683" y2="204.4683"/><g data-visibility-modifier="IE_MANDATORY"><ellipse cx="18" cy="218.2124" fill="#000000" rx="3" ry="3" style="stroke:#000000;stroke-width:1;"/></g><text fill="#000000" font-family="sans-serif" font-size="14" lengthAdjust="spacing" textLength="150.6914" x="27" y="222.0034">mic_code : TEXT &#171;UQ&#187;</text><text fill="#000000" font-family="sans-serif" font-size="14" lengthAdjust="spacing" textLength="132.6309" x="27" y="238.4917">ticker_prefix : TEXT</text><g data-visibility-modifier="IE_MANDATORY"><ellipse cx="18" cy="251.189" fill="#000000" rx="3" ry="3" style="stroke:#000000;stroke-width:1;"/></g><text fill="#000000" font-family="sans-serif" font-size="14" lengthAdjust="spacing" textLength="84.6357" x="27" y="254.98">name : TEXT</text><text fill="#000000" font-family="sans-serif" font-size="14" lengthAdjust="spacing" textLength="73.7119" x="27" y="271.4683">title : TEXT</text><g data-visibility-modifier="IE_MANDATORY"><ellipse cx="18" cy="284.1655" fill="#000000" rx="3" ry="3" style="stroke:#000000;stroke-width:1;"/></g><text fill="#000000" font-family="sans-serif" font-size="14" lengthAdjust="spacing" textLength="173.8994" x="27" y="287.9566">country_code : TEXT &#171;FK&#187;</text><text fill="#000000" font-family="sans-serif" font-size="14" lengthAdjust="spacing" textLength="110.6123" x="27" y="304.4448">timezone : TEXT</text></g><!--class instrument--><g class="entity" data-qualified-name="instrument" data-source-line="20" id="ent0004"><rect fill="#F1F1F1" height="113.9531" rx="2.5" ry="2.5" style="stroke:#181818;stroke-width:0.5;" width="226.8193" x="560.71" y="172.71"/><ellipse cx="632.7163" cy="188.71" fill="#ADD1B2" rx="11" ry="11" style="stroke:#181818;stroke-width:1;"/><path d="M636.3306,195.21 L628.6109,195.21 L628.6109,182.8169 L636.3306,182.8169 L636.3306,184.9751 L631.0596,184.9751 L631.0596,187.648 L635.8326,187.648 L635.8326,189.8062 L631.0596,189.8062 L631.0596,193.0518 L636.3306,193.0518 Z " fill="#000000"/><text fill="#000000" font-family="sans-serif" font-size="14" lengthAdjust="spacing" textLength="74.3066" x="653.2163" y="194.001">Instrument</text><line style="stroke:#181818;stroke-width:0.5;" x1="561.71" x2="786.5293" y1="204.71" y2="204.71"/><g data-visibility-modifier="IE_MANDATORY"><ellipse cx="571.71" cy="218.4541" fill="#000000" rx="3" ry="3" style="stroke:#000000;stroke-width:1;"/></g><text fill="#000000" font-family="sans-serif" font-size="14" lengthAdjust="spacing" textLength="200.8193" x="580.71" y="222.2452">instrument_id : INTEGER &#171;PK&#187;</text><line style="stroke:#181818;stroke-width:1;" x1="561.71" x2="786.5293" y1="229.1983" y2="229.1983"/><text fill="#000000" font-family="sans-serif" font-size="14" lengthAdjust="spacing" textLength="173.6602" x="580.71" y="246.7334">isin : TEXT &#171;UQ, nullable&#187;</text><g data-visibility-modifier="IE_MANDATORY"><ellipse cx="571.71" cy="259.4307" fill="#000000" rx="3" ry="3" style="stroke:#000000;stroke-width:1;"/></g><text fill="#000000" font-family="sans-serif" font-size="14" lengthAdjust="spacing" textLength="84.6357" x="580.71" y="263.2217">name : TEXT</text><g data-visibility-modifier="IE_MANDATORY"><ellipse cx="571.71" cy="275.919" fill="#000000" rx="3" ry="3" style="stroke:#000000;stroke-width:1;"/></g><text fill="#000000" font-family="sans-serif" font-size="14" lengthAdjust="spacing" textLength="157.8281" x="580.71" y="279.71">instrument_type : TEXT</text></g><!--class listing--><g class="entity" data-qualified-name="listing" data-source-line="28" id="ent0005"><rect fill="#F1F1F1" height="130.4414" rx="2.5" ry="2.5" style="stroke:#181818;stroke-width:0.5;" width="226.5869" x="560.83" y="371.4"/><ellipse cx="647.1987" cy="387.4" fill="#ADD1B2" rx="11" ry="11" style="stroke:#181818;stroke-width:1;"/><path d="M650.8129,393.9 L643.0932,393.9 L643.0932,381.5069 L650.8129,381.5069 L650.8129,383.6651 L645.5419,383.6651 L645.5419,386.338 L650.3149,386.338 L650.3149,388.4962 L645.5419,388.4962 L645.5419,391.7418 L650.8129,391.7418 Z " fill="#000000"/><text fill="#000000" font-family="sans-serif" font-size="14" lengthAdjust="spacing" textLength="45.3496" x="667.6987" y="392.691">Listing</text><line style="stroke:#181818;stroke-width:0.5;" x1="561.83" x2="786.4169" y1="403.4" y2="403.4"/><g data-visibility-modifier="IE_MANDATORY"><ellipse cx="571.83" cy="417.1441" fill="#000000" rx="3" ry="3" style="stroke:#000000;stroke-width:1;"/></g><text fill="#000000" font-family="sans-serif" font-size="14" lengthAdjust="spacing" textLength="168.4307" x="580.83" y="420.9352">listing_id : INTEGER &#171;PK&#187;</text><line style="stroke:#181818;stroke-width:1;" x1="561.83" x2="786.4169" y1="427.8883" y2="427.8883"/><g data-visibility-modifier="IE_MANDATORY"><ellipse cx="571.83" cy="441.6324" fill="#000000" rx="3" ry="3" style="stroke:#000000;stroke-width:1;"/></g><text fill="#000000" font-family="sans-serif" font-size="14" lengthAdjust="spacing" textLength="200.5869" x="580.83" y="445.4234">instrument_id : INTEGER &#171;FK&#187;</text><g data-visibility-modifier="IE_MANDATORY"><ellipse cx="571.83" cy="458.1207" fill="#000000" rx="3" ry="3" style="stroke:#000000;stroke-width:1;"/></g><text fill="#000000" font-family="sans-serif" font-size="14" lengthAdjust="spacing" textLength="174.0156" x="580.83" y="461.9117">market_id : INTEGER &#171;FK&#187;</text><g data-visibility-modifier="IE_MANDATORY"><ellipse cx="571.83" cy="474.609" fill="#000000" rx="3" ry="3" style="stroke:#000000;stroke-width:1;"/></g><text fill="#000000" font-family="sans-serif" font-size="14" lengthAdjust="spacing" textLength="135.707" x="580.83" y="478.4">symbol_code : TEXT</text><text fill="#000000" font-family="sans-serif" font-size="14" lengthAdjust="spacing" textLength="161.2393" x="580.83" y="494.8883">currency_id : TEXT &#171;FK&#187;</text></g><!--class currency--><g class="entity" data-qualified-name="currency" data-source-line="37" id="ent0006"><rect fill="#F1F1F1" height="146.9297" rx="2.5" ry="2.5" style="stroke:#181818;stroke-width:0.5;" width="194.3486" x="982.95" y="156.22"/><ellipse cx="1045.4715" cy="172.22" fill="#ADD1B2" rx="11" ry="11" style="stroke:#181818;stroke-width:1;"/><path d="M1049.0857,178.72 L1041.366,178.72 L1041.366,166.3269 L1049.0857,166.3269 L1049.0857,168.4851 L1043.8147,168.4851 L1043.8147,171.158 L1048.5877,171.158 L1048.5877,173.3162 L1043.8147,173.3162 L1043.8147,176.5618 L1049.0857,176.5618 Z " fill="#000000"/><text fill="#000000" font-family="sans-serif" font-size="14" lengthAdjust="spacing" textLength="60.8057" x="1065.9715" y="177.511">Currency</text><line style="stroke:#181818;stroke-width:0.5;" x1="983.95" x2="1176.2986" y1="188.22" y2="188.22"/><g data-visibility-modifier="IE_MANDATORY"><ellipse cx="993.95" cy="201.9641" fill="#000000" rx="3" ry="3" style="stroke:#000000;stroke-width:1;"/></g><text fill="#000000" font-family="sans-serif" font-size="14" lengthAdjust="spacing" textLength="161.4717" x="1002.95" y="205.7552">currency_id : TEXT &#171;PK&#187;</text><line style="stroke:#181818;stroke-width:1;" x1="983.95" x2="1176.2986" y1="212.7083" y2="212.7083"/><g data-visibility-modifier="IE_MANDATORY"><ellipse cx="993.95" cy="226.4524" fill="#000000" rx="3" ry="3" style="stroke:#000000;stroke-width:1;"/></g><text fill="#000000" font-family="sans-serif" font-size="14" lengthAdjust="spacing" textLength="84.6357" x="1002.95" y="230.2434">name : TEXT</text><g data-visibility-modifier="IE_MANDATORY"><ellipse cx="993.95" cy="242.9407" fill="#000000" rx="3" ry="3" style="stroke:#000000;stroke-width:1;"/></g><text fill="#000000" font-family="sans-serif" font-size="14" lengthAdjust="spacing" textLength="88.5801" x="1002.95" y="246.7317">code3 : TEXT</text><g data-visibility-modifier="IE_MANDATORY"><ellipse cx="993.95" cy="259.429" fill="#000000" rx="3" ry="3" style="stroke:#000000;stroke-width:1;"/></g><text fill="#000000" font-family="sans-serif" font-size="14" lengthAdjust="spacing" textLength="88.5801" x="1002.95" y="263.22">code2 : TEXT</text><g data-visibility-modifier="IE_MANDATORY"><ellipse cx="993.95" cy="275.9173" fill="#000000" rx="3" ry="3" style="stroke:#000000;stroke-width:1;"/></g><text fill="#000000" font-family="sans-serif" font-size="14" lengthAdjust="spacing" textLength="161.6152" x="1002.95" y="279.7083">currency_symbol : TEXT</text><g data-visibility-modifier="IE_MANDATORY"><ellipse cx="993.95" cy="292.4055" fill="#000000" rx="3" ry="3" style="stroke:#000000;stroke-width:1;"/></g><text fill="#000000" font-family="sans-serif" font-size="14" lengthAdjust="spacing" textLength="168.3486" x="1002.95" y="296.1966">decimal_digits : INTEGER</text></g><g class="entity" data-qualified-name="GMN11" data-source-line="53" id="ent0012"><path d="M241.72,27.18 L241.72,43.84 L207.64,47.84 L241.72,51.84 L241.72,67.8011 A0,0 0 0 0 241.72,67.8011 L390.5237,67.8011 A0,0 0 0 0 390.5237,67.8011 L390.5237,37.18 L380.5237,27.18 L241.72,27.18 A0,0 0 0 0 241.72,27.18" fill="#FEFFDD" style="stroke:#181818;stroke-width:0.5;"/><path d="M380.5237,27.18 L380.5237,37.18 L390.5237,37.18 L380.5237,27.18" fill="#FEFFDD" style="stroke:#181818;stroke-width:0.5;"/><text fill="#000000" font-family="sans-serif" font-size="13" lengthAdjust="spacing" textLength="127.8037" x="247.72" y="44.7484">ISO 3166-1 alpha-2</text><text fill="#000000" font-family="sans-serif" font-size="13" lengthAdjust="spacing" textLength="120.7134" x="247.72" y="60.0589">(US, ES, FR, JP, etc.)</text></g><g class="entity" data-qualified-name="GMN14" data-source-line="58" id="ent0015"><path d="M242.48,201.72 L242.48,225.84 L207.52,229.84 L242.48,233.84 L242.48,257.6516 A0,0 0 0 0 242.48,257.6516 L525.7779,257.6516 A0,0 0 0 0 525.7779,257.6516 L525.7779,211.72 L515.7779,201.72 L242.48,201.72 A0,0 0 0 0 242.48,201.72" fill="#FEFFDD" style="stroke:#181818;stroke-width:0.5;"/><path d="M515.7779,201.72 L515.7779,211.72 L525.7779,211.72 L515.7779,201.72" fill="#FEFFDD" style="stroke:#181818;stroke-width:0.5;"/><text fill="#000000" font-family="sans-serif" font-size="13" lengthAdjust="spacing" textLength="118.8472" x="248.48" y="219.2884">Dual-code system:</text><text fill="#000000" font-family="sans-serif" font-size="13" lengthAdjust="spacing" textLength="191.0898" x="248.48" y="234.5989">&#8226; mic_code: ISO 10383 (XNAS)</text><text fill="#000000" font-family="sans-serif" font-size="13" lengthAdjust="spacing" textLength="262.2979" x="248.48" y="249.9095">&#8226; ticker_prefix: Google Finance (NASDAQ)</text></g><g class="entity" data-qualified-name="GMN17" data-source-line="64" id="ent0018"><path d="M822.25,209.38 L822.25,225.84 L787.96,229.84 L822.25,233.84 L822.25,250.0011 A0,0 0 0 0 822.25,250.0011 L948.0054,250.0011 A0,0 0 0 0 948.0054,250.0011 L948.0054,219.38 L938.0054,209.38 L822.25,209.38 A0,0 0 0 0 822.25,209.38" fill="#FEFFDD" style="stroke:#181818;stroke-width:0.5;"/><path d="M938.0054,209.38 L938.0054,219.38 L948.0054,219.38 L938.0054,209.38" fill="#FEFFDD" style="stroke:#181818;stroke-width:0.5;"/><text fill="#000000" font-family="sans-serif" font-size="13" lengthAdjust="spacing" textLength="100.4199" x="828.25" y="226.9484">ISIN nullable for</text><text fill="#000000" font-family="sans-serif" font-size="13" lengthAdjust="spacing" textLength="104.7554" x="828.25" y="242.2589">forex and crypto</text></g><!--link country to market--><g class="link" data-entity-1="ent0002" data-entity-2="ent0003" data-link-type="crowfoot" data-source-line="47" id="lnk7"><path codeLine="47" d="M107.12,96.38 C107.12,113.9 107.12,119.03 107.12,139.54" fill="none" id="country-market" style="stroke:#181818;stroke-width:1;stroke-dasharray:7,7;"/><line style="stroke:#181818;stroke-width:1;" x1="103.12" x2="111.12" y1="92.38" y2="92.38"/><line style="stroke:#181818;stroke-width:1;" x1="103.12" x2="111.12" y1="95.38" y2="95.38"/><line style="stroke:#181818;stroke-width:1;" x1="107.12" x2="107.12" y1="96.38" y2="88.38"/><line style="stroke:#181818;stroke-width:1;" x1="107.12" x2="113.12" y1="139.54" y2="147.54"/><line style="stroke:#181818;stroke-width:1;" x1="107.12" x2="101.12" y1="139.54" y2="147.54"/><line style="stroke:#181818;stroke-width:1;" x1="107.12" x2="107.12" y1="139.54" y2="147.54"/><line style="stroke:#181818;stroke-width:1;" x1="111.12" x2="103.12" y1="137.54" y2="137.54"/></g><!--link market to listing--><g class="link" data-entity-1="ent0003" data-entity-2="ent0005" data-link-type="crowfoot" data-source-line="48" id="lnk8"><path codeLine="48" d="M215.65,306.84 C364.33,306.84 617.48,306.84 617.48,306.84 C617.48,306.84 617.48,330.78 617.48,362.97" fill="none" id="market-listing" style="stroke:#181818;stroke-width:1;stroke-dasharray:7,7;"/><line style="stroke:#181818;stroke-width:1;" x1="211.65" x2="211.65" y1="310.84" y2="302.84"/><line style="stroke:#181818;stroke-width:1;" x1="214.65" x2="214.65" y1="310.84" y2="302.84"/><line style="stroke:#181818;stroke-width:1;" x1="215.65" x2="207.65" y1="306.84" y2="306.84"/><line style="stroke:#181818;stroke-width:1;" x1="617.48" x2="623.48" y1="362.97" y2="370.97"/><line style="stroke:#181818;stroke-width:1;" x1="617.48" x2="611.48" y1="362.97" y2="370.97"/><line style="stroke:#181818;stroke-width:1;" x1="617.48" x2="617.48" y1="362.97" y2="370.97"/><line style="stroke:#181818;stroke-width:1;" x1="621.48" x2="613.48" y1="360.97" y2="360.97"/></g><!--link instrument to listing--><g class="link" data-entity-1="ent0004" data-entity-2="ent0005" data-link-type="crowfoot" data-source-line="49" id="lnk9"><path codeLine="49" d="M674.12,295.06 C674.12,321.13 674.12,336.12 674.12,363.1" fill="none" id="instrument-listing" style="stroke:#181818;stroke-width:1;stroke-dasharray:7,7;"/><line style="stroke:#181818;stroke-width:1;" x1="670.12" x2="678.12" y1="291.06" y2="291.06"/><line style="stroke:#181818;stroke-width:1;" x1="670.12" x2="678.12" y1="294.06" y2="294.06"/><line style="stroke:#181818;stroke-width:1;" x1="674.12" x2="674.12" y1="295.06" y2="287.06"/><line style="stroke:#181818;stroke-width:1;" x1="674.12" x2="680.12" y1="363.1" y2="371.1"/><line style="stroke:#181818;stroke-width:1;" x1="674.12" x2="668.12" y1="363.1" y2="371.1"/><line style="stroke:#181818;stroke-width:1;" x1="674.12" x2="674.12" y1="363.1" y2="371.1"/><line style="stroke:#181818;stroke-width:1;" x1="678.12" x2="670.12" y1="361.1" y2="361.1"/></g><!--link currency to listing--><g class="link" data-entity-1="ent0006" data-entity-2="ent0005" data-link-type="crowfoot" data-source-line="50" id="lnk10"><path codeLine="50" d="M974.81,294.84 C871.44,294.84 730.77,294.84 730.77,294.84 C730.77,294.84 730.77,325.98 730.77,363.12" fill="none" id="currency-listing" style="stroke:#181818;stroke-width:1;stroke-dasharray:7,7;"/><line style="stroke:#181818;stroke-width:1;" x1="978.81" x2="978.81" y1="290.84" y2="298.84"/><line style="stroke:#181818;stroke-width:1;" x1="975.81" x2="975.81" y1="290.84" y2="298.84"/><line style="stroke:#181818;stroke-width:1;" x1="974.81" x2="982.81" y1="294.84" y2="294.84"/><line style="stroke:#181818;stroke-width:1;" x1="730.77" x2="736.77" y1="363.12" y2="371.12"/><line style="stroke:#181818;stroke-width:1;" x1="730.77" x2="724.77" y1="363.12" y2="371.12"/><line style="stroke:#181818;stroke-width:1;" x1="730.77" x2="730.77" y1="363.12" y2="371.12"/><line style="stroke:#181818;stroke-width:1;" x1="734.77" x2="726.77" y1="361.12" y2="361.12"/></g><?plantuml-src VLFRJkCm47tFLunuAgkcsb89hIg4XA15NPOkq2BnLXd7RQtw4jcEHA18V0kVjb-ohkqq9X0U4ldCZ8_F6O_rXeeSASI1KK5CcHEGognbaX1Xg2dXu5mMmgZo0906xDVmaW3y2621PKPW2FFHmnnEJcwkJazjDart9GBnAfMyrfJNI6s8SOpSBJsXNozePhTCflFHvUYkISWfRfntV-lIXk8DKOjSaILzgeviADXL6HR15WlZgq39oRCKNncO26rKmIrq9kWUUYCr_iuCrLJ4FheW2iRG8oEkfY4z9dNNz5dL7weD5IidYVcrrnF0jvrjrnpQqN8zLLQN_56ok9CsYWkbYC2btnItDv9z7ehyX0KGHkoh_QqJvYuq8uC6FefnHUZbHfcCOCeHMsHqHOskBUwKLcE_tVPwsvSmiqaOtH0CFKwYMMXazjOQyKH8Gq3HrTg0N5Plp6gQpFx2e7zydFO1iNoDqYCRxDpFkZ2ot_Yk2xzlka0CxXtQPcQmusco1Qq05mLYgRiTNMf3-D36_hszG_MYXkwu_i_1hm5q7gPdiyDGyE5b3U5IofLzGsCgaC04EhRoukosNK3T3-TeCjrFEIobiZ7x9q-0x7Qiojp8cka_?></g></svg>