<?plantuml 1.2026.1?><svg xmlns="http://www.w3.org/2000/svg" xmlns:xlink="http://www.w3.org/1999/xlink" contentStyleType="text/css" data-diagram-type="CLASS" height="525px" preserveAspectRatio="none" style="width:1184px;height:525px;background:#FFFFFF;" version="1.1" viewBox="0 0 1184 525" width="1184px" zoomAndPan="magnify"><defs/><g><!--class country--><g class="entity" data-qualified-name="country" data-source-line="3" id="ent0002"><rect fill="#F1F1F1" height="80.9766" rx="2.5" ry="2.5" style="stroke:#181818;stroke-width:0.5;" width="200.1318" x="7.06" y="7"/><ellipse cx="75.9047" cy="23" fill="#ADD1B2" rx="11" ry="11" style="stroke:#181818;stroke-width:1;"/><path d="M79.519,29.5 L71.7993,29.5 L71.7993,17.1069 L79.519,17.1069 L79.519,19.2651 L74.248,19.2651 L74.248,21.938 L79.0209,21.938 L79.0209,24.0962 L74.248,24.0962 L74.248,27.3418 L79.519,27.3418 Z " fill="#000000"/><text fill="#000000" font-family="sans-serif" font-size="14" lengthAdjust="spacing" textLength="53.9424" x="96.4047" y="28.291">Country</text><line style="stroke:#181818;stroke-width:0.5;" x1="8.06" x2="206.1918" y1="39" y2="39"/><g data-visibility-modifier="IE_MANDATORY"><ellipse cx="18.06" cy="52.7441" fill="#000000" rx="3" ry="3" style="stroke:#000000;stroke-width:1;"/></g><text fill="#000000" font-family="sans-serif" font-size="14" lengthAdjust="spacing" textLength="174.1318" x="27.06" y="56.5352">country_code : TEXT &#171;PK&#187;</text><line style="stroke:#181818;stroke-width:1;" x1="8.06" x2="206.1918" y1="63.4883" y2="63.4883"/><g data-visibility-modifier="IE_MANDATORY"><ellipse cx="18.06" cy="77.2324" fill="#000000" rx="3" ry="3" style="stroke:#000000;stroke-width:1;"/></g><text fill="#000000" font-family="sans-serif" font-size="14" lengthAdjust="spacing" textLength="84.6357" x="27.06" y="81.0234">name : TEXT</text></g><!--class market--><g class="entity" data-qualified-name="market" data-source-line="9" id="ent0003"><rect fill="#F1F1F1" height="163.418" rx="2.5" ry="2.5" style="stroke:#181818;stroke-width:0.5;" width="200.248" x="7" y="147.97"/><ellipse cx="79.5054" cy="163.97" fill="#ADD1B2" rx="11" ry="11" style="stroke:#181818;stroke-width:1;"/><path d="M83.1196,170.47 L75.3999,170.47 L75.3999,158.0769 L83.1196,158.0769 L83.1196,160.2351 L77.8486,160.2351 L77.8486,162.908 L82.6216,162.908 L82.6216,165.0662 L77.8486,165.0662 L77.8486,168.3118 L83.1196,168.3118 Z " fill="#000000"/><text fill="#000000" font-family="sans-serif" font-size="14" lengthAdjust="spacing" textLength="46.7373" x="100.0054" y="169.261">Market</text><line style="stroke:#181818;stroke-width:0.5;" x1="8" x2="206.248" y1="179.97" y2="179.97"/><g data-visibility-modifier="IE_MANDATORY"><ellipse cx="18" cy="193.7141" fill="#000000" rx="3" ry="3" style="stroke:#000000;stroke-width:1;"/></g><text fill="#000000" font-family="sans-serif" font-size="14" lengthAdjust="spacing" textLength="174.248" x="27" y="197.5052">market_id : INTEGER &#171;PK&#187;</text><line style="stroke:#181818;stroke-width:1;" x1="8" x2="206.248" y1="204.4583" y2="204.4583"/><g data-visibility-modifier="IE_MANDATORY"><ellipse cx="18" cy="218.2024" fill="#000000" rx="3" ry="3" style="stroke:#000000;stroke-width:1;"/></g><text fill="#000000" font-family="sans-serif" font-size="14" lengthAdjust="spacing" textLength="150.6914" x="27" y="221.9934">mic_code : TEXT &#171;UQ&#187;</text><text fill="#000000" font-family="sans-serif" font-size="14" lengthAdjust="spacing" textLength="132.6309" x="27" y="238.4817">ticker_prefix : TEXT</text><g data-visibility-modifier="IE_MANDATORY"><ellipse cx="18" cy="251.179" fill="#000000" rx="3" ry="3" style="stroke:#000000;stroke-width:1;"/></g><text fill="#000000" font-family="sans-serif" font-size="14" lengthAdjust="spacing" textLength="84.6357" x="27" y="254.97">name : TEXT</text><text fill="#000000" font-family="sans-serif" font-size="14" lengthAdjust="spacing" textLength="73.7119" x="27" y="271.4583">title : TEXT</text><g data-visibility-modifier="IE_MANDATORY"><ellipse cx="18" cy="284.1555" fill="#000000" rx="3" ry="3" style="stroke:#000000;stroke-width:1;"/></g><text fill="#000000" font-family="sans-serif" font-size="14" lengthAdjust="spacing" textLength="173.8994" x="27" y="287.9466">country_code : TEXT &#171;FK&#187;</text><text fill="#000000" font-family="sans-serif" font-size="14" lengthAdjust="spacing" textLength="110.6123" x="27" y="304.4348">timezone : TEXT</text></g><!--class instrument--><g class="entity" data-qualified-name="instrument" data-source-line="20" id="ent0004"><rect fill="#F1F1F1" height="113.9531" rx="2.5" ry="2.5" style="stroke:#181818;stroke-width:0.5;" width="226.8193" x="560.71" y="172.7"/><ellipse cx="632.7163" cy="188.7" fill="#ADD1B2" rx="11" ry="11" style="stroke:#181818;stroke-width:1;"/><path d="M636.3306,195.2 L628.6109,195.2 L628.6109,182.8069 L636.3306,182.8069 L636.3306,184.9651 L631.0596,184.9651 L631.0596,187.638 L635.8326,187.638 L635.8326,189.7962 L631.0596,189.7962 L631.0596,193.0418 L636.3306,193.0418 Z " fill="#000000"/><text fill="#000000" font-family="sans-serif" font-size="14" lengthAdjust="spacing" textLength="74.3066" x="653.2163" y="193.991">Instrument</text><line style="stroke:#181818;stroke-width:0.5;" x1="561.71" x2="786.5293" y1="204.7" y2="204.7"/><g data-visibility-modifier="IE_MANDATORY"><ellipse cx="571.71" cy="218.4441" fill="#000000" rx="3" ry="3" style="stroke:#000000;stroke-width:1;"/></g><text fill="#000000" font-family="sans-serif" font-size="14" lengthAdjust="spacing" textLength="200.8193" x="580.71" y="222.2352">instrument_id : INTEGER &#171;PK&#187;</text><line style="stroke:#181818;stroke-width:1;" x1="561.71" x2="786.5293" y1="229.1883" y2="229.1883"/><text fill="#000000" font-family="sans-serif" font-size="14" lengthAdjust="spacing" textLength="173.6602" x="580.71" y="246.7234">isin : TEXT &#171;UQ, nullable&#187;</text><g data-visibility-modifier="IE_MANDATORY"><ellipse cx="571.71" cy="259.4207" fill="#000000" rx="3" ry="3" style="stroke:#000000;stroke-width:1;"/></g><text fill="#000000" font-family="sans-serif" font-size="14" lengthAdjust="spacing" textLength="84.6357" x="580.71" y="263.2117">name : TEXT</text><g data-visibility-modifier="IE_MANDATORY"><ellipse cx="571.71" cy="275.909" fill="#000000" rx="3" ry="3" style="stroke:#000000;stroke-width:1;"/></g><text fill="#000000" font-family="sans-serif" font-size="14" lengthAdjust="spacing" textLength="157.8281" x="580.71" y="279.7">instrument_type : TEXT</text></g><!--class listing--><g class="entity" data-qualified-name="listing" data-source-line="28" id="ent0005"><rect fill="#F1F1F1" height="146.9297" rx="2.5" ry="2.5" style="stroke:#181818;stroke-width:0.5;" width="226.5869" x="560.83" y="371.39"/><ellipse cx="647.1987" cy="387.39" fill="#ADD1B2" rx="11" ry="11" style="stroke:#181818;stroke-width:1;"/><path d="M650.8129,393.89 L643.0932,393.89 L643.0932,381.4969 L650.8129,381.4969 L650.8129,383.6551 L645.5419,383.6551 L645.5419,386.328 L650.3149,386.328 L650.3149,388.4862 L645.5419,388.4862 L645.5419,391.7318 L650.8129,391.7318 Z " fill="#000000"/><text fill="#000000" font-family="sans-serif" font-size="14" lengthAdjust="spacing" textLength="45.3496" x="667.6987" y="392.681">Listing</text><line style="stroke:#181818;stroke-width:0.5;" x1="561.83" x2="786.4169" y1="403.39" y2="403.39"/><g data-visibility-modifier="IE_MANDATORY"><ellipse cx="571.83" cy="417.1341" fill="#000000" rx="3" ry="3" style="stroke:#000000;stroke-width:1;"/></g><text fill="#000000" font-family="sans-serif" font-size="14" lengthAdjust="spacing" textLength="168.4307" x="580.83" y="420.9252">listing_id : INTEGER &#171;PK&#187;</text><line style="stroke:#181818;stroke-width:1;" x1="561.83" x2="786.4169" y1="427.8783" y2="427.8783"/><g data-visibility-modifier="IE_MANDATORY"><ellipse cx="571.83" cy="441.6224" fill="#000000" rx="3" ry="3" style="stroke:#000000;stroke-width:1;"/></g><text fill="#000000" font-family="sans-serif" font-size="14" lengthAdjust="spacing" textLength="200.5869" x="580.83" y="445.4134">instrument_id : INTEGER &#171;FK&#187;</text><g data-visibility-modifier="IE_MANDATORY"><ellipse cx="571.83" cy="458.1107" fill="#000000" rx="3" ry="3" style="stroke:#000000;stroke-width:1;"/></g><text fill="#000000" font-family="sans-serif" font-size="14" lengthAdjust="spacing" textLength="174.0156" x="580.83" y="461.9017">market_id : INTEGER &#171;FK&#187;</text><g data-visibility-modifier="IE_MANDATORY"><ellipse cx="571.83" cy="474.599" fill="#000000" rx="3" ry="3" style="stroke:#000000;stroke-width:1;"/></g><text fill="#000000" font-family="sans-serif" font-size="14" lengthAdjust="spacing" textLength="135.707" x="580.83" y="478.39">symbol_code : TEXT</text><text fill="#000000" font-family="sans-serif" font-size="14" lengthAdjust="spacing" textLength="140.4102" x="580.83" y="494.8783">display_ticker : TEXT</text><text fill="#000000" font-family="sans-serif" font-size="14" lengthAdjust="spacing" textLength="161.2393" x="580.83" y="511.3666">currency_id : TEXT &#171;FK&#187;</text></g><!--class currency--><g class="entity" data-qualified-name="currency" data-source-line="38" id="ent0006"><rect fill="#F1F1F1" height="146.9297" rx="2.5" ry="2.5" style="stroke:#181818;stroke-width:0.5;" width="194.3486" x="982.95" y="156.22"/><ellipse cx="1045.4715" cy="172.22" fill="#ADD1B2" rx="11" ry="11" style="stroke:#181818;stroke-width:1;"/><path d="M1049.0857,178.72 L1041.366,178.72 L1041.366,166.3269 L1049.0857,166.3269 L1049.0857,168.4851 L1043.8147,168.4851 L1043.8147,171.158 L1048.5877,171.158 L1048.5877,173.3162 L1043.8147,173.3162 L1043.8147,176.5618 L1049.0857,176.5618 Z " fill="#000000"/><text fill="#000000" font-family="sans-serif" font-size="14" lengthAdjust="spacing" textLength="60.8057" x="1065.9715" y="177.511">Currency</text><line style="stroke:#181818;stroke-width:0.5;" x1="983.95" x2="1176.2986" y1="188.22" y2="188.22"/><g data-visibility-modifier="IE_MANDATORY"><ellipse cx="993.95" cy="201.9641" fill="#000000" rx="3" ry="3" style="stroke:#000000;stroke-width:1;"/></g><text fill="#000000" font-family="sans-serif" font-size="14" lengthAdjust="spacing" textLength="161.4717" x="1002.95" y="205.7552">currency_id : TEXT &#171;PK&#187;</text><line style="stroke:#181818;stroke-width:1;" x1="983.95" x2="1176.2986" y1="212.7083" y2="212.7083"/><g data-visibility-modifier="IE_MANDATORY"><ellipse cx="993.95" cy="226.4524" fill="#000000" rx="3" ry="3" style="stroke:#000000;stroke-width:1;"/></g><text fill="#000000" font-family="sans-serif" font-size="14" lengthAdjust="spacing" textLength="84.6357" x="1002.95" y="230.2434">name : TEXT</text><g data-visibility-modifier="IE_MANDATORY"><ellipse cx="993.95" cy="242.9407" fill="#000000" rx="3" ry="3" style="stroke:#000000;stroke-width:1;"/></g><text fill="#000000" font-family="sans-serif" font-size="14" lengthAdjust="spacing" textLength="88.5801" x="1002.95" y="246.7317">code3 : TEXT</text><g data-visibility-modifier="IE_MANDATORY"><ellipse cx="993.95" cy="259.429" fill="#000000" rx="3" ry="3" style="stroke:#000000;stroke-width:1;"/></g><text fill="#000000" font-family="sans-serif" font-size="14" lengthAdjust="spacing" textLength="88.5801" x="1002.95" y="263.22">code2 : TEXT</text><g data-visibility-modifier="IE_MANDATORY"><ellipse cx="993.95" cy="275.9173" fill="#000000" rx="3" ry="3" style="stroke:#000000;stroke-width:1;"/></g><text fill="#000000" font-family="sans-serif" font-size="14" lengthAdjust="spacing" textLength="161.6152" x="1002.95" y="279.7083">currency_symbol : TEXT</text><g data-visibility-modifier="IE_MANDATORY"><ellipse cx="993.95" cy="292.4055" fill="#000000" rx="3" ry="3" style="stroke:#000000;stroke-width:1;"/></g><text fill="#000000" font-family="sans-serif" font-size="14" lengthAdjust="spacing" textLength="168.3486" x="1002.95" y="296.1966">decimal_digits : INTEGER</text></g><g class="entity" data-qualified-name="GMN11" data-source-line="54" id="ent0012"><path d="M241.72,27.17 L241.72,43.32 L207.64,47.32 L241.72,51.32 L241.72,67.7911 A0,0 0 0 0 241.72,67.7911 L390.5237,67.7911 A0,0 0 0 0 390.5237,67.7911 L390.5237,37.17 L380.5237,27.17 L241.72,27.17 A0,0 0 0 0 241.72,27.17" fill="#FEFFDD" style="stroke:#181818;stroke-width:0.5;"/><path d="M380.5237,27.17 L380.5237,37.17 L390.5237,37.17 L380.5237,27.17" fill="#FEFFDD" style="stroke:#181818;stroke-width:0.5;"/><text fill="#000000" font-family="sans-serif" font-size="13" lengthAdjust="spacing" textLength="127.8037" x="247.72" y="44.7384">ISO 3166-1 alpha-2</text><text fill="#000000" font-family="sans-serif" font-size="13" lengthAdjust="spacing" textLength="120.7134" x="247.72" y="60.0489">(US, ES, FR, JP, etc.)</text></g><g class="entity" data-qualified-name="GMN14" data-source-line="59" id="ent0015"><path d="M242.48,201.72 L242.48,225.32 L207.52,229.32 L242.48,233.32 L242.48,257.6516 A0,0 0 0 0 242.48,257.6516 L525.7779,257.6516 A0,0 0 0 0 525.7779,257.6516 L525.7779,211.72 L515.7779,201.72 L242.48,201.72 A0,0 0 0 0 242.48,201.72" fill="#FEFFDD" style="stroke:#181818;stroke-width:0.5;"/><path d="M515.7779,201.72 L515.7779,211.72 L525.7779,211.72 L515.7779,201.72" fill="#FEFFDD" style="stroke:#181818;stroke-width:0.5;"/><text fill="#000000" font-family="sans-serif" font-size="13" lengthAdjust="spacing" textLength="118.8472" x="248.48" y="219.2884">Dual-code system:</text><text fill="#000000" font-family="sans-serif" font-size="13" lengthAdjust="spacing" textLength="191.0898" x="248.48" y="234.5989">&#8226; mic_code: ISO 10383 (XNAS)</text><text fill="#000000" font-family="sans-serif" font-size="13" lengthAdjust="spacing" textLength="262.2979" x="248.48" y="249.9095">&#8226; ticker_prefix: Google Finance (NASDAQ)</text></g><g class="entity" data-qualified-name="GMN17" data-source-line="65" id="ent0018"><path d="M822.25,209.37 L822.25,225.32 L787.96,229.32 L822.25,233.32 L822.25,249.9911 A0,0 0 0 0 822.25,249.9911 L948.0054,249.9911 A0,0 0 0 0 948.0054,249.9911 L948.0054,219.37 L938.0054,209.37 L822.25,209.37 A0,0 0 0 0 822.25,209.37" fill="#FEFFDD" style="stroke:#181818;stroke-width:0.5;"/><path d="M938.0054,209.37 L938.0054,219.37 L948.0054,219.37 L938.0054,209.37" fill="#FEFFDD" style="stroke:#181818;stroke-width:0.5;"/><text fill="#000000" font-family="sans-serif" font-size="13" lengthAdjust="spacing" textLength="100.4199" x="828.25" y="226.9384">ISIN nullable for</text><text fill="#000000" font-family="sans-serif" font-size="13" lengthAdjust="spacing" textLength="104.7554" x="828.25" y="242.2489">forex and crypto</text></g><!--link country to market--><g class="link" data-entity-1="ent0002" data-entity-2="ent0003" data-link-type="crowfoot" data-source-line="48" id="lnk7"><path codeLine="48" d="M107.12,96.37 C107.12,113.89 107.12,119.02 107.12,139.53" fill="none" id="country-market" style="stroke:#181818;stroke-width:1;stroke-dasharray:7,7;"/><line style="stroke:#181818;stroke-width:1;" x1="103.12" x2="111.12" y1="92.37" y2="92.37"/><line style="stroke:#181818;stroke-width:1;" x1="103.12" x2="111.12" y1="95.37" y2="95.37"/><line style="stroke:#181818;stroke-width:1;" x1="107.12" x2="107.12" y1="96.37" y2="88.37"/><line style="stroke:#181818;stroke-width:1;" x1="107.12" x2="113.12" y1="139.53" y2="147.53"/><line style="stroke:#181818;stroke-width:1;" x1="107.12" x2="101.12" y1="139.53" y2="147.53"/><line style="stroke:#181818;stroke-width:1;" x1="107.12" x2="107.12" y1="139.53" y2="147.53"/><line style="stroke:#181818;stroke-width:1;" x1="111.12" x2="103.12" y1="137.53" y2="137.53"/></g><!--link market to listing--><g class="link" data-entity-1="ent0003" data-entity-2="ent0005" data-link-type="crowfoot" data-source-line="49" id="lnk8"><path codeLine="49" d="M215.65,307.32 C364.33,307.32 617.48,307.32 617.48,307.32 C617.48,307.32 617.48,330.56 617.48,363.26" fill="none" id="market-listing" style="stroke:#181818;stroke-width:1;stroke-dasharray:7,7;"/><line style="stroke:#181818;stroke-width:1;" x1="211.65" x2="211.65" y1="311.32" y2="303.32"/><line style="stroke:#181818;stroke-width:1;" x1="214.65" x2="214.65" y1="311.32" y2="303.32"/><line style="stroke:#181818;stroke-width:1;" x1="215.65" x2="207.65" y1="307.32" y2="307.32"/><line style="stroke:#181818;stroke-width:1;" x1="617.48" x2="623.48" y1="363.26" y2="371.26"/><line style="stroke:#181818;stroke-width:1;" x1="617.48" x2="611.48" y1="363.26" y2="371.26"/><line style="stroke:#181818;stroke-width:1;" x1="617.48" x2="617.48" y1="363.26" y2="371.26"/><line style="stroke:#181818;stroke-width:1;" x1="621.48" x2="613.48" y1="361.26" y2="361.26"/></g><!--link instrument to listing--><g class="link" data-entity-1="ent0004" data-entity-2="ent0005" data-link-type="crowfoot" data-source-line="50" id="lnk9"><path codeLine="50" d="M674.12,295.06 C674.12,320.83 674.12,335.56 674.12,363.02" fill="none" id="instrument-listing" style="stroke:#181818;stroke-width:1;stroke-dasharray:7,7;"/><line style="stroke:#181818;stroke-width:1;" x1="670.12" x2="678.12" y1="291.06" y2="291.06"/><line style="stroke:#181818;stroke-width:1;" x1="670.12" x2="678.12" y1="294.06" y2="294.06"/><line style="stroke:#181818;stroke-width:1;" x1="674.12" x2="674.12" y1="295.06" y2="287.06"/><line style="stroke:#181818;stroke-width:1;" x1="674.12" x2="680.12" y1="363.02" y2="371.02"/><line style="stroke:#181818;stroke-width:1;" x1="674.12" x2="668.12" y1="363.02" y2="371.02"/><line style="stroke:#181818;stroke-width:1;" x1="674.12" x2="674.12" y1="363.02" y2="371.02"/><line style="stroke:#181818;stroke-width:1;" x1="678.12" x2="670.12" y1="361.02" y2="361.02"/></g><!--link currency to listing--><g class="link" data-entity-1="ent0006" data-entity-2="ent0005" data-link-type="crowfoot" data-source-line="51" id="lnk10"><path codeLine="51" d="M974.81,295.32 C871.44,295.32 730.77,295.32 730.77,295.32 C730.77,295.32 730.77,325.29 730.77,362.96" fill="none" id="currency-listing" style="stroke:#181818;stroke-width:1;stroke-dasharray:7,7;"/><line style="stroke:#181818;stroke-width:1;" x1="978.81" x2="978.81" y1="291.32" y2="299.32"/><line style="stroke:#181818;stroke-width:1;" x1="975.81" x2="975.81" y1="291.32" y2="299.32"/><line style="stroke:#181818;stroke-width:1;" x1="974.81" x2="982.81" y1="295.32" y2="295.32"/><line style="stroke:#181818;stroke-width:1;" x1="730.77" x2="736.77" y1="362.96" y2="370.96"/><line style="stroke:#181818;stroke-width:1;" x1="730.77" x2="724.77" y1="362.96" y2="370.96"/><line style="stroke:#181818;stroke-width:1;" x1="730.77" x2="730.77" y1="362.96" y2="370.96"/><line style="stroke:#181818;stroke-width:1;" x1="734.77" x2="726.77" y1="360.96" y2="360.96"/></g><?plantuml-src VLFRJjim6BxFK_pYganDjL89JHL2Gj2YZgq3MYJk8kEuhLKV8jkHo2ZIdcMFjYUPQpkD2OIBHFuF_lnz_q5lgIYGGXmO5SHK1G6fp4Oc2H66cWgEBcKfZAgE06d0_Wml2S2NO6HOvWJ6i9myBk7ixFRc_Dn6qtIV8X2lGybh0_aJgIqn3f6xemVqvupczifilfnSJ-xRW9pYrdiFToviADuIbHMAhEXp_MIBmJxBiCZia32z2P2S_9RY8m4peOqgkJMT27emlP36_amCrLJ4EleWIiRG4oCkfqKz1dLjUi_g1zM6YhMZnFpPymd6fvNjvXpAqT6UEgeh_YHPN4dhpQak6Aeotvt6ZqkbYC2L1ulB7icv34b-ye8HHk-Z-vsJvngTar7BFedj6j3BY28vmPGZbkLqJOrkfE-Prkkmsmq6kvSmoqaOwU0CjK-Y6Mb53j9Q_aH8Gq3HzSQ0NDMxPpdD5hzWD3mzJOU0MB51wObrzXuMVPZORthVX--tVI063uvjCNFOuxJH0bU0gnAnr7LDLzeGFhQ-Vt_-GhrfO_VSyElesmXwZ_EBnN58UBDnOxYMScrtQqe54fX0psPUNTnr4sZguHJDveVfXvLKrcV_v1cGlOvLLHZP8Fq7?></g></svg>