<?plantuml 1.2026.1?><svg xmlns="http://www.w3.org/2000/svg" xmlns:xlink="http://www.w3.org/1999/xlink" contentStyleType="text/css" data-diagram-type="CLASS" height="999px" preserveAspectRatio="none" style="width:3018px;height:999px;background:#FFFFFF;" version="1.1" viewBox="0 0 3018 999" width="3018px" zoomAndPan="magnify"><defs/><g><!--cluster Core Domain--><g class="cluster" data-qualified-name="Core Domain" data-source-line="6" id="ent0002"><path d="M8.5,6 L103.1934,6 A3.75,3.75 0 0 1 105.6934,8.5 L112.6934,28.4883 L615.5,28.4883 A2.5,2.5 0 0 1 618,30.9883 L618,960.73 A2.5,2.5 0 0 1 615.5,963.23 L8.5,963.23 A2.5,2.5 0 0 1 6,960.73 L6,8.5 A2.5,2.5 0 0 1 8.5,6" fill="none" style="stroke:#000000;stroke-width:1.5;"/><line style="stroke:#000000;stroke-width:1.5;" x1="6" x2="112.6934" y1="28.4883" y2="28.4883"/><text fill="#000000" font-family="sans-serif" font-size="14" font-weight="bold" lengthAdjust="spacing" textLength="93.6934" x="10" y="21.5352">Core Domain</text></g><!--cluster Metadata Classifications--><g class="cluster" data-qualified-name="Metadata Classifications" data-source-line="59" id="ent0008"><path d="M644.5,790.03 L821.7988,790.03 A3.75,3.75 0 0 1 824.2988,792.53 L831.2988,812.5183 L2767.5,812.5183 A2.5,2.5 0 0 1 2770,815.0183 L2770,936 A2.5,2.5 0 0 1 2767.5,938.5 L644.5,938.5 A2.5,2.5 0 0 1 642,936 L642,792.53 A2.5,2.5 0 0 1 644.5,790.03" fill="none" style="stroke:#000000;stroke-width:1.5;"/><line style="stroke:#000000;stroke-width:1.5;" x1="642" x2="831.2988" y1="812.5183" y2="812.5183"/><text fill="#000000" font-family="sans-serif" font-size="14" font-weight="bold" lengthAdjust="spacing" textLength="176.2988" x="646" y="805.5652">Metadata Classifications</text></g><!--class instrument--><g class="entity" data-qualified-name="Core Domain.instrument" data-source-line="7" id="ent0003"><rect fill="#F1F1F1" height="229.3711" rx="2.5" ry="2.5" style="stroke:#181818;stroke-width:0.5;" width="273.8438" x="22.08" y="445.4"/><ellipse cx="117.5986" cy="461.4" fill="#ADD1B2" rx="11" ry="11" style="stroke:#181818;stroke-width:1;"/><path d="M121.2128,467.9 L113.4931,467.9 L113.4931,455.5069 L121.2128,455.5069 L121.2128,457.6651 L115.9418,457.6651 L115.9418,460.338 L120.7148,460.338 L120.7148,462.4962 L115.9418,462.4962 L115.9418,465.7418 L121.2128,465.7418 Z " fill="#000000"/><text fill="#000000" font-family="sans-serif" font-size="14" lengthAdjust="spacing" textLength="74.3066" x="138.0986" y="466.691">Instrument</text><line style="stroke:#181818;stroke-width:0.5;" x1="23.08" x2="294.9238" y1="477.4" y2="477.4"/><g data-visibility-modifier="IE_MANDATORY"><ellipse cx="33.08" cy="491.1441" fill="#000000" rx="3" ry="3" style="stroke:#000000;stroke-width:1;"/></g><text fill="#000000" font-family="sans-serif" font-size="14" lengthAdjust="spacing" textLength="200.8193" x="42.08" y="494.9352">instrument_id : INTEGER &#171;PK&#187;</text><line style="stroke:#181818;stroke-width:1;" x1="23.08" x2="294.9238" y1="501.8883" y2="501.8883"/><text fill="#000000" font-family="sans-serif" font-size="14" lengthAdjust="spacing" textLength="173.6602" x="42.08" y="519.4234">isin : TEXT &#171;UQ, nullable&#187;</text><g data-visibility-modifier="IE_MANDATORY"><ellipse cx="33.08" cy="532.1207" fill="#000000" rx="3" ry="3" style="stroke:#000000;stroke-width:1;"/></g><text fill="#000000" font-family="sans-serif" font-size="14" lengthAdjust="spacing" textLength="84.6357" x="42.08" y="535.9117">name : TEXT</text><g data-visibility-modifier="IE_MANDATORY"><ellipse cx="33.08" cy="548.609" fill="#000000" rx="3" ry="3" style="stroke:#000000;stroke-width:1;"/></g><text fill="#000000" font-family="sans-serif" font-size="14" lengthAdjust="spacing" textLength="157.8281" x="42.08" y="552.4">instrument_type : TEXT</text><text fill="#000000" font-family="sans-serif" font-size="14" lengthAdjust="spacing" textLength="170.4473" x="42.08" y="568.8883">profile_id : INTEGER &#171;FK&#187;</text><text fill="#000000" font-family="sans-serif" font-size="14" lengthAdjust="spacing" textLength="189.3008" x="42.08" y="585.3766">risk_level_id : INTEGER &#171;FK&#187;</text><text fill="#000000" font-family="sans-serif" font-size="14" lengthAdjust="spacing" textLength="239.4697" x="42.08" y="601.8648">asset_class_level_id : INTEGER &#171;FK&#187;</text><text fill="#000000" font-family="sans-serif" font-size="14" lengthAdjust="spacing" textLength="204.7295" x="42.08" y="618.3531">market_cap_id : INTEGER &#171;FK&#187;</text><text fill="#000000" font-family="sans-serif" font-size="14" lengthAdjust="spacing" textLength="167.9385" x="42.08" y="634.8414">sector_id : INTEGER &#171;FK&#187;</text><text fill="#000000" font-family="sans-serif" font-size="14" lengthAdjust="spacing" textLength="213.5547" x="42.08" y="651.3297">sub_industry_id : INTEGER &#171;FK&#187;</text><text fill="#000000" font-family="sans-serif" font-size="14" lengthAdjust="spacing" textLength="247.8438" x="42.08" y="667.818">country_exposure_id : INTEGER &#171;FK&#187;</text></g><!--class listing--><g class="entity" data-qualified-name="Core Domain.listing" data-source-line="22" id="ent0004"><rect fill="#F1F1F1" height="130.4414" rx="2.5" ry="2.5" style="stroke:#181818;stroke-width:0.5;" width="226.5869" x="375.71" y="494.86"/><ellipse cx="462.0787" cy="510.86" fill="#ADD1B2" rx="11" ry="11" style="stroke:#181818;stroke-width:1;"/><path d="M465.6929,517.36 L457.9732,517.36 L457.9732,504.9669 L465.6929,504.9669 L465.6929,507.1251 L460.4219,507.1251 L460.4219,509.798 L465.1949,509.798 L465.1949,511.9562 L460.4219,511.9562 L460.4219,515.2018 L465.6929,515.2018 Z " fill="#000000"/><text fill="#000000" font-family="sans-serif" font-size="14" lengthAdjust="spacing" textLength="45.3496" x="482.5787" y="516.151">Listing</text><line style="stroke:#181818;stroke-width:0.5;" x1="376.71" x2="601.2969" y1="526.86" y2="526.86"/><g data-visibility-modifier="IE_MANDATORY"><ellipse cx="386.71" cy="540.6041" fill="#000000" rx="3" ry="3" style="stroke:#000000;stroke-width:1;"/></g><text fill="#000000" font-family="sans-serif" font-size="14" lengthAdjust="spacing" textLength="168.4307" x="395.71" y="544.3952">listing_id : INTEGER &#171;PK&#187;</text><line style="stroke:#181818;stroke-width:1;" x1="376.71" x2="601.2969" y1="551.3483" y2="551.3483"/><g data-visibility-modifier="IE_MANDATORY"><ellipse cx="386.71" cy="565.0924" fill="#000000" rx="3" ry="3" style="stroke:#000000;stroke-width:1;"/></g><text fill="#000000" font-family="sans-serif" font-size="14" lengthAdjust="spacing" textLength="200.5869" x="395.71" y="568.8834">instrument_id : INTEGER &#171;FK&#187;</text><g data-visibility-modifier="IE_MANDATORY"><ellipse cx="386.71" cy="581.5807" fill="#000000" rx="3" ry="3" style="stroke:#000000;stroke-width:1;"/></g><text fill="#000000" font-family="sans-serif" font-size="14" lengthAdjust="spacing" textLength="174.0156" x="395.71" y="585.3717">market_id : INTEGER &#171;FK&#187;</text><g data-visibility-modifier="IE_MANDATORY"><ellipse cx="386.71" cy="598.069" fill="#000000" rx="3" ry="3" style="stroke:#000000;stroke-width:1;"/></g><text fill="#000000" font-family="sans-serif" font-size="14" lengthAdjust="spacing" textLength="135.707" x="395.71" y="601.86">symbol_code : TEXT</text><text fill="#000000" font-family="sans-serif" font-size="14" lengthAdjust="spacing" textLength="161.2393" x="395.71" y="618.3483">currency_id : TEXT &#171;FK&#187;</text></g><!--class market--><g class="entity" data-qualified-name="Core Domain.market" data-source-line="31" id="ent0005"><rect fill="#F1F1F1" height="163.418" rx="2.5" ry="2.5" style="stroke:#181818;stroke-width:0.5;" width="200.248" x="388.88" y="201.98"/><ellipse cx="461.3854" cy="217.98" fill="#ADD1B2" rx="11" ry="11" style="stroke:#181818;stroke-width:1;"/><path d="M464.9996,224.48 L457.2799,224.48 L457.2799,212.0869 L464.9996,212.0869 L464.9996,214.2451 L459.7286,214.2451 L459.7286,216.918 L464.5016,216.918 L464.5016,219.0762 L459.7286,219.0762 L459.7286,222.3218 L464.9996,222.3218 Z " fill="#000000"/><text fill="#000000" font-family="sans-serif" font-size="14" lengthAdjust="spacing" textLength="46.7373" x="481.8854" y="223.271">Market</text><line style="stroke:#181818;stroke-width:0.5;" x1="389.88" x2="588.128" y1="233.98" y2="233.98"/><g data-visibility-modifier="IE_MANDATORY"><ellipse cx="399.88" cy="247.7241" fill="#000000" rx="3" ry="3" style="stroke:#000000;stroke-width:1;"/></g><text fill="#000000" font-family="sans-serif" font-size="14" lengthAdjust="spacing" textLength="174.248" x="408.88" y="251.5152">market_id : INTEGER &#171;PK&#187;</text><line style="stroke:#181818;stroke-width:1;" x1="389.88" x2="588.128" y1="258.4683" y2="258.4683"/><g data-visibility-modifier="IE_MANDATORY"><ellipse cx="399.88" cy="272.2124" fill="#000000" rx="3" ry="3" style="stroke:#000000;stroke-width:1;"/></g><text fill="#000000" font-family="sans-serif" font-size="14" lengthAdjust="spacing" textLength="150.6914" x="408.88" y="276.0034">mic_code : TEXT &#171;UQ&#187;</text><text fill="#000000" font-family="sans-serif" font-size="14" lengthAdjust="spacing" textLength="132.6309" x="408.88" y="292.4917">ticker_prefix : TEXT</text><g data-visibility-modifier="IE_MANDATORY"><ellipse cx="399.88" cy="305.189" fill="#000000" rx="3" ry="3" style="stroke:#000000;stroke-width:1;"/></g><text fill="#000000" font-family="sans-serif" font-size="14" lengthAdjust="spacing" textLength="84.6357" x="408.88" y="308.98">name : TEXT</text><text fill="#000000" font-family="sans-serif" font-size="14" lengthAdjust="spacing" textLength="73.7119" x="408.88" y="325.4683">title : TEXT</text><g data-visibility-modifier="IE_MANDATORY"><ellipse cx="399.88" cy="338.1655" fill="#000000" rx="3" ry="3" style="stroke:#000000;stroke-width:1;"/></g><text fill="#000000" font-family="sans-serif" font-size="14" lengthAdjust="spacing" textLength="173.8994" x="408.88" y="341.9566">country_code : TEXT &#171;FK&#187;</text><text fill="#000000" font-family="sans-serif" font-size="14" lengthAdjust="spacing" textLength="110.6123" x="408.88" y="358.4448">timezone : TEXT</text></g><!--class country--><g class="entity" data-qualified-name="Core Domain.country" data-source-line="42" id="ent0006"><rect fill="#F1F1F1" height="80.9766" rx="2.5" ry="2.5" style="stroke:#181818;stroke-width:0.5;" width="200.1318" x="388.93" y="41"/><ellipse cx="457.7747" cy="57" fill="#ADD1B2" rx="11" ry="11" style="stroke:#181818;stroke-width:1;"/><path d="M461.389,63.5 L453.6693,63.5 L453.6693,51.1069 L461.389,51.1069 L461.389,53.2651 L456.118,53.2651 L456.118,55.938 L460.8909,55.938 L460.8909,58.0962 L456.118,58.0962 L456.118,61.3418 L461.389,61.3418 Z " fill="#000000"/><text fill="#000000" font-family="sans-serif" font-size="14" lengthAdjust="spacing" textLength="53.9424" x="478.2747" y="62.291">Country</text><line style="stroke:#181818;stroke-width:0.5;" x1="389.93" x2="588.0618" y1="73" y2="73"/><g data-visibility-modifier="IE_MANDATORY"><ellipse cx="399.93" cy="86.7441" fill="#000000" rx="3" ry="3" style="stroke:#000000;stroke-width:1;"/></g><text fill="#000000" font-family="sans-serif" font-size="14" lengthAdjust="spacing" textLength="174.1318" x="408.93" y="90.5352">country_code : TEXT &#171;PK&#187;</text><line style="stroke:#181818;stroke-width:1;" x1="389.93" x2="588.0618" y1="97.4883" y2="97.4883"/><g data-visibility-modifier="IE_MANDATORY"><ellipse cx="399.93" cy="111.2324" fill="#000000" rx="3" ry="3" style="stroke:#000000;stroke-width:1;"/></g><text fill="#000000" font-family="sans-serif" font-size="14" lengthAdjust="spacing" textLength="84.6357" x="408.93" y="115.0234">name : TEXT</text></g><!--class currency--><g class="entity" data-qualified-name="Core Domain.currency" data-source-line="48" id="ent0007"><rect fill="#F1F1F1" height="146.9297" rx="2.5" ry="2.5" style="stroke:#181818;stroke-width:0.5;" width="194.3486" x="383.83" y="800.3"/><ellipse cx="446.3515" cy="816.3" fill="#ADD1B2" rx="11" ry="11" style="stroke:#181818;stroke-width:1;"/><path d="M449.9657,822.8 L442.246,822.8 L442.246,810.4069 L449.9657,810.4069 L449.9657,812.5651 L444.6947,812.5651 L444.6947,815.238 L449.4677,815.238 L449.4677,817.3962 L444.6947,817.3962 L444.6947,820.6418 L449.9657,820.6418 Z " fill="#000000"/><text fill="#000000" font-family="sans-serif" font-size="14" lengthAdjust="spacing" textLength="60.8057" x="466.8515" y="821.591">Currency</text><line style="stroke:#181818;stroke-width:0.5;" x1="384.83" x2="577.1786" y1="832.3" y2="832.3"/><g data-visibility-modifier="IE_MANDATORY"><ellipse cx="394.83" cy="846.0441" fill="#000000" rx="3" ry="3" style="stroke:#000000;stroke-width:1;"/></g><text fill="#000000" font-family="sans-serif" font-size="14" lengthAdjust="spacing" textLength="161.4717" x="403.83" y="849.8352">currency_id : TEXT &#171;PK&#187;</text><line style="stroke:#181818;stroke-width:1;" x1="384.83" x2="577.1786" y1="856.7883" y2="856.7883"/><g data-visibility-modifier="IE_MANDATORY"><ellipse cx="394.83" cy="870.5324" fill="#000000" rx="3" ry="3" style="stroke:#000000;stroke-width:1;"/></g><text fill="#000000" font-family="sans-serif" font-size="14" lengthAdjust="spacing" textLength="84.6357" x="403.83" y="874.3234">name : TEXT</text><g data-visibility-modifier="IE_MANDATORY"><ellipse cx="394.83" cy="887.0207" fill="#000000" rx="3" ry="3" style="stroke:#000000;stroke-width:1;"/></g><text fill="#000000" font-family="sans-serif" font-size="14" lengthAdjust="spacing" textLength="88.5801" x="403.83" y="890.8117">code3 : TEXT</text><g data-visibility-modifier="IE_MANDATORY"><ellipse cx="394.83" cy="903.509" fill="#000000" rx="3" ry="3" style="stroke:#000000;stroke-width:1;"/></g><text fill="#000000" font-family="sans-serif" font-size="14" lengthAdjust="spacing" textLength="88.5801" x="403.83" y="907.3">code2 : TEXT</text><g data-visibility-modifier="IE_MANDATORY"><ellipse cx="394.83" cy="919.9973" fill="#000000" rx="3" ry="3" style="stroke:#000000;stroke-width:1;"/></g><text fill="#000000" font-family="sans-serif" font-size="14" lengthAdjust="spacing" textLength="161.6152" x="403.83" y="923.7883">currency_symbol : TEXT</text><g data-visibility-modifier="IE_MANDATORY"><ellipse cx="394.83" cy="936.4855" fill="#000000" rx="3" ry="3" style="stroke:#000000;stroke-width:1;"/></g><text fill="#000000" font-family="sans-serif" font-size="14" lengthAdjust="spacing" textLength="168.3486" x="403.83" y="940.2766">decimal_digits : INTEGER</text></g><!--class profile--><g class="entity" data-qualified-name="Metadata Classifications.profile" data-source-line="60" id="ent0009"><rect fill="#F1F1F1" height="80.9766" rx="2.5" ry="2.5" style="stroke:#181818;stroke-width:0.5;" width="196.6797" x="1605.66" y="833.28"/><ellipse cx="1678.1961" cy="849.28" fill="#ADD1B2" rx="11" ry="11" style="stroke:#181818;stroke-width:1;"/><path d="M1681.8104,855.78 L1674.0907,855.78 L1674.0907,843.3869 L1681.8104,843.3869 L1681.8104,845.5451 L1676.5394,845.5451 L1676.5394,848.218 L1681.3123,848.218 L1681.3123,850.3762 L1676.5394,850.3762 L1676.5394,853.6218 L1681.8104,853.6218 Z " fill="#000000"/><text fill="#000000" font-family="sans-serif" font-size="14" lengthAdjust="spacing" textLength="43.1074" x="1698.6961" y="854.571">Profile</text><line style="stroke:#181818;stroke-width:0.5;" x1="1606.66" x2="1801.3397" y1="865.28" y2="865.28"/><g data-visibility-modifier="IE_MANDATORY"><ellipse cx="1616.66" cy="879.0241" fill="#000000" rx="3" ry="3" style="stroke:#000000;stroke-width:1;"/></g><text fill="#000000" font-family="sans-serif" font-size="14" lengthAdjust="spacing" textLength="170.6797" x="1625.66" y="882.8152">profile_id : INTEGER &#171;PK&#187;</text><line style="stroke:#181818;stroke-width:1;" x1="1606.66" x2="1801.3397" y1="889.7683" y2="889.7683"/><g data-visibility-modifier="IE_MANDATORY"><ellipse cx="1616.66" cy="903.5124" fill="#000000" rx="3" ry="3" style="stroke:#000000;stroke-width:1;"/></g><text fill="#000000" font-family="sans-serif" font-size="14" lengthAdjust="spacing" textLength="124.3115" x="1625.66" y="907.3034">name : TEXT &#171;UQ&#187;</text></g><!--class risk_level--><g class="entity" data-qualified-name="Metadata Classifications.risk_level" data-source-line="66" id="ent0010"><rect fill="#F1F1F1" height="97.4648" rx="2.5" ry="2.5" style="stroke:#181818;stroke-width:0.5;" width="215.5332" x="1882.23" y="825.03"/><ellipse cx="1954.4585" cy="841.03" fill="#ADD1B2" rx="11" ry="11" style="stroke:#181818;stroke-width:1;"/><path d="M1958.0728,847.53 L1950.353,847.53 L1950.353,835.1369 L1958.0728,835.1369 L1958.0728,837.2951 L1952.8018,837.2951 L1952.8018,839.968 L1957.5747,839.968 L1957.5747,842.1262 L1952.8018,842.1262 L1952.8018,845.3718 L1958.0728,845.3718 Z " fill="#000000"/><text fill="#000000" font-family="sans-serif" font-size="14" lengthAdjust="spacing" textLength="62.5762" x="1974.9585" y="846.321">RiskLevel</text><line style="stroke:#181818;stroke-width:0.5;" x1="1883.23" x2="2096.7632" y1="857.03" y2="857.03"/><g data-visibility-modifier="IE_MANDATORY"><ellipse cx="1893.23" cy="870.7741" fill="#000000" rx="3" ry="3" style="stroke:#000000;stroke-width:1;"/></g><text fill="#000000" font-family="sans-serif" font-size="14" lengthAdjust="spacing" textLength="189.5332" x="1902.23" y="874.5652">risk_level_id : INTEGER &#171;PK&#187;</text><line style="stroke:#181818;stroke-width:1;" x1="1883.23" x2="2096.7632" y1="881.5183" y2="881.5183"/><g data-visibility-modifier="IE_MANDATORY"><ellipse cx="1893.23" cy="895.2624" fill="#000000" rx="3" ry="3" style="stroke:#000000;stroke-width:1;"/></g><text fill="#000000" font-family="sans-serif" font-size="14" lengthAdjust="spacing" textLength="124.3115" x="1902.23" y="899.0534">name : TEXT &#171;UQ&#187;</text><g data-visibility-modifier="IE_MANDATORY"><ellipse cx="1893.23" cy="911.7507" fill="#000000" rx="3" ry="3" style="stroke:#000000;stroke-width:1;"/></g><text fill="#000000" font-family="sans-serif" font-size="14" lengthAdjust="spacing" textLength="115.9512" x="1902.23" y="915.5417">weight : INTEGER</text></g><!--class asset_class_level--><g class="entity" data-qualified-name="Metadata Classifications.asset_class_level" data-source-line="73" id="ent0011"><rect fill="#F1F1F1" height="97.4648" rx="2.5" ry="2.5" style="stroke:#181818;stroke-width:0.5;" width="265.7021" x="2178.15" y="825.03"/><ellipse cx="2253.2188" cy="841.03" fill="#ADD1B2" rx="11" ry="11" style="stroke:#181818;stroke-width:1;"/><path d="M2256.8331,847.53 L2249.1134,847.53 L2249.1134,835.1369 L2256.8331,835.1369 L2256.8331,837.2951 L2251.5621,837.2951 L2251.5621,839.968 L2256.3351,839.968 L2256.3351,842.1262 L2251.5621,842.1262 L2251.5621,845.3718 L2256.8331,845.3718 Z " fill="#000000"/><text fill="#000000" font-family="sans-serif" font-size="14" lengthAdjust="spacing" textLength="107.0645" x="2273.7188" y="846.321">AssetClassLevel</text><line style="stroke:#181818;stroke-width:0.5;" x1="2179.15" x2="2442.8521" y1="857.03" y2="857.03"/><g data-visibility-modifier="IE_MANDATORY"><ellipse cx="2189.15" cy="870.7741" fill="#000000" rx="3" ry="3" style="stroke:#000000;stroke-width:1;"/></g><text fill="#000000" font-family="sans-serif" font-size="14" lengthAdjust="spacing" textLength="239.7021" x="2198.15" y="874.5652">asset_class_level_id : INTEGER &#171;PK&#187;</text><line style="stroke:#181818;stroke-width:1;" x1="2179.15" x2="2442.8521" y1="881.5183" y2="881.5183"/><g data-visibility-modifier="IE_MANDATORY"><ellipse cx="2189.15" cy="895.2624" fill="#000000" rx="3" ry="3" style="stroke:#000000;stroke-width:1;"/></g><text fill="#000000" font-family="sans-serif" font-size="14" lengthAdjust="spacing" textLength="124.3115" x="2198.15" y="899.0534">name : TEXT &#171;UQ&#187;</text><text fill="#000000" font-family="sans-serif" font-size="14" lengthAdjust="spacing" textLength="123.4229" x="2198.15" y="915.5417">description : TEXT</text></g><!--class market_cap--><g class="entity" data-qualified-name="Metadata Classifications.market_cap" data-source-line="80" id="ent0012"><rect fill="#F1F1F1" height="80.9766" rx="2.5" ry="2.5" style="stroke:#181818;stroke-width:0.5;" width="230.9619" x="2523.52" y="833.28"/><ellipse cx="2598.2676" cy="849.28" fill="#ADD1B2" rx="11" ry="11" style="stroke:#181818;stroke-width:1;"/><path d="M2601.8818,855.78 L2594.1621,855.78 L2594.1621,843.3869 L2601.8818,843.3869 L2601.8818,845.5451 L2596.6108,845.5451 L2596.6108,848.218 L2601.3838,848.218 L2601.3838,850.3762 L2596.6108,850.3762 L2596.6108,853.6218 L2601.8818,853.6218 Z " fill="#000000"/><text fill="#000000" font-family="sans-serif" font-size="14" lengthAdjust="spacing" textLength="72.9668" x="2618.7676" y="854.571">MarketCap</text><line style="stroke:#181818;stroke-width:0.5;" x1="2524.52" x2="2753.4819" y1="865.28" y2="865.28"/><g data-visibility-modifier="IE_MANDATORY"><ellipse cx="2534.52" cy="879.0241" fill="#000000" rx="3" ry="3" style="stroke:#000000;stroke-width:1;"/></g><text fill="#000000" font-family="sans-serif" font-size="14" lengthAdjust="spacing" textLength="204.9619" x="2543.52" y="882.8152">market_cap_id : INTEGER &#171;PK&#187;</text><line style="stroke:#181818;stroke-width:1;" x1="2524.52" x2="2753.4819" y1="889.7683" y2="889.7683"/><g data-visibility-modifier="IE_MANDATORY"><ellipse cx="2534.52" cy="903.5124" fill="#000000" rx="3" ry="3" style="stroke:#000000;stroke-width:1;"/></g><text fill="#000000" font-family="sans-serif" font-size="14" lengthAdjust="spacing" textLength="124.3115" x="2543.52" y="907.3034">name : TEXT &#171;UQ&#187;</text></g><!--class sector--><g class="entity" data-qualified-name="Metadata Classifications.sector" data-source-line="86" id="ent0013"><rect fill="#F1F1F1" height="97.4648" rx="2.5" ry="2.5" style="stroke:#181818;stroke-width:0.5;" width="194.1709" x="657.91" y="825.03"/><ellipse cx="729.7079" cy="841.03" fill="#ADD1B2" rx="11" ry="11" style="stroke:#181818;stroke-width:1;"/><path d="M733.3221,847.53 L725.6024,847.53 L725.6024,835.1369 L733.3221,835.1369 L733.3221,837.2951 L728.0511,837.2951 L728.0511,839.968 L732.8241,839.968 L732.8241,842.1262 L728.0511,842.1262 L728.0511,845.3718 L733.3221,845.3718 Z " fill="#000000"/><text fill="#000000" font-family="sans-serif" font-size="14" lengthAdjust="spacing" textLength="42.0752" x="750.2079" y="846.321">Sector</text><line style="stroke:#181818;stroke-width:0.5;" x1="658.91" x2="851.0809" y1="857.03" y2="857.03"/><g data-visibility-modifier="IE_MANDATORY"><ellipse cx="668.91" cy="870.7741" fill="#000000" rx="3" ry="3" style="stroke:#000000;stroke-width:1;"/></g><text fill="#000000" font-family="sans-serif" font-size="14" lengthAdjust="spacing" textLength="168.1709" x="677.91" y="874.5652">sector_id : INTEGER &#171;PK&#187;</text><line style="stroke:#181818;stroke-width:1;" x1="658.91" x2="851.0809" y1="881.5183" y2="881.5183"/><g data-visibility-modifier="IE_MANDATORY"><ellipse cx="668.91" cy="895.2624" fill="#000000" rx="3" ry="3" style="stroke:#000000;stroke-width:1;"/></g><text fill="#000000" font-family="sans-serif" font-size="14" lengthAdjust="spacing" textLength="124.3115" x="677.91" y="899.0534">name : TEXT &#171;UQ&#187;</text><text fill="#000000" font-family="sans-serif" font-size="14" lengthAdjust="spacing" textLength="123.4229" x="677.91" y="915.5417">description : TEXT</text></g><!--class sub_industry--><g class="entity" data-qualified-name="Metadata Classifications.sub_industry" data-source-line="93" id="ent0014"><rect fill="#F1F1F1" height="97.4648" rx="2.5" ry="2.5" style="stroke:#181818;stroke-width:0.5;" width="239.7871" x="932.11" y="825.03"/><ellipse cx="1007.4147" cy="841.03" fill="#ADD1B2" rx="11" ry="11" style="stroke:#181818;stroke-width:1;"/><path d="M1011.0289,847.53 L1003.3092,847.53 L1003.3092,835.1369 L1011.0289,835.1369 L1011.0289,837.2951 L1005.7579,837.2951 L1005.7579,839.968 L1010.5309,839.968 L1010.5309,842.1262 L1005.7579,842.1262 L1005.7579,845.3718 L1011.0289,845.3718 Z " fill="#000000"/><text fill="#000000" font-family="sans-serif" font-size="14" lengthAdjust="spacing" textLength="80.6777" x="1027.9147" y="846.321">SubIndustry</text><line style="stroke:#181818;stroke-width:0.5;" x1="933.11" x2="1170.8971" y1="857.03" y2="857.03"/><g data-visibility-modifier="IE_MANDATORY"><ellipse cx="943.11" cy="870.7741" fill="#000000" rx="3" ry="3" style="stroke:#000000;stroke-width:1;"/></g><text fill="#000000" font-family="sans-serif" font-size="14" lengthAdjust="spacing" textLength="213.7871" x="952.11" y="874.5652">sub_industry_id : INTEGER &#171;PK&#187;</text><line style="stroke:#181818;stroke-width:1;" x1="933.11" x2="1170.8971" y1="881.5183" y2="881.5183"/><g data-visibility-modifier="IE_MANDATORY"><ellipse cx="943.11" cy="895.2624" fill="#000000" rx="3" ry="3" style="stroke:#000000;stroke-width:1;"/></g><text fill="#000000" font-family="sans-serif" font-size="14" lengthAdjust="spacing" textLength="124.3115" x="952.11" y="899.0534">name : TEXT &#171;UQ&#187;</text><text fill="#000000" font-family="sans-serif" font-size="14" lengthAdjust="spacing" textLength="123.4229" x="952.11" y="915.5417">description : TEXT</text></g><!--class country_exposure--><g class="entity" data-qualified-name="Metadata Classifications.country_exposure" data-source-line="100" id="ent0015"><rect fill="#F1F1F1" height="80.9766" rx="2.5" ry="2.5" style="stroke:#181818;stroke-width:0.5;" width="274.0762" x="1251.96" y="833.28"/><ellipse cx="1326.3077" cy="849.28" fill="#ADD1B2" rx="11" ry="11" style="stroke:#181818;stroke-width:1;"/><path d="M1329.9219,855.78 L1322.2022,855.78 L1322.2022,843.3869 L1329.9219,843.3869 L1329.9219,845.5451 L1324.6509,845.5451 L1324.6509,848.218 L1329.4239,848.218 L1329.4239,850.3762 L1324.6509,850.3762 L1324.6509,853.6218 L1329.9219,853.6218 Z " fill="#000000"/><text fill="#000000" font-family="sans-serif" font-size="14" lengthAdjust="spacing" textLength="116.8809" x="1346.8077" y="854.571">CountryExposure</text><line style="stroke:#181818;stroke-width:0.5;" x1="1252.96" x2="1525.0362" y1="865.28" y2="865.28"/><g data-visibility-modifier="IE_MANDATORY"><ellipse cx="1262.96" cy="879.0241" fill="#000000" rx="3" ry="3" style="stroke:#000000;stroke-width:1;"/></g><text fill="#000000" font-family="sans-serif" font-size="14" lengthAdjust="spacing" textLength="248.0762" x="1271.96" y="882.8152">country_exposure_id : INTEGER &#171;PK&#187;</text><line style="stroke:#181818;stroke-width:1;" x1="1252.96" x2="1525.0362" y1="889.7683" y2="889.7683"/><g data-visibility-modifier="IE_MANDATORY"><ellipse cx="1262.96" cy="903.5124" fill="#000000" rx="3" ry="3" style="stroke:#000000;stroke-width:1;"/></g><text fill="#000000" font-family="sans-serif" font-size="14" lengthAdjust="spacing" textLength="124.3115" x="1271.96" y="907.3034">name : TEXT &#171;UQ&#187;</text></g><!--class view_listings--><g class="entity" data-qualified-name="view_listings" data-source-line="107" id="ent0016"><rect fill="#F1F1F1" height="237.9922" rx="2.5" ry="2.5" style="stroke:#181818;stroke-width:0.5;" width="177.9561" x="2834.02" y="754.77"/><ellipse cx="2876.0235" cy="775.0805" fill="#ADD1B2" rx="11" ry="11" style="stroke:#181818;stroke-width:1;"/><path d="M2879.6378,781.5805 L2871.918,781.5805 L2871.918,769.1875 L2879.6378,769.1875 L2879.6378,771.3457 L2874.3668,771.3457 L2874.3668,774.0185 L2879.1397,774.0185 L2879.1397,776.1767 L2874.3668,776.1767 L2874.3668,779.4223 L2879.6378,779.4223 Z " fill="#000000"/><text fill="#000000" font-family="sans-serif" font-size="12" font-style="italic" lengthAdjust="spacing" textLength="38.1855" x="2919.9056" y="771.3716">&#171;view&#187;</text><text fill="#000000" font-family="sans-serif" font-size="14" lengthAdjust="spacing" textLength="85.9482" x="2896.0243" y="787.438">view_listings</text><line style="stroke:#181818;stroke-width:0.5;" x1="2835.02" x2="3010.9761" y1="795.3911" y2="795.3911"/><text fill="#000000" font-family="sans-serif" font-size="14" lengthAdjust="spacing" textLength="132.4531" x="2840.02" y="812.9263">listing_id : INTEGER</text><text fill="#000000" font-family="sans-serif" font-size="14" lengthAdjust="spacing" textLength="135.707" x="2840.02" y="829.4145">symbol_code : TEXT</text><text fill="#000000" font-family="sans-serif" font-size="14" lengthAdjust="spacing" textLength="165.9561" x="2840.02" y="845.9028">instrument_name : TEXT</text><text fill="#000000" font-family="sans-serif" font-size="14" lengthAdjust="spacing" textLength="157.8281" x="2840.02" y="862.3911">instrument_type : TEXT</text><text fill="#000000" font-family="sans-serif" font-size="14" lengthAdjust="spacing" textLength="139.3848" x="2840.02" y="878.8794">market_name : TEXT</text><text fill="#000000" font-family="sans-serif" font-size="14" lengthAdjust="spacing" textLength="126.3828" x="2840.02" y="895.3677">market_mic : TEXT</text><text fill="#000000" font-family="sans-serif" font-size="14" lengthAdjust="spacing" textLength="165.3613" x="2840.02" y="911.8559">market_timezone : TEXT</text><text fill="#000000" font-family="sans-serif" font-size="14" lengthAdjust="spacing" textLength="138.1543" x="2840.02" y="928.3442">country_code : TEXT</text><text fill="#000000" font-family="sans-serif" font-size="14" lengthAdjust="spacing" textLength="143.0625" x="2840.02" y="944.8325">country_name : TEXT</text><text fill="#000000" font-family="sans-serif" font-size="14" lengthAdjust="spacing" textLength="145.0176" x="2840.02" y="961.3208">currency_code : TEXT</text><text fill="#000000" font-family="sans-serif" font-size="14" lengthAdjust="spacing" textLength="161.6152" x="2840.02" y="977.8091">currency_symbol : TEXT</text><line style="stroke:#181818;stroke-width:0.5;" x1="2835.02" x2="3010.9761" y1="984.7622" y2="984.7622"/></g><g class="entity" data-qualified-name="GMN36" data-source-line="147" id="ent0037"><path d="M668.6,61.18 L668.6,77.76 L589.39,81.76 L668.6,85.76 L668.6,101.8011 A0,0 0 0 0 668.6,101.8011 L817.4037,101.8011 A0,0 0 0 0 817.4037,101.8011 L817.4037,71.18 L807.4037,61.18 L668.6,61.18 A0,0 0 0 0 668.6,61.18" fill="#FEFFDD" style="stroke:#181818;stroke-width:0.5;"/><path d="M807.4037,61.18 L807.4037,71.18 L817.4037,71.18 L807.4037,61.18" fill="#FEFFDD" style="stroke:#181818;stroke-width:0.5;"/><text fill="#000000" font-family="sans-serif" font-size="13" lengthAdjust="spacing" textLength="127.8037" x="674.6" y="78.7484">ISO 3166-1 alpha-2</text><text fill="#000000" font-family="sans-serif" font-size="13" lengthAdjust="spacing" textLength="120.7134" x="674.6" y="94.0589">(US, ES, FR, JP, etc.)</text></g><g class="entity" data-qualified-name="GMN39" data-source-line="152" id="ent0040"><path d="M669.35,255.72 L669.35,279.76 L589.56,283.76 L669.35,287.76 L669.35,311.6516 A0,0 0 0 0 669.35,311.6516 L952.6479,311.6516 A0,0 0 0 0 952.6479,311.6516 L952.6479,265.72 L942.6479,255.72 L669.35,255.72 A0,0 0 0 0 669.35,255.72" fill="#FEFFDD" style="stroke:#181818;stroke-width:0.5;"/><path d="M942.6479,255.72 L942.6479,265.72 L952.6479,265.72 L942.6479,255.72" fill="#FEFFDD" style="stroke:#181818;stroke-width:0.5;"/><text fill="#000000" font-family="sans-serif" font-size="13" lengthAdjust="spacing" textLength="118.8472" x="675.35" y="273.2884">Dual-code system:</text><text fill="#000000" font-family="sans-serif" font-size="13" lengthAdjust="spacing" textLength="191.0898" x="675.35" y="288.5989">&#8226; mic_code: ISO 10383 (XNAS)</text><text fill="#000000" font-family="sans-serif" font-size="13" lengthAdjust="spacing" textLength="262.2979" x="675.35" y="303.9095">&#8226; ticker_prefix: Google Finance (NASDAQ)</text></g><g class="entity" data-qualified-name="GMN42" data-source-line="158" id="ent0043"><path d="M682.12,539.77 L682.12,580.3911 L807.8754,580.3911 L807.8754,549.77 L797.8754,539.77 L682.12,539.77" fill="#FEFFDD" style="stroke:#181818;stroke-width:0.5;"/><path d="M797.8754,539.77 L797.8754,549.77 L807.8754,549.77 L797.8754,539.77" fill="#FEFFDD" style="stroke:#181818;stroke-width:1;"/><text fill="#000000" font-family="sans-serif" font-size="13" lengthAdjust="spacing" textLength="100.4199" x="688.12" y="557.3384">ISIN nullable for</text><text fill="#000000" font-family="sans-serif" font-size="13" lengthAdjust="spacing" textLength="104.7554" x="688.12" y="572.6489">forex and crypto</text></g><!--link country to market--><g class="link" data-entity-1="ent0006" data-entity-2="ent0005" data-link-type="crowfoot" data-source-line="122" id="lnk17"><path codeLine="122" d="M489,130.41 C489,153.26 489,166.55 489,193.89" fill="none" id="country-market" style="stroke:#181818;stroke-width:1;stroke-dasharray:7,7;"/><line style="stroke:#181818;stroke-width:1;" x1="485" x2="493" y1="126.41" y2="126.41"/><line style="stroke:#181818;stroke-width:1;" x1="485" x2="493" y1="129.41" y2="129.41"/><line style="stroke:#181818;stroke-width:1;" x1="489" x2="489" y1="130.41" y2="122.41"/><line style="stroke:#181818;stroke-width:1;" x1="489" x2="495" y1="193.89" y2="201.89"/><line style="stroke:#181818;stroke-width:1;" x1="489" x2="483" y1="193.89" y2="201.89"/><line style="stroke:#181818;stroke-width:1;" x1="489" x2="489" y1="193.89" y2="201.89"/><line style="stroke:#181818;stroke-width:1;" x1="493" x2="485" y1="191.89" y2="191.89"/></g><!--link market to listing--><g class="link" data-entity-1="ent0005" data-entity-2="ent0004" data-link-type="crowfoot" data-source-line="123" id="lnk18"><path codeLine="123" d="M489,373.87 C489,414.92 489,447.92 489,486.42" fill="none" id="market-listing" style="stroke:#181818;stroke-width:1;stroke-dasharray:7,7;"/><line style="stroke:#181818;stroke-width:1;" x1="485" x2="493" y1="369.87" y2="369.87"/><line style="stroke:#181818;stroke-width:1;" x1="485" x2="493" y1="372.87" y2="372.87"/><line style="stroke:#181818;stroke-width:1;" x1="489" x2="489" y1="373.87" y2="365.87"/><line style="stroke:#181818;stroke-width:1;" x1="489" x2="495" y1="486.42" y2="494.42"/><line style="stroke:#181818;stroke-width:1;" x1="489" x2="483" y1="486.42" y2="494.42"/><line style="stroke:#181818;stroke-width:1;" x1="489" x2="489" y1="486.42" y2="494.42"/><line style="stroke:#181818;stroke-width:1;" x1="493" x2="485" y1="484.42" y2="484.42"/></g><!--link instrument to listing--><g class="link" data-entity-1="ent0003" data-entity-2="ent0004" data-link-type="crowfoot" data-source-line="124" id="lnk19"><path codeLine="124" d="M304.08,559.76 C330.47,559.76 341.83,559.76 367.38,559.76" fill="none" id="instrument-listing" style="stroke:#181818;stroke-width:1;stroke-dasharray:7,7;"/><line style="stroke:#181818;stroke-width:1;" x1="300.08" x2="300.08" y1="563.76" y2="555.76"/><line style="stroke:#181818;stroke-width:1;" x1="303.08" x2="303.08" y1="563.76" y2="555.76"/><line style="stroke:#181818;stroke-width:1;" x1="304.08" x2="296.08" y1="559.76" y2="559.76"/><line style="stroke:#181818;stroke-width:1;" x1="367.38" x2="375.38" y1="559.76" y2="553.76"/><line style="stroke:#181818;stroke-width:1;" x1="367.38" x2="375.38" y1="559.76" y2="565.76"/><line style="stroke:#181818;stroke-width:1;" x1="367.38" x2="375.38" y1="559.76" y2="559.76"/><line style="stroke:#181818;stroke-width:1;" x1="365.38" x2="365.38" y1="555.76" y2="563.76"/></g><!--link listing to currency--><g class="link" data-entity-1="ent0004" data-entity-2="ent0007" data-link-type="crowfoot" data-source-line="125" id="lnk21"><path codeLine="125" d="M481,633.46 C481,684.36 481,739.02 481,791.96" fill="none" id="listing-currency" style="stroke:#181818;stroke-width:1;stroke-dasharray:7,7;"/><line style="stroke:#181818;stroke-width:1;" x1="481" x2="475" y1="633.46" y2="625.46"/><line style="stroke:#181818;stroke-width:1;" x1="481" x2="487" y1="633.46" y2="625.46"/><line style="stroke:#181818;stroke-width:1;" x1="481" x2="481" y1="633.46" y2="625.46"/><line style="stroke:#181818;stroke-width:1;" x1="477" x2="485" y1="635.46" y2="635.46"/><line style="stroke:#181818;stroke-width:1;" x1="485" x2="477" y1="795.96" y2="795.96"/><line style="stroke:#181818;stroke-width:1;" x1="485" x2="477" y1="792.96" y2="792.96"/><line style="stroke:#181818;stroke-width:1;" x1="481" x2="481" y1="791.96" y2="799.96"/></g><!--link listing to view_listings--><g class="link" data-entity-1="ent0004" data-entity-2="ent0016" data-link-type="dependency" data-source-line="127" id="lnk22"><path codeLine="127" d="M590.23,625.69 C590.23,689.78 590.23,777.76 590.23,777.76 C590.23,777.76 2400.28,777.76 2827.69,777.76" fill="none" id="listing-to-view_listings" style="stroke:#181818;stroke-width:1;stroke-dasharray:7,7;"/><polygon fill="#181818" points="2833.69,777.76,2824.69,773.76,2828.69,777.76,2824.69,781.76,2833.69,777.76" style="stroke:#181818;stroke-width:1;"/><text fill="#000000" font-family="sans-serif" font-size="13" lengthAdjust="spacing" textLength="50.832" x="1584.93" y="774.3284">projects</text></g><!--link instrument to profile--><g class="link" data-entity-1="ent0003" data-entity-2="ent0009" data-link-type="crowfoot" data-source-line="130" id="lnk23"><path codeLine="130" d="M314.11,649.76 C692.23,649.76 1704,649.76 1704,649.76 C1704,649.76 1704,760.33 1704,824.94" fill="none" id="instrument-profile" style="stroke:#181818;stroke-width:1;stroke-dasharray:7,7;"/><line style="stroke:#181818;stroke-width:1;" x1="304.11" x2="296.11" y1="649.76" y2="655.76"/><line style="stroke:#181818;stroke-width:1;" x1="304.11" x2="296.11" y1="649.76" y2="643.76"/><line style="stroke:#181818;stroke-width:1;" x1="304.11" x2="296.11" y1="649.76" y2="649.76"/><ellipse cx="310.11" cy="649.76" fill="none" rx="4" ry="4" style="stroke:#181818;stroke-width:1;"/><line style="stroke:#181818;stroke-width:1;" x1="1708" x2="1700" y1="828.94" y2="828.94"/><line style="stroke:#181818;stroke-width:1;" x1="1708" x2="1700" y1="825.94" y2="825.94"/><line style="stroke:#181818;stroke-width:1;" x1="1704" x2="1704" y1="824.94" y2="832.94"/></g><!--link instrument to risk_level--><g class="link" data-entity-1="ent0003" data-entity-2="ent0010" data-link-type="crowfoot" data-source-line="131" id="lnk24"><path codeLine="131" d="M314.25,643.76 C739.7,643.76 1990,643.76 1990,643.76 C1990,643.76 1990,749.15 1990,816.7" fill="none" id="instrument-risk_level" style="stroke:#181818;stroke-width:1;stroke-dasharray:7,7;"/><line style="stroke:#181818;stroke-width:1;" x1="304.25" x2="296.25" y1="643.76" y2="649.76"/><line style="stroke:#181818;stroke-width:1;" x1="304.25" x2="296.25" y1="643.76" y2="637.76"/><line style="stroke:#181818;stroke-width:1;" x1="304.25" x2="296.25" y1="643.76" y2="643.76"/><ellipse cx="310.25" cy="643.76" fill="none" rx="4" ry="4" style="stroke:#181818;stroke-width:1;"/><line style="stroke:#181818;stroke-width:1;" x1="1994" x2="1986" y1="820.7" y2="820.7"/><line style="stroke:#181818;stroke-width:1;" x1="1994" x2="1986" y1="817.7" y2="817.7"/><line style="stroke:#181818;stroke-width:1;" x1="1990" x2="1990" y1="816.7" y2="824.7"/></g><!--link instrument to asset_class_level--><g class="link" data-entity-1="ent0003" data-entity-2="ent0011" data-link-type="crowfoot" data-source-line="132" id="lnk25"><path codeLine="132" d="M314.07,637.76 C788.08,637.76 2311,637.76 2311,637.76 C2311,637.76 2311,747.41 2311,816.58" fill="none" id="instrument-asset_class_level" style="stroke:#181818;stroke-width:1;stroke-dasharray:7,7;"/><line style="stroke:#181818;stroke-width:1;" x1="304.07" x2="296.07" y1="637.76" y2="643.76"/><line style="stroke:#181818;stroke-width:1;" x1="304.07" x2="296.07" y1="637.76" y2="631.76"/><line style="stroke:#181818;stroke-width:1;" x1="304.07" x2="296.07" y1="637.76" y2="637.76"/><ellipse cx="310.07" cy="637.76" fill="none" rx="4" ry="4" style="stroke:#181818;stroke-width:1;"/><line style="stroke:#181818;stroke-width:1;" x1="2315" x2="2307" y1="820.58" y2="820.58"/><line style="stroke:#181818;stroke-width:1;" x1="2315" x2="2307" y1="817.58" y2="817.58"/><line style="stroke:#181818;stroke-width:1;" x1="2311" x2="2311" y1="816.58" y2="824.58"/></g><!--link instrument to market_cap--><g class="link" data-entity-1="ent0003" data-entity-2="ent0012" data-link-type="crowfoot" data-source-line="133" id="lnk26"><path codeLine="133" d="M314.19,631.76 C839.75,631.76 2677.49,631.76 2677.49,631.76 C2677.49,631.76 2677.49,756.02 2677.49,824.98" fill="none" id="instrument-market_cap" style="stroke:#181818;stroke-width:1;stroke-dasharray:7,7;"/><line style="stroke:#181818;stroke-width:1;" x1="304.19" x2="296.19" y1="631.76" y2="637.76"/><line style="stroke:#181818;stroke-width:1;" x1="304.19" x2="296.19" y1="631.76" y2="625.76"/><line style="stroke:#181818;stroke-width:1;" x1="304.19" x2="296.19" y1="631.76" y2="631.76"/><ellipse cx="310.19" cy="631.76" fill="none" rx="4" ry="4" style="stroke:#181818;stroke-width:1;"/><line style="stroke:#181818;stroke-width:1;" x1="2681.49" x2="2673.49" y1="828.98" y2="828.98"/><line style="stroke:#181818;stroke-width:1;" x1="2681.49" x2="2673.49" y1="825.98" y2="825.98"/><line style="stroke:#181818;stroke-width:1;" x1="2677.49" x2="2677.49" y1="824.98" y2="832.98"/></g><!--link instrument to sector--><g class="link" data-entity-1="ent0003" data-entity-2="ent0013" data-link-type="crowfoot" data-source-line="134" id="lnk27"><path codeLine="134" d="M314.12,668.76 C463.44,668.76 663.26,668.76 663.26,668.76 C663.26,668.76 663.26,756.01 663.26,816.66" fill="none" id="instrument-sector" style="stroke:#181818;stroke-width:1;stroke-dasharray:7,7;"/><line style="stroke:#181818;stroke-width:1;" x1="304.12" x2="296.12" y1="668.76" y2="674.76"/><line style="stroke:#181818;stroke-width:1;" x1="304.12" x2="296.12" y1="668.76" y2="662.76"/><line style="stroke:#181818;stroke-width:1;" x1="304.12" x2="296.12" y1="668.76" y2="668.76"/><ellipse cx="310.12" cy="668.76" fill="none" rx="4" ry="4" style="stroke:#181818;stroke-width:1;"/><line style="stroke:#181818;stroke-width:1;" x1="667.26" x2="659.26" y1="820.66" y2="820.66"/><line style="stroke:#181818;stroke-width:1;" x1="667.26" x2="659.26" y1="817.66" y2="817.66"/><line style="stroke:#181818;stroke-width:1;" x1="663.26" x2="663.26" y1="816.66" y2="824.66"/></g><!--link instrument to sub_industry--><g class="link" data-entity-1="ent0003" data-entity-2="ent0014" data-link-type="crowfoot" data-source-line="135" id="lnk28"><path codeLine="135" d="M314.35,662.76 C539.02,662.76 942.38,662.76 942.38,662.76 C942.38,662.76 942.38,754.21 942.38,816.56" fill="none" id="instrument-sub_industry" style="stroke:#181818;stroke-width:1;stroke-dasharray:7,7;"/><line style="stroke:#181818;stroke-width:1;" x1="304.35" x2="296.35" y1="662.76" y2="668.76"/><line style="stroke:#181818;stroke-width:1;" x1="304.35" x2="296.35" y1="662.76" y2="656.76"/><line style="stroke:#181818;stroke-width:1;" x1="304.35" x2="296.35" y1="662.76" y2="662.76"/><ellipse cx="310.35" cy="662.76" fill="none" rx="4" ry="4" style="stroke:#181818;stroke-width:1;"/><line style="stroke:#181818;stroke-width:1;" x1="946.38" x2="938.38" y1="820.56" y2="820.56"/><line style="stroke:#181818;stroke-width:1;" x1="946.38" x2="938.38" y1="817.56" y2="817.56"/><line style="stroke:#181818;stroke-width:1;" x1="942.38" x2="942.38" y1="816.56" y2="824.56"/></g><!--link instrument to country_exposure--><g class="link" data-entity-1="ent0003" data-entity-2="ent0015" data-link-type="crowfoot" data-source-line="136" id="lnk29"><path codeLine="136" d="M314.22,655.76 C635,655.76 1389,655.76 1389,655.76 C1389,655.76 1389,761.92 1389,825.01" fill="none" id="instrument-country_exposure" style="stroke:#181818;stroke-width:1;stroke-dasharray:7,7;"/><line style="stroke:#181818;stroke-width:1;" x1="304.22" x2="296.22" y1="655.76" y2="661.76"/><line style="stroke:#181818;stroke-width:1;" x1="304.22" x2="296.22" y1="655.76" y2="649.76"/><line style="stroke:#181818;stroke-width:1;" x1="304.22" x2="296.22" y1="655.76" y2="655.76"/><ellipse cx="310.22" cy="655.76" fill="none" rx="4" ry="4" style="stroke:#181818;stroke-width:1;"/><line style="stroke:#181818;stroke-width:1;" x1="1393" x2="1385" y1="829.01" y2="829.01"/><line style="stroke:#181818;stroke-width:1;" x1="1393" x2="1385" y1="826.01" y2="826.01"/><line style="stroke:#181818;stroke-width:1;" x1="1389" x2="1389" y1="825.01" y2="833.01"/></g><!--link profile to risk_level--><!--link risk_level to asset_class_level--><!--link asset_class_level to market_cap--><!--link market_cap to sector--><!--link sector to sub_industry--><!--link sub_industry to country_exposure--><!--link instrument to GMN42--><g class="link" data-entity-1="ent0003" data-entity-2="ent0043" data-link-type="association" data-source-line="158" id="lnk44"><path d="M296.39,469.76 C469.59,469.76 745,469.76 745,469.76 C745,469.76 745,512.94 745,539.59" fill="none" id="instrument-GMN42" style="stroke:#181818;stroke-width:1;stroke-dasharray:7,7;"/></g><?plantuml-src hLVlJXiv4F--Jp7Yor54ebAageggI0X2bPPIIgXKwNIAd5qdySLhhsmla1QaFiizsZt9sLvxO-yVGAT-I89dPcVcvvdvpI8tX1L8e1meOLXj2mnSg3LFPArWFCCI5_3kTI0KY6sSC4aAb6xG2iFUAHSOpdYE2Dk3dma0PegeBUnDcLIYpFLn3v04KX-j5S31JZ8d6OnWUdap-J2vXlVlhpwDnzPcCB0_H1Ac3Mucts-qzjlNGs0bfMX1iRCxO2Z7pgBbt28CT8NWIq9nC-Yv3og8tCmfliMqrmH9YTKyfVht6SiSYOqnHKMlYSIfug9VNIxcX6MbnhFjDKfvoOmUtnTSbg8Ft6CI5EY2I4NOobQ7Ld_xqhZZStLveeHrPWVk1dhrSfilE9sdkkN2AgMb49Yb3h8hVHUCpzQ_HL65yY2w0xSmv2GDWzi6SoQAf1iiveN0It8VjLUpttGgD6v0Nv7OTGrRaHp_u2nu9W9rMZrjKJbF7bQtunQiECFOkRlQohixrEwxxlqPxpQh31-t96zYYNTTbJpIPJWbEQBpZAo8ahkAsTmV0xxvZ1NAa49mQgQFB4cA5E5CnkHpLSsuHUZctGFi6V-d8Evw8hh7QqqK5sRwRPWTRVX8_KJoic1QVeV9QgqQrn6aS6A8oDx4Bf4MEVbydcMjbwQbbqCgI67klQV5gg4yHKKmbuO46xFPGOl_emupIw0sKiMbFaeti_u-bBDoCNNCN4KFgBhEuGdw_dsPEBwOEFeFUQFU2Kq2wTiLBws0Ji27loNuRkwMXhJ18ub-ofp7Ovj2rtBHuiuz42oOc79wzxlhhDZQ2JNLjsHj8kuWs40QEwufhM7SpNJwnlu0-y9qZMb5MsjII1ZeEYwvI37SOg6N3gAm9bWWaQwtYQV_XuVXC7luwV9EtAxpKdUfIV2QPLGYKDLCRnHbe4ZyzXyEnut2ZGnx_gt7I9hKQ-uLZVGBYdJo2qpvNL2PC9b7Rl9yy6JSfThHPPUsHLvTHZjQwT9MTD2f2OQqIzyS6NCP5sZBIwKBnVJb-1qp-7DDiWoplyGWn1FiXj2YZQdDtQ5z02-WrD32GNGq66b2Y15HXLPje8mhhA6OBSINNgzRV3hx0iT7RzyEZW3HOeq6RxHm_zli42RwStvz21-l3W6hTFXAqqG6na_JcsjbWBCIqO4T8RcL2kSZBVltrp_Wtyr6DjpHw-Dtnx3__V9aziePH6ze8_Z0-KfNuPmmn7H3xclBivEl_Ga4lMeGJI_hVon0pwEMwMzy3qW_defjeVZEqty0?></g></svg>