<?plantuml 1.2026.1?><svg xmlns="http://www.w3.org/2000/svg" xmlns:xlink="http://www.w3.org/1999/xlink" contentStyleType="text/css" data-diagram-type="CLASS" height="525px" preserveAspectRatio="none" style="width:493px;height:525px;background:#FFFFFF;" version="1.1" viewBox="0 0 493 525" width="493px" zoomAndPan="magnify"><defs/><g><!--class exchange--><g class="entity" data-qualified-name="exchange" data-source-line="3" id="ent0002"><rect fill="#F1F1F1" height="97.4648" rx="2.5" ry="2.5" style="stroke:#181818;stroke-width:0.5;" width="217.6934" x="7" y="23.48"/><ellipse cx="79.1055" cy="39.48" fill="#ADD1B2" rx="11" ry="11" style="stroke:#181818;stroke-width:1;"/><path d="M82.7197,45.98 L75,45.98 L75,33.5869 L82.7197,33.5869 L82.7197,35.7451 L77.4487,35.7451 L77.4487,38.418 L82.2217,38.418 L82.2217,40.5762 L77.4487,40.5762 L77.4487,43.8218 L82.7197,43.8218 Z " fill="#000000"/><text fill="#000000" font-family="sans-serif" font-size="14" lengthAdjust="spacing" textLength="64.9824" x="99.6055" y="44.771">Exchange</text><line style="stroke:#181818;stroke-width:0.5;" x1="8" x2="223.6934" y1="55.48" y2="55.48"/><g data-visibility-modifier="IE_MANDATORY"><ellipse cx="18" cy="69.2241" fill="#000000" rx="3" ry="3" style="stroke:#000000;stroke-width:1;"/></g><text fill="#000000" font-family="sans-serif" font-size="14" lengthAdjust="spacing" textLength="191.6934" x="27" y="73.0152">exchange_id : INTEGER &#171;PK&#187;</text><line style="stroke:#181818;stroke-width:1;" x1="8" x2="223.6934" y1="79.9683" y2="79.9683"/><g data-visibility-modifier="IE_MANDATORY"><ellipse cx="18" cy="93.7124" fill="#000000" rx="3" ry="3" style="stroke:#000000;stroke-width:1;"/></g><text fill="#000000" font-family="sans-serif" font-size="14" lengthAdjust="spacing" textLength="79.7275" x="27" y="97.5034">code : TEXT</text><text fill="#000000" font-family="sans-serif" font-size="14" lengthAdjust="spacing" textLength="84.6357" x="27" y="113.9917">name : TEXT</text></g><!--class market--><g class="entity" data-qualified-name="market" data-source-line="10" id="ent0003"><rect fill="#F1F1F1" height="97.4648" rx="2.5" ry="2.5" style="stroke:#181818;stroke-width:0.5;" width="217.4609" x="7.12" y="205.68"/><ellipse cx="88.2318" cy="221.68" fill="#ADD1B2" rx="11" ry="11" style="stroke:#181818;stroke-width:1;"/><path d="M91.8461,228.18 L84.1263,228.18 L84.1263,215.7869 L91.8461,215.7869 L91.8461,217.9451 L86.5751,217.9451 L86.5751,220.618 L91.348,220.618 L91.348,222.7762 L86.5751,222.7762 L86.5751,226.0218 L91.8461,226.0218 Z " fill="#000000"/><text fill="#000000" font-family="sans-serif" font-size="14" lengthAdjust="spacing" textLength="46.7373" x="108.7318" y="226.971">Market</text><line style="stroke:#181818;stroke-width:0.5;" x1="8.12" x2="223.5809" y1="237.68" y2="237.68"/><g data-visibility-modifier="IE_MANDATORY"><ellipse cx="18.12" cy="251.4241" fill="#000000" rx="3" ry="3" style="stroke:#000000;stroke-width:1;"/></g><text fill="#000000" font-family="sans-serif" font-size="14" lengthAdjust="spacing" textLength="174.248" x="27.12" y="255.2152">market_id : INTEGER &#171;PK&#187;</text><line style="stroke:#181818;stroke-width:1;" x1="8.12" x2="223.5809" y1="262.1683" y2="262.1683"/><g data-visibility-modifier="IE_MANDATORY"><ellipse cx="18.12" cy="275.9124" fill="#000000" rx="3" ry="3" style="stroke:#000000;stroke-width:1;"/></g><text fill="#000000" font-family="sans-serif" font-size="14" lengthAdjust="spacing" textLength="191.4609" x="27.12" y="279.7034">exchange_id : INTEGER &#171;FK&#187;</text><g data-visibility-modifier="IE_MANDATORY"><ellipse cx="18.12" cy="292.4007" fill="#000000" rx="3" ry="3" style="stroke:#000000;stroke-width:1;"/></g><text fill="#000000" font-family="sans-serif" font-size="14" lengthAdjust="spacing" textLength="79.7275" x="27.12" y="296.1917">code : TEXT</text></g><!--class instrument--><g class="entity" data-qualified-name="instrument" data-source-line="17" id="ent0004"><rect fill="#F1F1F1" height="113.9531" rx="2.5" ry="2.5" style="stroke:#181818;stroke-width:0.5;" width="226.8193" x="259.44" y="197.44"/><ellipse cx="331.4463" cy="213.44" fill="#ADD1B2" rx="11" ry="11" style="stroke:#181818;stroke-width:1;"/><path d="M335.0606,219.94 L327.3409,219.94 L327.3409,207.5469 L335.0606,207.5469 L335.0606,209.7051 L329.7896,209.7051 L329.7896,212.378 L334.5626,212.378 L334.5626,214.5362 L329.7896,214.5362 L329.7896,217.7818 L335.0606,217.7818 Z " fill="#000000"/><text fill="#000000" font-family="sans-serif" font-size="14" lengthAdjust="spacing" textLength="74.3066" x="351.9463" y="218.731">Instrument</text><line style="stroke:#181818;stroke-width:0.5;" x1="260.44" x2="485.2593" y1="229.44" y2="229.44"/><g data-visibility-modifier="IE_MANDATORY"><ellipse cx="270.44" cy="243.1841" fill="#000000" rx="3" ry="3" style="stroke:#000000;stroke-width:1;"/></g><text fill="#000000" font-family="sans-serif" font-size="14" lengthAdjust="spacing" textLength="200.8193" x="279.44" y="246.9752">instrument_id : INTEGER &#171;PK&#187;</text><line style="stroke:#181818;stroke-width:1;" x1="260.44" x2="485.2593" y1="253.9283" y2="253.9283"/><g data-visibility-modifier="IE_MANDATORY"><ellipse cx="270.44" cy="267.6724" fill="#000000" rx="3" ry="3" style="stroke:#000000;stroke-width:1;"/></g><text fill="#000000" font-family="sans-serif" font-size="14" lengthAdjust="spacing" textLength="71.2646" x="279.44" y="271.4634">isin : TEXT</text><g data-visibility-modifier="IE_MANDATORY"><ellipse cx="270.44" cy="284.1607" fill="#000000" rx="3" ry="3" style="stroke:#000000;stroke-width:1;"/></g><text fill="#000000" font-family="sans-serif" font-size="14" lengthAdjust="spacing" textLength="84.6357" x="279.44" y="287.9517">name : TEXT</text><g data-visibility-modifier="IE_MANDATORY"><ellipse cx="270.44" cy="300.649" fill="#000000" rx="3" ry="3" style="stroke:#000000;stroke-width:1;"/></g><text fill="#000000" font-family="sans-serif" font-size="14" lengthAdjust="spacing" textLength="157.8281" x="279.44" y="304.44">instrument_type : TEXT</text></g><!--class listing--><g class="entity" data-qualified-name="listing" data-source-line="25" id="ent0005"><rect fill="#F1F1F1" height="146.9297" rx="2.5" ry="2.5" style="stroke:#181818;stroke-width:0.5;" width="226.5869" x="130.55" y="371.39"/><ellipse cx="216.9187" cy="387.39" fill="#ADD1B2" rx="11" ry="11" style="stroke:#181818;stroke-width:1;"/><path d="M220.5329,393.89 L212.8132,393.89 L212.8132,381.4969 L220.5329,381.4969 L220.5329,383.6551 L215.2619,383.6551 L215.2619,386.328 L220.0349,386.328 L220.0349,388.4862 L215.2619,388.4862 L215.2619,391.7318 L220.5329,391.7318 Z " fill="#000000"/><text fill="#000000" font-family="sans-serif" font-size="14" lengthAdjust="spacing" textLength="45.3496" x="237.4187" y="392.681">Listing</text><line style="stroke:#181818;stroke-width:0.5;" x1="131.55" x2="356.1369" y1="403.39" y2="403.39"/><g data-visibility-modifier="IE_MANDATORY"><ellipse cx="141.55" cy="417.1341" fill="#000000" rx="3" ry="3" style="stroke:#000000;stroke-width:1;"/></g><text fill="#000000" font-family="sans-serif" font-size="14" lengthAdjust="spacing" textLength="168.4307" x="150.55" y="420.9252">listing_id : INTEGER &#171;PK&#187;</text><line style="stroke:#181818;stroke-width:1;" x1="131.55" x2="356.1369" y1="427.8783" y2="427.8783"/><g data-visibility-modifier="IE_MANDATORY"><ellipse cx="141.55" cy="441.6224" fill="#000000" rx="3" ry="3" style="stroke:#000000;stroke-width:1;"/></g><text fill="#000000" font-family="sans-serif" font-size="14" lengthAdjust="spacing" textLength="200.5869" x="150.55" y="445.4134">instrument_id : INTEGER &#171;FK&#187;</text><g data-visibility-modifier="IE_MANDATORY"><ellipse cx="141.55" cy="458.1107" fill="#000000" rx="3" ry="3" style="stroke:#000000;stroke-width:1;"/></g><text fill="#000000" font-family="sans-serif" font-size="14" lengthAdjust="spacing" textLength="174.0156" x="150.55" y="461.9017">market_id : INTEGER &#171;FK&#187;</text><g data-visibility-modifier="IE_MANDATORY"><ellipse cx="141.55" cy="474.599" fill="#000000" rx="3" ry="3" style="stroke:#000000;stroke-width:1;"/></g><text fill="#000000" font-family="sans-serif" font-size="14" lengthAdjust="spacing" textLength="135.707" x="150.55" y="478.39">symbol_code : TEXT</text><text fill="#000000" font-family="sans-serif" font-size="14" lengthAdjust="spacing" textLength="140.4102" x="150.55" y="494.8783">display_ticker : TEXT</text><text fill="#000000" font-family="sans-serif" font-size="14" lengthAdjust="spacing" textLength="125.4941" x="150.55" y="511.3666">currency_id : TEXT</text></g><!--class currency--><g class="entity" data-qualified-name="currency" data-source-line="35" id="ent0006"><rect fill="#F1F1F1" height="130.4414" rx="2.5" ry="2.5" style="stroke:#181818;stroke-width:0.5;" width="187.6152" x="260.04" y="7"/><ellipse cx="319.1948" cy="23" fill="#ADD1B2" rx="11" ry="11" style="stroke:#181818;stroke-width:1;"/><path d="M322.809,29.5 L315.0893,29.5 L315.0893,17.1069 L322.809,17.1069 L322.809,19.2651 L317.538,19.2651 L317.538,21.938 L322.311,21.938 L322.311,24.0962 L317.538,24.0962 L317.538,27.3418 L322.809,27.3418 Z " fill="#000000"/><text fill="#000000" font-family="sans-serif" font-size="14" lengthAdjust="spacing" textLength="60.8057" x="339.6948" y="28.291">Currency</text><line style="stroke:#181818;stroke-width:0.5;" x1="261.04" x2="446.6552" y1="39" y2="39"/><g data-visibility-modifier="IE_MANDATORY"><ellipse cx="271.04" cy="52.7441" fill="#000000" rx="3" ry="3" style="stroke:#000000;stroke-width:1;"/></g><text fill="#000000" font-family="sans-serif" font-size="14" lengthAdjust="spacing" textLength="161.4717" x="280.04" y="56.5352">currency_id : TEXT &#171;PK&#187;</text><line style="stroke:#181818;stroke-width:1;" x1="261.04" x2="446.6552" y1="63.4883" y2="63.4883"/><g data-visibility-modifier="IE_MANDATORY"><ellipse cx="271.04" cy="77.2324" fill="#000000" rx="3" ry="3" style="stroke:#000000;stroke-width:1;"/></g><text fill="#000000" font-family="sans-serif" font-size="14" lengthAdjust="spacing" textLength="84.6357" x="280.04" y="81.0234">name : TEXT</text><g data-visibility-modifier="IE_MANDATORY"><ellipse cx="271.04" cy="93.7207" fill="#000000" rx="3" ry="3" style="stroke:#000000;stroke-width:1;"/></g><text fill="#000000" font-family="sans-serif" font-size="14" lengthAdjust="spacing" textLength="88.5801" x="280.04" y="97.5117">code3 : TEXT</text><g data-visibility-modifier="IE_MANDATORY"><ellipse cx="271.04" cy="110.209" fill="#000000" rx="3" ry="3" style="stroke:#000000;stroke-width:1;"/></g><text fill="#000000" font-family="sans-serif" font-size="14" lengthAdjust="spacing" textLength="88.5801" x="280.04" y="114">code2 : TEXT</text><g data-visibility-modifier="IE_MANDATORY"><ellipse cx="271.04" cy="126.6973" fill="#000000" rx="3" ry="3" style="stroke:#000000;stroke-width:1;"/></g><text fill="#000000" font-family="sans-serif" font-size="14" lengthAdjust="spacing" textLength="161.6152" x="280.04" y="130.4883">currency_symbol : TEXT</text></g><!--link exchange to market--><g class="link" data-entity-1="ent0002" data-entity-2="ent0003" data-link-type="crowfoot" data-source-line="44" id="lnk7"><path codeLine="44" d="M115.85,129.04 C115.85,155.18 115.85,171.29 115.85,197.45" fill="none" id="exchange-market" style="stroke:#181818;stroke-width:1;stroke-dasharray:7,7;"/><line style="stroke:#181818;stroke-width:1;" x1="111.85" x2="119.85" y1="125.04" y2="125.04"/><line style="stroke:#181818;stroke-width:1;" x1="111.85" x2="119.85" y1="128.04" y2="128.04"/><line style="stroke:#181818;stroke-width:1;" x1="115.85" x2="115.85" y1="129.04" y2="121.04"/><line style="stroke:#181818;stroke-width:1;" x1="115.85" x2="121.85" y1="197.45" y2="205.45"/><line style="stroke:#181818;stroke-width:1;" x1="115.85" x2="109.85" y1="197.45" y2="205.45"/><line style="stroke:#181818;stroke-width:1;" x1="115.85" x2="115.85" y1="197.45" y2="205.45"/><line style="stroke:#181818;stroke-width:1;" x1="119.85" x2="111.85" y1="195.45" y2="195.45"/></g><!--link market to listing--><g class="link" data-entity-1="ent0003" data-entity-2="ent0005" data-link-type="crowfoot" data-source-line="45" id="lnk8"><path codeLine="45" d="M177.57,311.46 C177.57,332.07 177.57,340.48 177.57,363.18" fill="none" id="market-listing" style="stroke:#181818;stroke-width:1;stroke-dasharray:7,7;"/><line style="stroke:#181818;stroke-width:1;" x1="173.57" x2="181.57" y1="307.46" y2="307.46"/><line style="stroke:#181818;stroke-width:1;" x1="173.57" x2="181.57" y1="310.46" y2="310.46"/><line style="stroke:#181818;stroke-width:1;" x1="177.57" x2="177.57" y1="311.46" y2="303.46"/><line style="stroke:#181818;stroke-width:1;" x1="177.57" x2="183.57" y1="363.18" y2="371.18"/><line style="stroke:#181818;stroke-width:1;" x1="177.57" x2="171.57" y1="363.18" y2="371.18"/><line style="stroke:#181818;stroke-width:1;" x1="177.57" x2="177.57" y1="363.18" y2="371.18"/><line style="stroke:#181818;stroke-width:1;" x1="181.57" x2="173.57" y1="361.18" y2="361.18"/></g><!--link instrument to listing--><g class="link" data-entity-1="ent0004" data-entity-2="ent0005" data-link-type="crowfoot" data-source-line="46" id="lnk9"><path codeLine="46" d="M308.29,319.81 C308.29,338.43 308.29,343.35 308.29,362.99" fill="none" id="instrument-listing" style="stroke:#181818;stroke-width:1;stroke-dasharray:7,7;"/><line style="stroke:#181818;stroke-width:1;" x1="304.29" x2="312.29" y1="315.81" y2="315.81"/><line style="stroke:#181818;stroke-width:1;" x1="304.29" x2="312.29" y1="318.81" y2="318.81"/><line style="stroke:#181818;stroke-width:1;" x1="308.29" x2="308.29" y1="319.81" y2="311.81"/><line style="stroke:#181818;stroke-width:1;" x1="308.29" x2="314.29" y1="362.99" y2="370.99"/><line style="stroke:#181818;stroke-width:1;" x1="308.29" x2="302.29" y1="362.99" y2="370.99"/><line style="stroke:#181818;stroke-width:1;" x1="308.29" x2="308.29" y1="362.99" y2="370.99"/><line style="stroke:#181818;stroke-width:1;" x1="312.29" x2="304.29" y1="360.99" y2="360.99"/></g><?plantuml-src VL9DQyCm3BtxLuWU2-rXkutIoyX6sGTZvB1Ry1pJYiHEi5sOQVRVb_gZST8rDprBrdjFagvGjbHH0JLARcpBeL7cq132fK5ZOP7zi0ELUxu0ge4702S2i8oem18UOFUUPy_P9sms7o_RRPzVhSv5h2bvdysphxo7aeeB-Xr8tgYgk74KmeMUmCUpxMzfUF958_g4S2UrKKVHGqUA5-Y91pnBZXhbu6sPcXitSOEzLl6Asg3SEmcrZpr_0FFaDpL6x_-FBsQr5TzDNOptKw9kQseBWwpYQdXdHwMuPDOtc_fu35bd99Pw9zSVfpucKplhkP_WknJ7Xbv_gYOUPzUjrzqfN1891nKUmsH9il5nvWy0?></g></svg>