<?plantuml 1.2026.1?><svg xmlns="http://www.w3.org/2000/svg" xmlns:xlink="http://www.w3.org/1999/xlink" contentStyleType="text/css" data-diagram-type="CLASS" height="508px" preserveAspectRatio="none" style="width:715px;height:508px;background:#FFFFFF;" version="1.1" viewBox="0 0 715 508" width="715px" zoomAndPan="magnify"><defs/><g><!--class exchange--><g class="entity" data-qualified-name="exchange" data-source-line="3" id="ent0002"><rect fill="#F1F1F1" height="97.4648" rx="2.5" ry="2.5" style="stroke:#181818;stroke-width:0.5;" width="217.6934" x="7" y="7"/><ellipse cx="79.1055" cy="23" fill="#ADD1B2" rx="11" ry="11" style="stroke:#181818;stroke-width:1;"/><path d="M82.7197,29.5 L75,29.5 L75,17.1069 L82.7197,17.1069 L82.7197,19.2651 L77.4487,19.2651 L77.4487,21.938 L82.2217,21.938 L82.2217,24.0962 L77.4487,24.0962 L77.4487,27.3418 L82.7197,27.3418 Z " fill="#000000"/><text fill="#000000" font-family="sans-serif" font-size="14" lengthAdjust="spacing" textLength="64.9824" x="99.6055" y="28.291">Exchange</text><line style="stroke:#181818;stroke-width:0.5;" x1="8" x2="223.6934" y1="39" y2="39"/><g data-visibility-modifier="IE_MANDATORY"><ellipse cx="18" cy="52.7441" fill="#000000" rx="3" ry="3" style="stroke:#000000;stroke-width:1;"/></g><text fill="#000000" font-family="sans-serif" font-size="14" lengthAdjust="spacing" textLength="191.6934" x="27" y="56.5352">exchange_id : INTEGER &#171;PK&#187;</text><line style="stroke:#181818;stroke-width:1;" x1="8" x2="223.6934" y1="63.4883" y2="63.4883"/><g data-visibility-modifier="IE_MANDATORY"><ellipse cx="18" cy="77.2324" fill="#000000" rx="3" ry="3" style="stroke:#000000;stroke-width:1;"/></g><text fill="#000000" font-family="sans-serif" font-size="14" lengthAdjust="spacing" textLength="79.7275" x="27" y="81.0234">code : TEXT</text><text fill="#000000" font-family="sans-serif" font-size="14" lengthAdjust="spacing" textLength="84.6357" x="27" y="97.5117">name : TEXT</text></g><!--class market--><g class="entity" data-qualified-name="market" data-source-line="10" id="ent0003"><rect fill="#F1F1F1" height="97.4648" rx="2.5" ry="2.5" style="stroke:#181818;stroke-width:0.5;" width="217.4609" x="7.12" y="180.96"/><ellipse cx="88.2318" cy="196.96" fill="#ADD1B2" rx="11" ry="11" style="stroke:#181818;stroke-width:1;"/><path d="M91.8461,203.46 L84.1263,203.46 L84.1263,191.0669 L91.8461,191.0669 L91.8461,193.2251 L86.5751,193.2251 L86.5751,195.898 L91.348,195.898 L91.348,198.0562 L86.5751,198.0562 L86.5751,201.3018 L91.8461,201.3018 Z " fill="#000000"/><text fill="#000000" font-family="sans-serif" font-size="14" lengthAdjust="spacing" textLength="46.7373" x="108.7318" y="202.251">Market</text><line style="stroke:#181818;stroke-width:0.5;" x1="8.12" x2="223.5809" y1="212.96" y2="212.96"/><g data-visibility-modifier="IE_MANDATORY"><ellipse cx="18.12" cy="226.7041" fill="#000000" rx="3" ry="3" style="stroke:#000000;stroke-width:1;"/></g><text fill="#000000" font-family="sans-serif" font-size="14" lengthAdjust="spacing" textLength="174.248" x="27.12" y="230.4952">market_id : INTEGER &#171;PK&#187;</text><line style="stroke:#181818;stroke-width:1;" x1="8.12" x2="223.5809" y1="237.4483" y2="237.4483"/><g data-visibility-modifier="IE_MANDATORY"><ellipse cx="18.12" cy="251.1924" fill="#000000" rx="3" ry="3" style="stroke:#000000;stroke-width:1;"/></g><text fill="#000000" font-family="sans-serif" font-size="14" lengthAdjust="spacing" textLength="191.4609" x="27.12" y="254.9834">exchange_id : INTEGER &#171;FK&#187;</text><g data-visibility-modifier="IE_MANDATORY"><ellipse cx="18.12" cy="267.6807" fill="#000000" rx="3" ry="3" style="stroke:#000000;stroke-width:1;"/></g><text fill="#000000" font-family="sans-serif" font-size="14" lengthAdjust="spacing" textLength="79.7275" x="27.12" y="271.4717">code : TEXT</text></g><!--class instrument--><g class="entity" data-qualified-name="instrument" data-source-line="17" id="ent0004"><rect fill="#F1F1F1" height="113.9531" rx="2.5" ry="2.5" style="stroke:#181818;stroke-width:0.5;" width="226.8193" x="259.44" y="172.71"/><ellipse cx="331.4463" cy="188.71" fill="#ADD1B2" rx="11" ry="11" style="stroke:#181818;stroke-width:1;"/><path d="M335.0606,195.21 L327.3409,195.21 L327.3409,182.8169 L335.0606,182.8169 L335.0606,184.9751 L329.7896,184.9751 L329.7896,187.648 L334.5626,187.648 L334.5626,189.8062 L329.7896,189.8062 L329.7896,193.0518 L335.0606,193.0518 Z " fill="#000000"/><text fill="#000000" font-family="sans-serif" font-size="14" lengthAdjust="spacing" textLength="74.3066" x="351.9463" y="194.001">Instrument</text><line style="stroke:#181818;stroke-width:0.5;" x1="260.44" x2="485.2593" y1="204.71" y2="204.71"/><g data-visibility-modifier="IE_MANDATORY"><ellipse cx="270.44" cy="218.4541" fill="#000000" rx="3" ry="3" style="stroke:#000000;stroke-width:1;"/></g><text fill="#000000" font-family="sans-serif" font-size="14" lengthAdjust="spacing" textLength="200.8193" x="279.44" y="222.2452">instrument_id : INTEGER &#171;PK&#187;</text><line style="stroke:#181818;stroke-width:1;" x1="260.44" x2="485.2593" y1="229.1983" y2="229.1983"/><g data-visibility-modifier="IE_MANDATORY"><ellipse cx="270.44" cy="242.9424" fill="#000000" rx="3" ry="3" style="stroke:#000000;stroke-width:1;"/></g><text fill="#000000" font-family="sans-serif" font-size="14" lengthAdjust="spacing" textLength="71.2646" x="279.44" y="246.7334">isin : TEXT</text><g data-visibility-modifier="IE_MANDATORY"><ellipse cx="270.44" cy="259.4307" fill="#000000" rx="3" ry="3" style="stroke:#000000;stroke-width:1;"/></g><text fill="#000000" font-family="sans-serif" font-size="14" lengthAdjust="spacing" textLength="84.6357" x="279.44" y="263.2217">name : TEXT</text><g data-visibility-modifier="IE_MANDATORY"><ellipse cx="270.44" cy="275.919" fill="#000000" rx="3" ry="3" style="stroke:#000000;stroke-width:1;"/></g><text fill="#000000" font-family="sans-serif" font-size="14" lengthAdjust="spacing" textLength="157.8281" x="279.44" y="279.71">instrument_type : TEXT</text></g><!--class listing--><g class="entity" data-qualified-name="listing" data-source-line="25" id="ent0005"><rect fill="#F1F1F1" height="146.9297" rx="2.5" ry="2.5" style="stroke:#181818;stroke-width:0.5;" width="226.5869" x="259.55" y="354.91"/><ellipse cx="345.9187" cy="370.91" fill="#ADD1B2" rx="11" ry="11" style="stroke:#181818;stroke-width:1;"/><path d="M349.5329,377.41 L341.8132,377.41 L341.8132,365.0169 L349.5329,365.0169 L349.5329,367.1751 L344.2619,367.1751 L344.2619,369.848 L349.0349,369.848 L349.0349,372.0062 L344.2619,372.0062 L344.2619,375.2518 L349.5329,375.2518 Z " fill="#000000"/><text fill="#000000" font-family="sans-serif" font-size="14" lengthAdjust="spacing" textLength="45.3496" x="366.4187" y="376.201">Listing</text><line style="stroke:#181818;stroke-width:0.5;" x1="260.55" x2="485.1369" y1="386.91" y2="386.91"/><g data-visibility-modifier="IE_MANDATORY"><ellipse cx="270.55" cy="400.6541" fill="#000000" rx="3" ry="3" style="stroke:#000000;stroke-width:1;"/></g><text fill="#000000" font-family="sans-serif" font-size="14" lengthAdjust="spacing" textLength="168.4307" x="279.55" y="404.4452">listing_id : INTEGER &#171;PK&#187;</text><line style="stroke:#181818;stroke-width:1;" x1="260.55" x2="485.1369" y1="411.3983" y2="411.3983"/><g data-visibility-modifier="IE_MANDATORY"><ellipse cx="270.55" cy="425.1424" fill="#000000" rx="3" ry="3" style="stroke:#000000;stroke-width:1;"/></g><text fill="#000000" font-family="sans-serif" font-size="14" lengthAdjust="spacing" textLength="200.5869" x="279.55" y="428.9334">instrument_id : INTEGER &#171;FK&#187;</text><g data-visibility-modifier="IE_MANDATORY"><ellipse cx="270.55" cy="441.6307" fill="#000000" rx="3" ry="3" style="stroke:#000000;stroke-width:1;"/></g><text fill="#000000" font-family="sans-serif" font-size="14" lengthAdjust="spacing" textLength="174.0156" x="279.55" y="445.4217">market_id : INTEGER &#171;FK&#187;</text><g data-visibility-modifier="IE_MANDATORY"><ellipse cx="270.55" cy="458.119" fill="#000000" rx="3" ry="3" style="stroke:#000000;stroke-width:1;"/></g><text fill="#000000" font-family="sans-serif" font-size="14" lengthAdjust="spacing" textLength="135.707" x="279.55" y="461.91">symbol_code : TEXT</text><text fill="#000000" font-family="sans-serif" font-size="14" lengthAdjust="spacing" textLength="140.4102" x="279.55" y="478.3983">display_ticker : TEXT</text><text fill="#000000" font-family="sans-serif" font-size="14" lengthAdjust="spacing" textLength="161.2393" x="279.55" y="494.8866">currency_id : TEXT &#171;FK&#187;</text></g><!--class currency--><g class="entity" data-qualified-name="currency" data-source-line="35" id="ent0006"><rect fill="#F1F1F1" height="130.4414" rx="2.5" ry="2.5" style="stroke:#181818;stroke-width:0.5;" width="187.6152" x="521.04" y="164.47"/><ellipse cx="580.1948" cy="180.47" fill="#ADD1B2" rx="11" ry="11" style="stroke:#181818;stroke-width:1;"/><path d="M583.809,186.97 L576.0893,186.97 L576.0893,174.5769 L583.809,174.5769 L583.809,176.7351 L578.538,176.7351 L578.538,179.408 L583.311,179.408 L583.311,181.5662 L578.538,181.5662 L578.538,184.8118 L583.809,184.8118 Z " fill="#000000"/><text fill="#000000" font-family="sans-serif" font-size="14" lengthAdjust="spacing" textLength="60.8057" x="600.6948" y="185.761">Currency</text><line style="stroke:#181818;stroke-width:0.5;" x1="522.04" x2="707.6552" y1="196.47" y2="196.47"/><g data-visibility-modifier="IE_MANDATORY"><ellipse cx="532.04" cy="210.2141" fill="#000000" rx="3" ry="3" style="stroke:#000000;stroke-width:1;"/></g><text fill="#000000" font-family="sans-serif" font-size="14" lengthAdjust="spacing" textLength="161.4717" x="541.04" y="214.0052">currency_id : TEXT &#171;PK&#187;</text><line style="stroke:#181818;stroke-width:1;" x1="522.04" x2="707.6552" y1="220.9583" y2="220.9583"/><g data-visibility-modifier="IE_MANDATORY"><ellipse cx="532.04" cy="234.7024" fill="#000000" rx="3" ry="3" style="stroke:#000000;stroke-width:1;"/></g><text fill="#000000" font-family="sans-serif" font-size="14" lengthAdjust="spacing" textLength="84.6357" x="541.04" y="238.4934">name : TEXT</text><g data-visibility-modifier="IE_MANDATORY"><ellipse cx="532.04" cy="251.1907" fill="#000000" rx="3" ry="3" style="stroke:#000000;stroke-width:1;"/></g><text fill="#000000" font-family="sans-serif" font-size="14" lengthAdjust="spacing" textLength="88.5801" x="541.04" y="254.9817">code3 : TEXT</text><g data-visibility-modifier="IE_MANDATORY"><ellipse cx="532.04" cy="267.679" fill="#000000" rx="3" ry="3" style="stroke:#000000;stroke-width:1;"/></g><text fill="#000000" font-family="sans-serif" font-size="14" lengthAdjust="spacing" textLength="88.5801" x="541.04" y="271.47">code2 : TEXT</text><g data-visibility-modifier="IE_MANDATORY"><ellipse cx="532.04" cy="284.1673" fill="#000000" rx="3" ry="3" style="stroke:#000000;stroke-width:1;"/></g><text fill="#000000" font-family="sans-serif" font-size="14" lengthAdjust="spacing" textLength="161.6152" x="541.04" y="287.9583">currency_symbol : TEXT</text></g><!--link exchange to market--><g class="link" data-entity-1="ent0002" data-entity-2="ent0003" data-link-type="crowfoot" data-source-line="44" id="lnk7"><path codeLine="44" d="M115.85,112.66 C115.85,136.37 115.85,148.79 115.85,172.54" fill="none" id="exchange-market" style="stroke:#181818;stroke-width:1;stroke-dasharray:7,7;"/><line style="stroke:#181818;stroke-width:1;" x1="111.85" x2="119.85" y1="108.66" y2="108.66"/><line style="stroke:#181818;stroke-width:1;" x1="111.85" x2="119.85" y1="111.66" y2="111.66"/><line style="stroke:#181818;stroke-width:1;" x1="115.85" x2="115.85" y1="112.66" y2="104.66"/><line style="stroke:#181818;stroke-width:1;" x1="115.85" x2="121.85" y1="172.54" y2="180.54"/><line style="stroke:#181818;stroke-width:1;" x1="115.85" x2="109.85" y1="172.54" y2="180.54"/><line style="stroke:#181818;stroke-width:1;" x1="115.85" x2="115.85" y1="172.54" y2="180.54"/><line style="stroke:#181818;stroke-width:1;" x1="119.85" x2="111.85" y1="170.54" y2="170.54"/></g><!--link market to listing--><g class="link" data-entity-1="ent0003" data-entity-2="ent0005" data-link-type="crowfoot" data-source-line="45" id="lnk8"><path codeLine="45" d="M115.85,286.92 C115.85,345.89 115.85,428.84 115.85,428.84 C115.85,428.84 182.53,428.84 251.37,428.84" fill="none" id="market-listing" style="stroke:#181818;stroke-width:1;stroke-dasharray:7,7;"/><line style="stroke:#181818;stroke-width:1;" x1="111.85" x2="119.85" y1="282.92" y2="282.92"/><line style="stroke:#181818;stroke-width:1;" x1="111.85" x2="119.85" y1="285.92" y2="285.92"/><line style="stroke:#181818;stroke-width:1;" x1="115.85" x2="115.85" y1="286.92" y2="278.92"/><line style="stroke:#181818;stroke-width:1;" x1="251.37" x2="259.37" y1="428.84" y2="422.84"/><line style="stroke:#181818;stroke-width:1;" x1="251.37" x2="259.37" y1="428.84" y2="434.84"/><line style="stroke:#181818;stroke-width:1;" x1="251.37" x2="259.37" y1="428.84" y2="428.84"/><line style="stroke:#181818;stroke-width:1;" x1="249.37" x2="249.37" y1="424.84" y2="432.84"/></g><!--link instrument to listing--><g class="link" data-entity-1="ent0004" data-entity-2="ent0005" data-link-type="crowfoot" data-source-line="46" id="lnk9"><path codeLine="46" d="M335.08,295.16 C335.08,316.25 335.08,324.41 335.08,346.73" fill="none" id="instrument-listing" style="stroke:#181818;stroke-width:1;stroke-dasharray:7,7;"/><line style="stroke:#181818;stroke-width:1;" x1="331.08" x2="339.08" y1="291.16" y2="291.16"/><line style="stroke:#181818;stroke-width:1;" x1="331.08" x2="339.08" y1="294.16" y2="294.16"/><line style="stroke:#181818;stroke-width:1;" x1="335.08" x2="335.08" y1="295.16" y2="287.16"/><line style="stroke:#181818;stroke-width:1;" x1="335.08" x2="341.08" y1="346.73" y2="354.73"/><line style="stroke:#181818;stroke-width:1;" x1="335.08" x2="329.08" y1="346.73" y2="354.73"/><line style="stroke:#181818;stroke-width:1;" x1="335.08" x2="335.08" y1="346.73" y2="354.73"/><line style="stroke:#181818;stroke-width:1;" x1="339.08" x2="331.08" y1="344.73" y2="344.73"/></g><!--link currency to listing--><g class="link" data-entity-1="ent0006" data-entity-2="ent0005" data-link-type="crowfoot" data-source-line="47" id="lnk10"><path codeLine="47" d="M512.8,290.84 C459.2,290.84 410.61,290.84 410.61,290.84 C410.61,290.84 410.61,314.08 410.61,346.78" fill="none" id="currency-listing" style="stroke:#181818;stroke-width:1;stroke-dasharray:7,7;"/><line style="stroke:#181818;stroke-width:1;" x1="516.8" x2="516.8" y1="286.84" y2="294.84"/><line style="stroke:#181818;stroke-width:1;" x1="513.8" x2="513.8" y1="286.84" y2="294.84"/><line style="stroke:#181818;stroke-width:1;" x1="512.8" x2="520.8" y1="290.84" y2="290.84"/><line style="stroke:#181818;stroke-width:1;" x1="410.61" x2="416.61" y1="346.78" y2="354.78"/><line style="stroke:#181818;stroke-width:1;" x1="410.61" x2="404.61" y1="346.78" y2="354.78"/><line style="stroke:#181818;stroke-width:1;" x1="410.61" x2="410.61" y1="346.78" y2="354.78"/><line style="stroke:#181818;stroke-width:1;" x1="414.61" x2="406.61" y1="344.78" y2="344.78"/></g><?plantuml-src VL9DQyCm3BtdLuWU2-rXkutIoyX6sGTZvB1Ry1pJYiHEi5sOQVRVb_WZSR8sDpr9rdjFbYfHD4GI3XKAfat3e9RwL2S94ngrWLNwGqz47DaAY0Bc0LmIW7L0EHRm08VtB7rEFs6t-tZPxxlwPjCtqRfWNJLBlx8E2i87z3kIl15PCcqfk0qTWOiNnz_IyEIQ9lGHuK4eBS-yWvOK1-Y8Hxn8ZWh5w6qTcviEiOlzh-8LbKPnj18g5pj-3vR9RseCtg-lBrILuTzrbK__fq3LLCJa6cd9v9YdPocPeCODwvDXKcJdqJTPF-65CtJr_SJER7czhFiPlejn6EXinCiDDzgsssrxyGUL-BloIR_W9FhuMMNGFyt_0G00?></g></svg>